<?xml version="1.0" encoding="UTF-8" standalone="no"?>
<svg xmlns="http://www.w3.org/2000/svg" xmlns:xlink="http://www.w3.org/1999/xlink"  version="1.2" baseProfile="tiny" viewBox ="0 0 1518 658">
<title>pyqtgraph SVG export</title>
<desc>Generated with Qt and pyqtgraph</desc>
<style>
    image {
        image-rendering: crisp-edges;
        image-rendering: -moz-crisp-edges;
        image-rendering: pixelated;
    }
</style>
<rect width="100%" height="100%" fill="#ffffff" fill-opacity="1.0" />
<defs>
</defs>
<g fill="none" stroke="black" stroke-width="1" fill-rule="evenodd" stroke-linecap="square" stroke-linejoin="bevel" id="PlotItem_1">
    <g fill="none" stroke="black" stroke-width="1" fill-rule="evenodd" stroke-linecap="square" stroke-linejoin="bevel" id="ViewBox_1">
        <g fill="none" stroke="none" font-family="Segoe UI" font-size="12" font-weight="400" font-style="normal">
            <path vector-effect="non-scaling-stroke" fill-rule="evenodd" d="M52.0,31.0 L1517.5,31.0 L1517.5,613.5 L52.0,613.5 L52.0,31.0 "/>
        </g>
        <clipPath id="ViewBox_1_clip">
            <path vector-effect="none" fill-rule="evenodd" d="M52.0,31.0 L1517.5,31.0 L1517.5,613.5 L52.0,613.5 L52.0,31.0 " stroke-width="1.0"/>
        </clipPath>
        <g clip-path="url(#ViewBox_1_clip)">
            <g fill="none" stroke="black" stroke-width="1" fill-rule="evenodd" stroke-linecap="square" stroke-linejoin="bevel" id="ChildGroup_1">
                <g fill="none" stroke="black" stroke-width="1" fill-rule="evenodd" stroke-linecap="square" stroke-linejoin="bevel" id="FillBetweenItem_1">
                    <g fill="#ffff00" fill-opacity="0.196078" stroke="none" font-family="Segoe UI" font-size="12" font-weight="400" font-style="normal">
                        <path vector-effect="non-scaling-stroke" fill-rule="evenodd" d="M97.36112999999999,53.932885050000095 L104.33716,154.24232295000024 L111.31318999999999,134.38731435000022 L118.28922,230.0889931500003 L125.26525,205.55905695000024 L132.24128,249.58800870000005 L139.21731,258.9781650000002 L146.19333999999998,302.60410575000014 L153.16937,304.57885965000014 L160.1454,279.8339842500002 L167.12142999999998,288.6532083000002 L174.09745999999998,250.60896990000015 L181.07349,230.98233420000042 L188.04951999999997,220.81974015000014 L195.02555,255.21001215000024 L202.00158,238.71342855000012 L208.97760999999997,276.20016840000017 L215.95364,271.30358475 L222.92967,273.4865610000004 L229.9057,297.6134862000001 L236.88172999999998,298.00978035000026 L243.85775999999998,336.8398902000001 L250.83379,341.39391450000016 L257.80981999999995,337.2630517500004 L264.78585,331.1708688000001 L271.76188,328.1885874000002 L278.73791,332.6552926500003 L285.71394,333.7702897500001 L292.68997,326.53624230000014 L299.666,323.5875451500001 L306.64203,339.36542580000014 L313.61806,358.8711582000003 L320.59409,364.9230400500003 L327.57012,357.8501970000002 L334.54615,360.2884135500001 L341.52218,366.3671628000002 L348.49821,370.4308570500002 L355.47424,369.9606775500001 L362.45026999999993,354.65297640000017 L369.42629999999997,363.6199711500003 L376.40233,364.1237349000003 L383.37835999999993,362.0818125000003 L390.35438999999997,353.40364230000023 L397.33042,357.1180603500004 L404.3064499999999,358.70323695000025 L411.28247999999996,366.38059650000014 L418.25851,368.65760865000016 L425.2345399999999,378.5783961000002 L432.21056999999996,381.3860394000003 L439.1866,384.0862131000001 L446.16263000000004,386.4639780000002 L453.13865999999996,382.0845918000002 L460.11469,375.19310370000017 L467.09072000000003,368.04637530000014 L474.06674999999996,367.1799016500004 L481.04278,367.34110605000023 L488.01881000000003,364.2043371000002 L494.99483999999995,364.29165615000034 L501.97087,360.18094395 L508.9469,361.72581945000024 L515.92293,362.00121030000014 L522.89896,365.52083970000035 L529.87499,363.761025 L536.85102,364.10358435000035 L543.82705,365.4603880500001 L550.80308,366.52836720000005 L557.77911,362.3907876000003 L564.75514,368.13369435000027 L571.73117,373.8631674000003 L578.7072,378.75303420000023 L585.68323,376.5767748000003 L592.65926,367.5023104500003 L599.6352899999999,366.40074705000006 L606.61132,361.3026579000002 L613.5873499999999,361.6250667000004 L620.5633799999999,360.9063637500003 L627.53941,364.3924089000004 L634.5154399999999,360.32871465000017 L641.4914699999999,362.63931105000006 L648.4675,357.1247772000004 L655.4435299999999,356.66131455000027 L662.4195599999999,357.83004645000005 L669.39559,357.36658380000017 L676.3716199999999,356.91655485000024 L683.3476499999999,356.44637535000015 L690.32368,354.90149985000016 L697.2997099999999,359.7577824000002 L704.2757399999999,361.8601564500002 L711.25177,356.8359526500003 L718.2277999999999,357.64869150000027 L725.2038299999999,345.61881315000005 L732.17986,356.84938635000026 L739.1558899999999,363.9625305000002 L746.1319199999999,368.81881305000024 L753.10795,373.8497337000001 L760.0839799999999,375.3072901500002 L767.0600099999999,368.25459765000005 L774.03604,373.07057910000003 L781.01207,370.51145925000014 L787.9880999999999,370.01441235000016 L794.96413,370.16889990000027 L801.94016,369.50393175 L808.9161899999999,366.4208976000002 L815.89222,367.89188775000025 L822.86825,367.4351419500001 L829.8442799999999,368.0329416000002 L836.82031,371.9219977500002 L843.79634,373.2116329500002 L850.7723699999999,375.7774696500003 L857.7484,376.40213670000026 L864.72443,378.86722065000026 L871.7004599999999,377.5843023000002 L878.67649,374.5012681500002 L885.65252,371.07567465000034 L892.6285499999999,370.05471345000024 L899.6045799999999,370.76669955000034 L906.58061,370.3166706000002 L913.5566399999999,371.5458541500002 L920.5326699999999,373.3392531000002 L927.5087,374.5348524000003 L934.4847299999999,373.3929879000002 L941.4607599999999,370.7331153 L948.43679,372.2511234000001 L955.4128199999999,376.1133121500002 L962.3888499999999,377.2148755500002 L969.36488,375.6565663500003 L976.3409099999999,374.0982571500001 L983.3169399999999,375.81777075000014 L990.29297,381.0703474500001 L997.2689999999999,381.62112915000034 L1004.2450299999999,381.1442328000003 L1011.22106,380.65390275000004 L1018.1970899999999,382.1047423500004 L1025.17312,384.6235611000002 L1032.14915,385.12732485000015 L1039.12518,385.8796120500001 L1046.10121,382.47416910000015 L1053.07724,381.8495020500002 L1060.0532699999999,378.99484080000025 L1067.0293,379.94191665000017 L1074.00533,381.7957672500004 L1080.98136,384.1466647500001 L1087.95739,385.51018530000033 L1094.93342,386.63861610000026 L1101.9094499999999,380.6606196 L1108.88548,380.1568558500003 L1115.86151,382.4271511500003 L1122.83754,381.0233295000003 L1129.81357,383.30034165000006 L1136.7895999999998,383.6630515500003 L1143.7656299999999,381.4733584500002 L1150.74166,381.42634050000015 L1157.71769,383.6429010000004 L1164.69372,384.0996468000003 L1171.66975,384.50937465000015 L1178.6457799999998,383.2331731500003 L1185.6218099999999,384.0056109000002 L1192.59784,381.9032368500002 L1199.57387,382.63537350000024 L1206.5499,380.1568558500003 L1213.52593,380.1232716000002 L1220.5019599999998,381.98383905000014 L1227.4779899999999,378.7396005000003 L1234.45402,378.9679734000001 L1241.43005,375.73045170000023 L1248.40608,377.4096642000002 L1255.38211,377.8328257500002 L1262.3581399999998,376.6036422000002 L1269.3341699999999,374.6423220000004 L1276.3102,376.2879502500002 L1283.28623,376.2946671000002 L1290.26226,374.7900927000003 L1297.23829,374.03780550000033 L1304.2143199999998,372.5265142500002 L1311.1903499999999,374.0176549500004 L1318.16638,371.8145281500001 L1325.14241,371.8951303500003 L1332.11844,372.6541344000002 L1339.09447,374.5953040500001 L1346.0704999999998,375.3946092000001 L1353.0465299999998,376.19391435000034 L1360.0225599999999,376.5969253500002 L1366.99859,377.7455067000003 L1373.97462,377.4096642000002 L1380.95065,378.3701737500003 L1387.9266799999998,381.0501969000002 L1394.9027099999998,377.8328257500002 L1401.8787399999999,376.74469605000013 L1408.85477,374.8438275000003 L1415.8308,371.7607933500003 L1422.80683,367.9792068000004 L1429.7828599999998,367.3814071500003 L1436.7588899999998,367.73740020000014 L1443.7349199999999,369.9002259000001 L1450.71095,369.86664165000025 L1457.68698,372.33172560000025 L1464.66301,373.07729595 L1471.63904,373.8228663000002 L1471.63904,417.59657775000005 L1464.66301,417.07266345000016 L1457.68698,416.52859860000035 L1450.71095,414.27173700000026 L1443.7349199999999,414.27845385000023 L1436.7588899999998,412.3440010500003 L1429.7828599999998,412.02830910000034 L1422.80683,412.85448165000025 L1415.8308,416.8442905500003 L1408.85477,419.49072945000034 L1401.8787399999999,421.2505441500002 L1394.9027099999998,422.4259929000002 L1387.9266799999998,425.81800215 L1380.95065,422.8894555500003 L1373.97462,421.8147595500002 L1366.99859,422.3453907000003 L1360.0225599999999,421.43189910000024 L1353.0465299999998,421.2236767500003 L1346.0704999999998,420.6661782000001 L1339.09447,420.0952459500004 L1332.11844,418.3958829000003 L1325.14241,417.7443484500002 L1318.16638,417.8988360000001 L1311.1903499999999,420.3639199500001 L1304.2143199999998,418.89964665000025 L1297.23829,420.5788591500002 L1290.26226,421.49235075000024 L1283.28623,423.23873175000017 L1276.3102,423.3932193000003 L1269.3341699999999,422.0229819000001 L1262.3581399999998,424.16565705000016 L1255.38211,425.49559335000004 L1248.40608,425.2873710000001 L1241.43005,423.89698305000024 L1234.45402,427.3225765500001 L1227.4779899999999,426.9262824000002 L1220.5019599999998,430.46606235000013 L1213.52593,428.4174231000002 L1206.5499,428.5920612000002 L1199.57387,431.3661202500002 L1192.59784,430.6608510000003 L1185.6218099999999,433.04533275000017 L1178.6457799999998,432.38036460000035 L1171.66975,433.95210750000024 L1164.69372,433.7774694000002 L1157.71769,433.63641555000027 L1150.74166,431.7422638500002 L1143.7656299999999,431.9504862000001 L1136.7895999999998,434.46930495000015 L1129.81357,434.22749835000036 L1122.83754,432.28632870000024 L1115.86151,433.8647884500001 L1108.88548,431.84973345000003 L1101.9094499999999,432.52813530000026 L1094.93342,438.85540800000035 L1087.95739,436.60526325000023 L1080.98136,435.4835493000003 L1074.00533,433.42819320000035 L1067.0293,431.75569755000015 L1060.0532699999999,431.05042830000025 L1053.07724,434.2476489000003 L1046.10121,434.89918335000016 L1039.12518,438.6740530500001 L1032.14915,437.8142962500003 L1025.17312,437.67995925000014 L1018.1970899999999,435.54400095000005 L1011.22106,434.28795000000014 L1004.2450299999999,435.1208394 L997.2689999999999,435.98731305000024 L990.29297,435.8395423500001 L983.3169399999999,431.0034103500002 L976.3409099999999,428.7801330000002 L969.36488,430.6205499 L962.3888499999999,432.50798475000033 L955.4128199999999,431.7422638500002 L948.43679,428.2898029500002 L941.4607599999999,426.7449274500002 L934.4847299999999,429.7742268000002 L927.5087,431.0907294000001 L920.5326699999999,430.3115748 L913.5566399999999,428.9614879500002 L906.58061,428.1285985500001 L899.6045799999999,429.0353733000002 L892.6285499999999,428.80700040000033 L885.65252,430.3317253500004 L878.67649,434.2140646500002 L871.7004599999999,437.37098415000014 L864.72443,438.85540800000035 L857.7484,436.8672204000002 L850.7723699999999,436.6186969500002 L843.79634,434.6036419500001 L836.82031,433.7103009000002 L829.8442799999999,430.3585927500003 L822.86825,429.9152806500001 L815.89222,430.95639240000037 L808.9161899999999,430.0764850500002 L801.94016,433.7304514500004 L794.96413,434.66409360000034 L787.9880999999999,435.1208394 L781.01207,436.26942075000034 L774.03604,439.46664135000015 L767.0600099999999,435.0738214500002 L760.0839799999999,442.1668150500002 L753.10795,439.86965235000025 L746.1319199999999,435.42309765000005 L739.1558899999999,430.58696565000014 L732.17986,423.46710465000024 L725.2038299999999,411.40364205000037 L718.2277999999999,419.8400056500002 L711.25177,416.2129066500004 L704.2757399999999,421.73415735000026 L697.2997099999999,419.35639245000016 L690.32368,415.01059050000026 L683.3476499999999,416.5353154500003 L676.3716199999999,417.6234451500002 L669.39559,418.77202650000027 L662.4195599999999,419.94747525000025 L655.4435299999999,419.51759685000025 L648.4675,420.7333467000003 L641.4914699999999,427.0136014500001 L634.5154399999999,424.41418050000016 L627.53941,429.0958249500002 L620.5633799999999,425.84486955000034 L613.5873499999999,427.0539025500002 L606.61132,427.57110000000034 L599.6352899999999,433.5558133500001 L592.65926,434.6439430500002 L585.68323,444.6050316000003 L578.7072,444.9811752000003 L571.73117,440.97793260000026 L564.75514,435.61116945000026 L557.77911,429.9287143500003 L550.80308,434.07301080000025 L543.82705,433.5020785500003 L536.85102,433.1662360500002 L529.87499,433.8715053000001 L522.89896,436.7396002500002 L515.92293,434.2073478000002 L508.9469,434.8387317000004 L501.97087,434.50960605000023 L494.99483999999995,439.8427849500001 L488.01881000000003,440.44730145000017 L481.04278,444.9072898500003 L474.06674999999996,445.7401792500002 L467.09072000000003,448.01719140000023 L460.11469,456.5677414500003 L453.13865999999996,463.42564530000027 L446.16263000000004,468.1610245500001 L439.1866,466.84452195000017 L432.21056999999996,465.6959406000003 L425.2345399999999,464.50705815000015 L418.25851,456.2587663500003 L411.28247999999996,453.8877183000002 L404.3064499999999,447.9634566000002 L397.33042,447.2783379000002 L390.35438999999997,445.5588243000002 L383.37835999999993,456.1915978500001 L376.40233,458.3947246500004 L369.42629999999997,460.06722030000014 L362.45026999999993,453.47127360000036 L355.47424,470.02159200000006 L348.49821,467.74457985000026 L341.52218,466.26687285000025 L334.54615,462.7606771500002 L327.57012,462.74724345000027 L320.59409,472.83595215000037 L313.61806,468.5909029500001 L306.64203,451.9666992000002 L299.666,433.61626500000034 L292.68997,434.57005770000023 L285.71394,445.39761990000034 L278.73791,446.68053825000015 L271.76188,446.35141260000023 L264.78585,453.6996465000002 L257.80981999999995,464.14434825000035 L250.83379,472.3254715500002 L243.85775999999998,472.74191625000026 L236.88172999999998,439.8898029000002 L229.9057,425.75083365000023 L222.92967,407.01753900000017 L215.95364,404.25019680000014 L208.97760999999997,416.24649090000025 L202.00158,385.68482340000037 L195.02555,393.38905035000016 L188.04951999999997,365.64845985000034 L181.07349,370.8338680500001 L174.09745999999998,399.9245454000004 L167.12142999999998,441.1122696000002 L160.1454,421.43189910000024 L153.16937,456.52744035 L146.19333999999998,457.01105355000027 L139.21731,431.60121000000026 L132.24128,428.9950722000003 L125.26525,412.2566820000002 L118.28922,463.8488068500003 L111.31318999999999,405.0629356500003 L104.33716,441.1861549500004 L97.36112999999999,451.93311495000034 "/>
                    </g>
                </g>
                <g id="PlotDataItem_1">
                    <g fill="none" stroke="black" stroke-width="1" fill-rule="evenodd" stroke-linecap="square" stroke-linejoin="bevel" id="PlotCurveItem_1">
                        <g fill="none" stroke="#ff0000" stroke-opacity="1" stroke-width="3" stroke-linecap="square" stroke-linejoin="bevel" font-family="Segoe UI" font-size="12" font-weight="400" font-style="normal">
                            <polyline fill="none" vector-effect="non-scaling-stroke" points="90.3851,588.7755000000002 97.36112999999999,252.93300000000022"/>
                            <polyline fill="none" vector-effect="non-scaling-stroke" points="97.36112999999999,252.93300000000022 104.33716,297.7142389500002"/>
                            <polyline fill="none" vector-effect="non-scaling-stroke" points="104.33716,297.7142389500002 111.31318999999999,269.72512500000016"/>
                            <polyline fill="none" vector-effect="non-scaling-stroke" points="111.31318999999999,269.72512500000016 118.28922,346.9689000000001"/>
                            <polyline fill="none" vector-effect="non-scaling-stroke" points="118.28922,346.9689000000001 125.26525,308.90451105000034"/>
                            <polyline fill="none" vector-effect="non-scaling-stroke" points="125.26525,308.90451105000034 132.24128,339.2915404500002"/>
                            <polyline fill="none" vector-effect="non-scaling-stroke" points="132.24128,339.2915404500002 139.21731,345.2896875000001"/>
                            <polyline fill="none" vector-effect="non-scaling-stroke" points="139.21731,345.2896875000001 146.19333999999998,379.8075796500002"/>
                            <polyline fill="none" vector-effect="non-scaling-stroke" points="146.19333999999998,379.8075796500002 153.16937,380.5531500000002"/>
                            <polyline fill="none" vector-effect="non-scaling-stroke" points="153.16937,380.5531500000002 160.1454,350.6295832500002"/>
                            <polyline fill="none" vector-effect="non-scaling-stroke" points="160.1454,350.6295832500002 167.12142999999998,364.8827389500002"/>
                            <polyline fill="none" vector-effect="non-scaling-stroke" points="167.12142999999998,364.8827389500002 174.09745999999998,325.26675765000005"/>
                            <polyline fill="none" vector-effect="non-scaling-stroke" points="174.09745999999998,325.26675765000005 181.07349,300.91145955000025"/>
                            <polyline fill="none" vector-effect="non-scaling-stroke" points="181.07349,300.91145955000025 188.04951999999997,293.23410000000035"/>
                            <polyline fill="none" vector-effect="non-scaling-stroke" points="188.04951999999997,293.23410000000035 195.02555,324.2995312500002"/>
                            <polyline fill="none" vector-effect="non-scaling-stroke" points="195.02555,324.2995312500002 202.00158,312.20248440000023"/>
                            <polyline fill="none" vector-effect="non-scaling-stroke" points="202.00158,312.20248440000023 208.97760999999997,346.2233296500001"/>
                            <polyline fill="none" vector-effect="non-scaling-stroke" points="208.97760999999997,346.2233296500001 215.95364,337.7802492000003"/>
                            <polyline fill="none" vector-effect="non-scaling-stroke" points="215.95364,337.7802492000003 222.92967,340.2520500000003"/>
                            <polyline fill="none" vector-effect="non-scaling-stroke" points="222.92967,340.2520500000003 229.9057,361.6788015000002"/>
                            <polyline fill="none" vector-effect="non-scaling-stroke" points="229.9057,361.6788015000002 236.88172999999998,368.9531500500002"/>
                            <polyline fill="none" vector-effect="non-scaling-stroke" points="236.88172999999998,368.9531500500002 243.85775999999998,404.7942616500002"/>
                            <polyline fill="none" vector-effect="non-scaling-stroke" points="243.85775999999998,404.7942616500002 250.83379,406.86305145000006"/>
                            <polyline fill="none" vector-effect="non-scaling-stroke" points="250.83379,406.86305145000006 257.80981999999995,400.70370000000025"/>
                            <polyline fill="none" vector-effect="non-scaling-stroke" points="257.80981999999995,400.70370000000025 264.78585,392.43525765000004"/>
                            <polyline fill="none" vector-effect="non-scaling-stroke" points="264.78585,392.43525765000004 271.76188,387.2700000000002"/>
                            <polyline fill="none" vector-effect="non-scaling-stroke" points="271.76188,387.2700000000002 278.73791,389.66791545"/>
                            <polyline fill="none" vector-effect="non-scaling-stroke" points="278.73791,389.66791545 285.71394,389.5873132500003"/>
                            <polyline fill="none" vector-effect="non-scaling-stroke" points="285.71394,389.5873132500003 292.68997,380.5531500000002"/>
                            <polyline fill="none" vector-effect="non-scaling-stroke" points="292.68997,380.5531500000002 299.666,378.6052635000001"/>
                            <polyline fill="none" vector-effect="non-scaling-stroke" points="299.666,378.6052635000001 306.64203,395.6660625000002"/>
                            <polyline fill="none" vector-effect="non-scaling-stroke" points="306.64203,395.6660625000002 313.61806,413.7276721500002"/>
                            <polyline fill="none" vector-effect="non-scaling-stroke" points="313.61806,413.7276721500002 320.59409,418.8794961000003"/>
                            <polyline fill="none" vector-effect="non-scaling-stroke" points="320.59409,418.8794961000003 327.57012,410.3020786500001"/>
                            <polyline fill="none" vector-effect="non-scaling-stroke" points="327.57012,410.3020786500001 334.54615,411.52454535000015"/>
                            <polyline fill="none" vector-effect="non-scaling-stroke" points="334.54615,411.52454535000015 341.52218,416.31365940000023"/>
                            <polyline fill="none" vector-effect="non-scaling-stroke" points="341.52218,416.31365940000023 348.49821,419.08771845000024"/>
                            <polyline fill="none" vector-effect="non-scaling-stroke" points="348.49821,419.08771845000024 355.47424,419.9944932000003"/>
                            <polyline fill="none" vector-effect="non-scaling-stroke" points="355.47424,419.9944932000003 362.45026999999993,404.06212500000015"/>
                            <polyline fill="none" vector-effect="non-scaling-stroke" points="362.45026999999993,404.06212500000015 369.42629999999997,411.8469541500001"/>
                            <polyline fill="none" vector-effect="non-scaling-stroke" points="369.42629999999997,411.8469541500001 376.40233,411.25587135000023"/>
                            <polyline fill="none" vector-effect="non-scaling-stroke" points="376.40233,411.25587135000023 383.37835999999993,409.1400636000003"/>
                            <polyline fill="none" vector-effect="non-scaling-stroke" points="383.37835999999993,409.1400636000003 390.35438999999997,399.4812333000002"/>
                            <polyline fill="none" vector-effect="non-scaling-stroke" points="390.35438999999997,399.4812333000002 397.33042,402.1948407000002"/>
                            <polyline fill="none" vector-effect="non-scaling-stroke" points="397.33042,402.1948407000002 404.3064499999999,403.32998835000035"/>
                            <polyline fill="none" vector-effect="non-scaling-stroke" points="404.3064499999999,403.32998835000035 411.28247999999996,410.13415740000005"/>
                            <polyline fill="none" vector-effect="non-scaling-stroke" points="411.28247999999996,410.13415740000005 418.25851,412.4581875000001"/>
                            <polyline fill="none" vector-effect="non-scaling-stroke" points="418.25851,412.4581875000001 425.2345399999999,421.5393687000003"/>
                            <polyline fill="none" vector-effect="non-scaling-stroke" points="425.2345399999999,421.5393687000003 432.21056999999996,423.5409900000002"/>
                            <polyline fill="none" vector-effect="non-scaling-stroke" points="432.21056999999996,423.5409900000002 439.1866,425.46200910000016"/>
                            <polyline fill="none" vector-effect="non-scaling-stroke" points="439.1866,425.46200910000016 446.16263000000004,427.31585970000015"/>
                            <polyline fill="none" vector-effect="non-scaling-stroke" points="446.16263000000004,427.31585970000015 453.13865999999996,422.75511855000036"/>
                            <polyline fill="none" vector-effect="non-scaling-stroke" points="453.13865999999996,422.75511855000036 460.11469,415.87706415"/>
                            <polyline fill="none" vector-effect="non-scaling-stroke" points="460.11469,415.87706415 467.09072000000003,408.0317833500003"/>
                            <polyline fill="none" vector-effect="non-scaling-stroke" points="467.09072000000003,408.0317833500003 474.06674999999996,406.4600404500002"/>
                            <polyline fill="none" vector-effect="non-scaling-stroke" points="474.06674999999996,406.4600404500002 481.04278,406.1241979500003"/>
                            <polyline fill="none" vector-effect="non-scaling-stroke" points="481.04278,406.1241979500003 488.01881000000003,402.3224608500002"/>
                            <polyline fill="none" vector-effect="non-scaling-stroke" points="488.01881000000003,402.3224608500002 494.99483999999995,402.06722055000023"/>
                            <polyline fill="none" vector-effect="non-scaling-stroke" points="494.99483999999995,402.06722055000023 501.97087,397.34527500000013"/>
                            <polyline fill="none" vector-effect="non-scaling-stroke" points="501.97087,397.34527500000013 508.9469,398.2789171500003"/>
                            <polyline fill="none" vector-effect="non-scaling-stroke" points="508.9469,398.2789171500003 515.92293,398.1042790500003"/>
                            <polyline fill="none" vector-effect="non-scaling-stroke" points="515.92293,398.1042790500003 522.89896,401.12686155000006"/>
                            <polyline fill="none" vector-effect="non-scaling-stroke" points="522.89896,401.12686155000006 529.87499,398.81626515000016"/>
                            <polyline fill="none" vector-effect="non-scaling-stroke" points="529.87499,398.81626515000016 536.85102,398.63491020000015"/>
                            <polyline fill="none" vector-effect="non-scaling-stroke" points="536.85102,398.63491020000015 543.82705,399.4812333000002"/>
                            <polyline fill="none" vector-effect="non-scaling-stroke" points="543.82705,399.4812333000002 550.80308,400.30068900000015"/>
                            <polyline fill="none" vector-effect="non-scaling-stroke" points="550.80308,400.30068900000015 557.77911,396.16310940000017"/>
                            <polyline fill="none" vector-effect="non-scaling-stroke" points="557.77911,396.16310940000017 564.75514,401.87243190000027"/>
                            <polyline fill="none" vector-effect="non-scaling-stroke" points="564.75514,401.87243190000027 571.73117,407.4205500000003"/>
                            <polyline fill="none" vector-effect="non-scaling-stroke" points="571.73117,407.4205500000003 578.7072,411.86710470000025"/>
                            <polyline fill="none" vector-effect="non-scaling-stroke" points="578.7072,411.86710470000025 585.68323,410.5909032000002"/>
                            <polyline fill="none" vector-effect="non-scaling-stroke" points="585.68323,410.5909032000002 592.65926,401.07312675000026"/>
                            <polyline fill="none" vector-effect="non-scaling-stroke" points="592.65926,401.07312675000026 599.6352899999999,399.9782802000002"/>
                            <polyline fill="none" vector-effect="non-scaling-stroke" points="599.6352899999999,399.9782802000002 606.61132,394.43687895000016"/>
                            <polyline fill="none" vector-effect="non-scaling-stroke" points="606.61132,394.43687895000016 613.5873499999999,394.3428430500003"/>
                            <polyline fill="none" vector-effect="non-scaling-stroke" points="613.5873499999999,394.3428430500003 620.5633799999999,393.3756166500002"/>
                            <polyline fill="none" vector-effect="non-scaling-stroke" points="620.5633799999999,393.3756166500002 627.53941,396.7407585000001"/>
                            <polyline fill="none" vector-effect="non-scaling-stroke" points="627.53941,396.7407585000001 634.5154399999999,392.3680891500003"/>
                            <polyline fill="none" vector-effect="non-scaling-stroke" points="634.5154399999999,392.3680891500003 641.4914699999999,394.8264562500003"/>
                            <polyline fill="none" vector-effect="non-scaling-stroke" points="641.4914699999999,394.8264562500003 648.4675,388.92906195000023"/>
                            <polyline fill="none" vector-effect="non-scaling-stroke" points="648.4675,388.92906195000023 655.4435299999999,388.08945570000014"/>
                            <polyline fill="none" vector-effect="non-scaling-stroke" points="655.4435299999999,388.08945570000014 662.4195599999999,388.88876085000015"/>
                            <polyline fill="none" vector-effect="non-scaling-stroke" points="662.4195599999999,388.88876085000015 669.39559,388.0693051500002"/>
                            <polyline fill="none" vector-effect="non-scaling-stroke" points="669.39559,388.0693051500002 676.3716199999999,387.2700000000002"/>
                            <polyline fill="none" vector-effect="non-scaling-stroke" points="676.3716199999999,387.2700000000002 683.3476499999999,386.4908454000001"/>
                            <polyline fill="none" vector-effect="non-scaling-stroke" points="683.3476499999999,386.4908454000001 690.32368,384.9526867500001"/>
                            <polyline fill="none" vector-effect="non-scaling-stroke" points="690.32368,384.9526867500001 697.2997099999999,389.5604458500002"/>
                            <polyline fill="none" vector-effect="non-scaling-stroke" points="697.2997099999999,389.5604458500002 704.2757399999999,391.7971569000001"/>
                            <polyline fill="none" vector-effect="non-scaling-stroke" points="704.2757399999999,391.7971569000001 711.25177,386.52442965000023"/>
                            <polyline fill="none" vector-effect="non-scaling-stroke" points="711.25177,386.52442965000023 718.2277999999999,388.7477070000002"/>
                            <polyline fill="none" vector-effect="non-scaling-stroke" points="718.2277999999999,388.7477070000002 725.2038299999999,378.5112276000002"/>
                            <polyline fill="none" vector-effect="non-scaling-stroke" points="725.2038299999999,378.5112276000002 732.17986,390.15824550000025"/>
                            <polyline fill="none" vector-effect="non-scaling-stroke" points="732.17986,390.15824550000025 739.1558899999999,397.2713896500002"/>
                            <polyline fill="none" vector-effect="non-scaling-stroke" points="739.1558899999999,397.2713896500002 746.1319199999999,402.12095535000026"/>
                            <polyline fill="none" vector-effect="non-scaling-stroke" points="746.1319199999999,402.12095535000026 753.10795,406.86305145000006"/>
                            <polyline fill="none" vector-effect="non-scaling-stroke" points="753.10795,406.86305145000006 760.0839799999999,408.7370526000002"/>
                            <polyline fill="none" vector-effect="non-scaling-stroke" points="760.0839799999999,408.7370526000002 767.0600099999999,401.66420955000035"/>
                            <polyline fill="none" vector-effect="non-scaling-stroke" points="767.0600099999999,401.66420955000035 774.03604,406.2652518000002"/>
                            <polyline fill="none" vector-effect="non-scaling-stroke" points="774.03604,406.2652518000002 781.01207,403.3904400000001"/>
                            <polyline fill="none" vector-effect="non-scaling-stroke" points="781.01207,403.3904400000001 787.9880999999999,402.5642674500002"/>
                            <polyline fill="none" vector-effect="non-scaling-stroke" points="787.9880999999999,402.5642674500002 794.96413,402.4164967500003"/>
                            <polyline fill="none" vector-effect="non-scaling-stroke" points="794.96413,402.4164967500003 801.94016,401.61719160000007"/>
                            <polyline fill="none" vector-effect="non-scaling-stroke" points="801.94016,401.61719160000007 808.9161899999999,398.2520497500002"/>
                            <polyline fill="none" vector-effect="non-scaling-stroke" points="808.9161899999999,398.2520497500002 815.89222,399.4274985000002"/>
                            <polyline fill="none" vector-effect="non-scaling-stroke" points="815.89222,399.4274985000002 822.86825,398.6752113000002"/>
                            <polyline fill="none" vector-effect="non-scaling-stroke" points="822.86825,398.6752113000002 829.8442799999999,399.19912560000034"/>
                            <polyline fill="none" vector-effect="non-scaling-stroke" points="829.8442799999999,399.19912560000034 836.82031,402.8195077500002"/>
                            <polyline fill="none" vector-effect="non-scaling-stroke" points="836.82031,402.8195077500002 843.79634,403.90763745000004"/>
                            <polyline fill="none" vector-effect="non-scaling-stroke" points="843.79634,403.90763745000004 850.7723699999999,406.19808330000023"/>
                            <polyline fill="none" vector-effect="non-scaling-stroke" points="850.7723699999999,406.19808330000023 857.7484,406.6346785500002"/>
                            <polyline fill="none" vector-effect="non-scaling-stroke" points="857.7484,406.6346785500002 864.72443,408.8579559000002"/>
                            <polyline fill="none" vector-effect="non-scaling-stroke" points="864.72443,408.8579559000002 871.7004599999999,407.48100165000005"/>
                            <polyline fill="none" vector-effect="non-scaling-stroke" points="871.7004599999999,407.48100165000005 878.67649,404.3576664000002"/>
                            <polyline fill="none" vector-effect="non-scaling-stroke" points="878.67649,404.3576664000002 885.65252,400.70370000000025"/>
                            <polyline fill="none" vector-effect="non-scaling-stroke" points="885.65252,400.70370000000025 892.6285499999999,399.4274985000002"/>
                            <polyline fill="none" vector-effect="non-scaling-stroke" points="892.6285499999999,399.4274985000002 899.6045799999999,399.89767800000004"/>
                            <polyline fill="none" vector-effect="non-scaling-stroke" points="899.6045799999999,399.89767800000004 906.58061,399.22599300000024"/>
                            <polyline fill="none" vector-effect="non-scaling-stroke" points="906.58061,399.22599300000024 913.5566399999999,400.2536710500003"/>
                            <polyline fill="none" vector-effect="non-scaling-stroke" points="913.5566399999999,400.2536710500003 920.5326699999999,401.8254139500002"/>
                            <polyline fill="none" vector-effect="non-scaling-stroke" points="920.5326699999999,401.8254139500002 927.5087,402.8127909000002"/>
                            <polyline fill="none" vector-effect="non-scaling-stroke" points="927.5087,402.8127909000002 934.4847299999999,401.5836073500002"/>
                            <polyline fill="none" vector-effect="non-scaling-stroke" points="934.4847299999999,401.5836073500002 941.4607599999999,398.73566295000023"/>
                            <polyline fill="none" vector-effect="non-scaling-stroke" points="941.4607599999999,398.73566295000023 948.43679,400.26710475000027"/>
                            <polyline fill="none" vector-effect="non-scaling-stroke" points="948.43679,400.26710475000027 955.4128199999999,403.9277880000002"/>
                            <polyline fill="none" vector-effect="non-scaling-stroke" points="955.4128199999999,403.9277880000002 962.3888499999999,404.86143015000016"/>
                            <polyline fill="none" vector-effect="non-scaling-stroke" points="962.3888499999999,404.86143015000016 969.36488,403.13519970000016"/>
                            <polyline fill="none" vector-effect="non-scaling-stroke" points="969.36488,403.13519970000016 976.3409099999999,401.43583665000006"/>
                            <polyline fill="none" vector-effect="non-scaling-stroke" points="976.3409099999999,401.43583665000006 983.3169399999999,403.4105905500003"/>
                            <polyline fill="none" vector-effect="non-scaling-stroke" points="983.3169399999999,403.4105905500003 990.29297,408.4549449000003"/>
                            <polyline fill="none" vector-effect="non-scaling-stroke" points="990.29297,408.4549449000003 997.2689999999999,408.8042211000002"/>
                            <polyline fill="none" vector-effect="non-scaling-stroke" points="997.2689999999999,408.8042211000002 1004.2450299999999,408.1325361000004"/>
                            <polyline fill="none" vector-effect="non-scaling-stroke" points="1004.2450299999999,408.1325361000004 1011.22106,407.4742848000001"/>
                            <polyline fill="none" vector-effect="non-scaling-stroke" points="1011.22106,407.4742848000001 1018.1970899999999,408.82437165000033"/>
                            <polyline fill="none" vector-effect="non-scaling-stroke" points="1018.1970899999999,408.82437165000033 1025.17312,411.15511860000015"/>
                            <polyline fill="none" vector-effect="non-scaling-stroke" points="1025.17312,411.15511860000015 1032.14915,411.4708105500001"/>
                            <polyline fill="none" vector-effect="non-scaling-stroke" points="1032.14915,411.4708105500001 1039.12518,412.2768325500001"/>
                            <polyline fill="none" vector-effect="non-scaling-stroke" points="1039.12518,412.2768325500001 1046.10121,408.68331780000017"/>
                            <polyline fill="none" vector-effect="non-scaling-stroke" points="1046.10121,408.68331780000017 1053.07724,408.0519339000002"/>
                            <polyline fill="none" vector-effect="non-scaling-stroke" points="1053.07724,408.0519339000002 1060.0532699999999,405.02263455"/>
                            <polyline fill="none" vector-effect="non-scaling-stroke" points="1060.0532699999999,405.02263455 1067.0293,405.84880710000016"/>
                            <polyline fill="none" vector-effect="non-scaling-stroke" points="1067.0293,405.84880710000016 1074.00533,407.60862180000026"/>
                            <polyline fill="none" vector-effect="non-scaling-stroke" points="1074.00533,407.60862180000026 1080.98136,409.8184654500001"/>
                            <polyline fill="none" vector-effect="non-scaling-stroke" points="1080.98136,409.8184654500001 1087.95739,411.06108270000004"/>
                            <polyline fill="none" vector-effect="non-scaling-stroke" points="1087.95739,411.06108270000004 1094.93342,412.7470120500002"/>
                            <polyline fill="none" vector-effect="non-scaling-stroke" points="1094.93342,412.7470120500002 1101.9094499999999,406.59437745000037"/>
                            <polyline fill="none" vector-effect="non-scaling-stroke" points="1101.9094499999999,406.59437745000037 1108.88548,406.00329465000027"/>
                            <polyline fill="none" vector-effect="non-scaling-stroke" points="1108.88548,406.00329465000027 1115.86151,408.14596980000033"/>
                            <polyline fill="none" vector-effect="non-scaling-stroke" points="1115.86151,408.14596980000033 1122.83754,406.65482910000014"/>
                            <polyline fill="none" vector-effect="non-scaling-stroke" points="1122.83754,406.65482910000014 1129.81357,408.7639200000003"/>
                            <polyline fill="none" vector-effect="non-scaling-stroke" points="1129.81357,408.7639200000003 1136.7895999999998,409.06617825000035"/>
                            <polyline fill="none" vector-effect="non-scaling-stroke" points="1136.7895999999998,409.06617825000035 1143.7656299999999,406.71528075000015"/>
                            <polyline fill="none" vector-effect="non-scaling-stroke" points="1143.7656299999999,406.71528075000015 1150.74166,406.5876606000004"/>
                            <polyline fill="none" vector-effect="non-scaling-stroke" points="1150.74166,406.5876606000004 1157.71769,408.6430167000003"/>
                            <polyline fill="none" vector-effect="non-scaling-stroke" points="1157.71769,408.6430167000003 1164.69372,408.93855810000036"/>
                            <polyline fill="none" vector-effect="non-scaling-stroke" points="1164.69372,408.93855810000036 1171.66975,409.2273826500002"/>
                            <polyline fill="none" vector-effect="non-scaling-stroke" points="1171.66975,409.2273826500002 1178.6457799999998,407.80341045000023"/>
                            <polyline fill="none" vector-effect="non-scaling-stroke" points="1178.6457799999998,407.80341045000023 1185.6218099999999,408.5288302500003"/>
                            <polyline fill="none" vector-effect="non-scaling-stroke" points="1185.6218099999999,408.5288302500003 1192.59784,406.2786855000004"/>
                            <polyline fill="none" vector-effect="non-scaling-stroke" points="1192.59784,406.2786855000004 1199.57387,406.99738845000024"/>
                            <polyline fill="none" vector-effect="non-scaling-stroke" points="1199.57387,406.99738845000024 1206.5499,404.3778169500001"/>
                            <polyline fill="none" vector-effect="non-scaling-stroke" points="1206.5499,404.3778169500001 1213.52593,404.2703473500003"/>
                            <polyline fill="none" vector-effect="non-scaling-stroke" points="1213.52593,404.2703473500003 1220.5019599999998,406.22495070000014"/>
                            <polyline fill="none" vector-effect="non-scaling-stroke" points="1220.5019599999998,406.22495070000014 1227.4779899999999,402.83294145000013"/>
                            <polyline fill="none" vector-effect="non-scaling-stroke" points="1227.4779899999999,402.83294145000013 1234.45402,403.1486334000001"/>
                            <polyline fill="none" vector-effect="non-scaling-stroke" points="1234.45402,403.1486334000001 1241.43005,399.81035895000014"/>
                            <polyline fill="none" vector-effect="non-scaling-stroke" points="1241.43005,399.81035895000014 1248.40608,401.34851760000015"/>
                            <polyline fill="none" vector-effect="non-scaling-stroke" points="1248.40608,401.34851760000015 1255.38211,401.66420955000035"/>
                            <polyline fill="none" vector-effect="non-scaling-stroke" points="1255.38211,401.66420955000035 1262.3581399999998,400.3880080500003"/>
                            <polyline fill="none" vector-effect="non-scaling-stroke" points="1262.3581399999998,400.3880080500003 1269.3341699999999,398.3326519500001"/>
                            <polyline fill="none" vector-effect="non-scaling-stroke" points="1269.3341699999999,398.3326519500001 1276.3102,399.83722635000026"/>
                            <polyline fill="none" vector-effect="non-scaling-stroke" points="1276.3102,399.83722635000026 1283.28623,399.7633410000003"/>
                            <polyline fill="none" vector-effect="non-scaling-stroke" points="1283.28623,399.7633410000003 1290.26226,398.13786330000016"/>
                            <polyline fill="none" vector-effect="non-scaling-stroke" points="1290.26226,398.13786330000016 1297.23829,397.3049739000003"/>
                            <polyline fill="none" vector-effect="non-scaling-stroke" points="1297.23829,397.3049739000003 1304.2143199999998,395.71308045"/>
                            <polyline fill="none" vector-effect="non-scaling-stroke" points="1304.2143199999998,395.71308045 1311.1903499999999,397.19078745000024"/>
                            <polyline fill="none" vector-effect="non-scaling-stroke" points="1311.1903499999999,397.19078745000024 1318.16638,394.8600405000002"/>
                            <polyline fill="none" vector-effect="non-scaling-stroke" points="1318.16638,394.8600405000002 1325.14241,394.81973940000034"/>
                            <polyline fill="none" vector-effect="non-scaling-stroke" points="1325.14241,394.81973940000034 1332.11844,395.52500865000025"/>
                            <polyline fill="none" vector-effect="non-scaling-stroke" points="1332.11844,395.52500865000025 1339.09447,397.34527500000013"/>
                            <polyline fill="none" vector-effect="non-scaling-stroke" points="1339.09447,397.34527500000013 1346.0704999999998,398.0303937000001"/>
                            <polyline fill="none" vector-effect="non-scaling-stroke" points="1346.0704999999998,398.0303937000001 1353.0465299999998,398.70879555000033"/>
                            <polyline fill="none" vector-effect="non-scaling-stroke" points="1353.0465299999998,398.70879555000033 1360.0225599999999,399.01777065000033"/>
                            <polyline fill="none" vector-effect="non-scaling-stroke" points="1360.0225599999999,399.01777065000033 1366.99859,400.0454487000002"/>
                            <polyline fill="none" vector-effect="non-scaling-stroke" points="1366.99859,400.0454487000002 1373.97462,399.6155703000004"/>
                            <polyline fill="none" vector-effect="non-scaling-stroke" points="1373.97462,399.6155703000004 1380.95065,400.62981465000007"/>
                            <polyline fill="none" vector-effect="non-scaling-stroke" points="1380.95065,400.62981465000007 1387.9266799999998,403.4307411000002"/>
                            <polyline fill="none" vector-effect="non-scaling-stroke" points="1387.9266799999998,403.4307411000002 1394.9027099999998,400.1327677500003"/>
                            <polyline fill="none" vector-effect="non-scaling-stroke" points="1394.9027099999998,400.1327677500003 1401.8787399999999,398.9976201000004"/>
                            <polyline fill="none" vector-effect="non-scaling-stroke" points="1401.8787399999999,398.9976201000004 1408.85477,397.1706369000003"/>
                            <polyline fill="none" vector-effect="non-scaling-stroke" points="1408.85477,397.1706369000003 1415.8308,394.3025419500002"/>
                            <polyline fill="none" vector-effect="non-scaling-stroke" points="1415.8308,394.3025419500002 1422.80683,390.4202026500002"/>
                            <polyline fill="none" vector-effect="non-scaling-stroke" points="1422.80683,390.4202026500002 1429.7828599999998,389.7082165500003"/>
                            <polyline fill="none" vector-effect="non-scaling-stroke" points="1429.7828599999998,389.7082165500003 1436.7588899999998,390.03734220000024"/>
                            <polyline fill="none" vector-effect="non-scaling-stroke" points="1436.7588899999998,390.03734220000024 1443.7349199999999,392.09269830000017"/>
                            <polyline fill="none" vector-effect="non-scaling-stroke" points="1443.7349199999999,392.09269830000017 1450.71095,392.06583090000026"/>
                            <polyline fill="none" vector-effect="non-scaling-stroke" points="1450.71095,392.06583090000026 1457.68698,394.4301621000002"/>
                            <polyline fill="none" vector-effect="non-scaling-stroke" points="1457.68698,394.4301621000002 1464.66301,395.0749797000001"/>
                            <polyline fill="none" vector-effect="non-scaling-stroke" points="1464.66301,395.0749797000001 1471.63904,395.70636360000003"/>
                            <polyline fill="none" vector-effect="non-scaling-stroke" points="1471.63904,395.70636360000003 1478.6150699999998,395.6660625000002"/>
                        </g>
                    </g>
                </g>
                <g id="PlotDataItem_2">
                    <g fill="none" stroke="black" stroke-width="1" fill-rule="evenodd" stroke-linecap="square" stroke-linejoin="bevel" id="PlotCurveItem_2">
                        <g fill="none" stroke="#ffa500" stroke-opacity="1" stroke-dasharray="4,2" stroke-dashoffset="0" stroke-width="1" stroke-linecap="square" stroke-linejoin="bevel" font-family="Segoe UI" font-size="12" font-weight="400" font-style="normal">
                            <path vector-effect="non-scaling-stroke" fill-rule="evenodd" d="M97.36112999999999,53.932885050000095 L104.33716,154.24232295000024 L111.31318999999999,134.38731435000022 L118.28922,230.0889931500003 L125.26525,205.55905695000024 L132.24128,249.58800870000005 L139.21731,258.9781650000002 L146.19333999999998,302.60410575000014 L153.16937,304.57885965000014 L160.1454,279.8339842500002 L167.12142999999998,288.6532083000002 L174.09745999999998,250.60896990000015 L181.07349,230.98233420000042 L188.04951999999997,220.81974015000014 L195.02555,255.21001215000024 L202.00158,238.71342855000012 L208.97760999999997,276.20016840000017 L215.95364,271.30358475 L222.92967,273.4865610000004 L229.9057,297.6134862000001 L236.88172999999998,298.00978035000026 L243.85775999999998,336.8398902000001 L250.83379,341.39391450000016 L257.80981999999995,337.2630517500004 L264.78585,331.1708688000001 L271.76188,328.1885874000002 L278.73791,332.6552926500003 L285.71394,333.7702897500001 L292.68997,326.53624230000014 L299.666,323.5875451500001 L306.64203,339.36542580000014 L313.61806,358.8711582000003 L320.59409,364.9230400500003 L327.57012,357.8501970000002 L334.54615,360.2884135500001 L341.52218,366.3671628000002 L348.49821,370.4308570500002 L355.47424,369.9606775500001 L362.45026999999993,354.65297640000017 L369.42629999999997,363.6199711500003 L376.40233,364.1237349000003 L383.37835999999993,362.0818125000003 L390.35438999999997,353.40364230000023 L397.33042,357.1180603500004 L404.3064499999999,358.70323695000025 L411.28247999999996,366.38059650000014 L418.25851,368.65760865000016 L425.2345399999999,378.5783961000002 L432.21056999999996,381.3860394000003 L439.1866,384.0862131000001 L446.16263000000004,386.4639780000002 L453.13865999999996,382.0845918000002 L460.11469,375.19310370000017 L467.09072000000003,368.04637530000014 L474.06674999999996,367.1799016500004 L481.04278,367.34110605000023 L488.01881000000003,364.2043371000002 L494.99483999999995,364.29165615000034 L501.97087,360.18094395 L508.9469,361.72581945000024 L515.92293,362.00121030000014 L522.89896,365.52083970000035 L529.87499,363.761025 L536.85102,364.10358435000035 L543.82705,365.4603880500001 L550.80308,366.52836720000005 L557.77911,362.3907876000003 L564.75514,368.13369435000027 L571.73117,373.8631674000003 L578.7072,378.75303420000023 L585.68323,376.5767748000003 L592.65926,367.5023104500003 L599.6352899999999,366.40074705000006 L606.61132,361.3026579000002 L613.5873499999999,361.6250667000004 L620.5633799999999,360.9063637500003 L627.53941,364.3924089000004 L634.5154399999999,360.32871465000017 L641.4914699999999,362.63931105000006 L648.4675,357.1247772000004 L655.4435299999999,356.66131455000027 L662.4195599999999,357.83004645000005 L669.39559,357.36658380000017 L676.3716199999999,356.91655485000024 L683.3476499999999,356.44637535000015 L690.32368,354.90149985000016 L697.2997099999999,359.7577824000002 L704.2757399999999,361.8601564500002 L711.25177,356.8359526500003 L718.2277999999999,357.64869150000027 L725.2038299999999,345.61881315000005 L732.17986,356.84938635000026 L739.1558899999999,363.9625305000002 L746.1319199999999,368.81881305000024 L753.10795,373.8497337000001 L760.0839799999999,375.3072901500002 L767.0600099999999,368.25459765000005 L774.03604,373.07057910000003 L781.01207,370.51145925000014 L787.9880999999999,370.01441235000016 L794.96413,370.16889990000027 L801.94016,369.50393175 L808.9161899999999,366.4208976000002 L815.89222,367.89188775000025 L822.86825,367.4351419500001 L829.8442799999999,368.0329416000002 L836.82031,371.9219977500002 L843.79634,373.2116329500002 L850.7723699999999,375.7774696500003 L857.7484,376.40213670000026 L864.72443,378.86722065000026 L871.7004599999999,377.5843023000002 L878.67649,374.5012681500002 L885.65252,371.07567465000034 L892.6285499999999,370.05471345000024 L899.6045799999999,370.76669955000034 L906.58061,370.3166706000002 L913.5566399999999,371.5458541500002 L920.5326699999999,373.3392531000002 L927.5087,374.5348524000003 L934.4847299999999,373.3929879000002 L941.4607599999999,370.7331153 L948.43679,372.2511234000001 L955.4128199999999,376.1133121500002 L962.3888499999999,377.2148755500002 L969.36488,375.6565663500003 L976.3409099999999,374.0982571500001 L983.3169399999999,375.81777075000014 L990.29297,381.0703474500001 L997.2689999999999,381.62112915000034 L1004.2450299999999,381.1442328000003 L1011.22106,380.65390275000004 L1018.1970899999999,382.1047423500004 L1025.17312,384.6235611000002 L1032.14915,385.12732485000015 L1039.12518,385.8796120500001 L1046.10121,382.47416910000015 L1053.07724,381.8495020500002 L1060.0532699999999,378.99484080000025 L1067.0293,379.94191665000017 L1074.00533,381.7957672500004 L1080.98136,384.1466647500001 L1087.95739,385.51018530000033 L1094.93342,386.63861610000026 L1101.9094499999999,380.6606196 L1108.88548,380.1568558500003 L1115.86151,382.4271511500003 L1122.83754,381.0233295000003 L1129.81357,383.30034165000006 L1136.7895999999998,383.6630515500003 L1143.7656299999999,381.4733584500002 L1150.74166,381.42634050000015 L1157.71769,383.6429010000004 L1164.69372,384.0996468000003 L1171.66975,384.50937465000015 L1178.6457799999998,383.2331731500003 L1185.6218099999999,384.0056109000002 L1192.59784,381.9032368500002 L1199.57387,382.63537350000024 L1206.5499,380.1568558500003 L1213.52593,380.1232716000002 L1220.5019599999998,381.98383905000014 L1227.4779899999999,378.7396005000003 L1234.45402,378.9679734000001 L1241.43005,375.73045170000023 L1248.40608,377.4096642000002 L1255.38211,377.8328257500002 L1262.3581399999998,376.6036422000002 L1269.3341699999999,374.6423220000004 L1276.3102,376.2879502500002 L1283.28623,376.2946671000002 L1290.26226,374.7900927000003 L1297.23829,374.03780550000033 L1304.2143199999998,372.5265142500002 L1311.1903499999999,374.0176549500004 L1318.16638,371.8145281500001 L1325.14241,371.8951303500003 L1332.11844,372.6541344000002 L1339.09447,374.5953040500001 L1346.0704999999998,375.3946092000001 L1353.0465299999998,376.19391435000034 L1360.0225599999999,376.5969253500002 L1366.99859,377.7455067000003 L1373.97462,377.4096642000002 L1380.95065,378.3701737500003 L1387.9266799999998,381.0501969000002 L1394.9027099999998,377.8328257500002 L1401.8787399999999,376.74469605000013 L1408.85477,374.8438275000003 L1415.8308,371.7607933500003 L1422.80683,367.9792068000004 L1429.7828599999998,367.3814071500003 L1436.7588899999998,367.73740020000014 L1443.7349199999999,369.9002259000001 L1450.71095,369.86664165000025 L1457.68698,372.33172560000025 L1464.66301,373.07729595 L1471.63904,373.8228663000002 "/>
                        </g>
                    </g>
                </g>
                <g id="PlotDataItem_3">
                    <g fill="none" stroke="black" stroke-width="1" fill-rule="evenodd" stroke-linecap="square" stroke-linejoin="bevel" id="PlotCurveItem_3">
                        <g fill="none" stroke="#ffa500" stroke-opacity="1" stroke-dasharray="4,2" stroke-dashoffset="0" stroke-width="1" stroke-linecap="square" stroke-linejoin="bevel" font-family="Segoe UI" font-size="12" font-weight="400" font-style="normal">
                            <path vector-effect="non-scaling-stroke" fill-rule="evenodd" d="M97.36112999999999,451.93311495000034 L104.33716,441.1861549500004 L111.31318999999999,405.0629356500003 L118.28922,463.8488068500003 L125.26525,412.2566820000002 L132.24128,428.9950722000003 L139.21731,431.60121000000026 L146.19333999999998,457.01105355000027 L153.16937,456.52744035 L160.1454,421.43189910000024 L167.12142999999998,441.1122696000002 L174.09745999999998,399.9245454000004 L181.07349,370.8338680500001 L188.04951999999997,365.64845985000034 L195.02555,393.38905035000016 L202.00158,385.68482340000037 L208.97760999999997,416.24649090000025 L215.95364,404.25019680000014 L222.92967,407.01753900000017 L229.9057,425.75083365000023 L236.88172999999998,439.8898029000002 L243.85775999999998,472.74191625000026 L250.83379,472.3254715500002 L257.80981999999995,464.14434825000035 L264.78585,453.6996465000002 L271.76188,446.35141260000023 L278.73791,446.68053825000015 L285.71394,445.39761990000034 L292.68997,434.57005770000023 L299.666,433.61626500000034 L306.64203,451.9666992000002 L313.61806,468.5909029500001 L320.59409,472.83595215000037 L327.57012,462.74724345000027 L334.54615,462.7606771500002 L341.52218,466.26687285000025 L348.49821,467.74457985000026 L355.47424,470.02159200000006 L362.45026999999993,453.47127360000036 L369.42629999999997,460.06722030000014 L376.40233,458.3947246500004 L383.37835999999993,456.1915978500001 L390.35438999999997,445.5588243000002 L397.33042,447.2783379000002 L404.3064499999999,447.9634566000002 L411.28247999999996,453.8877183000002 L418.25851,456.2587663500003 L425.2345399999999,464.50705815000015 L432.21056999999996,465.6959406000003 L439.1866,466.84452195000017 L446.16263000000004,468.1610245500001 L453.13865999999996,463.42564530000027 L460.11469,456.5677414500003 L467.09072000000003,448.01719140000023 L474.06674999999996,445.7401792500002 L481.04278,444.9072898500003 L488.01881000000003,440.44730145000017 L494.99483999999995,439.8427849500001 L501.97087,434.50960605000023 L508.9469,434.8387317000004 L515.92293,434.2073478000002 L522.89896,436.7396002500002 L529.87499,433.8715053000001 L536.85102,433.1662360500002 L543.82705,433.5020785500003 L550.80308,434.07301080000025 L557.77911,429.9287143500003 L564.75514,435.61116945000026 L571.73117,440.97793260000026 L578.7072,444.9811752000003 L585.68323,444.6050316000003 L592.65926,434.6439430500002 L599.6352899999999,433.5558133500001 L606.61132,427.57110000000034 L613.5873499999999,427.0539025500002 L620.5633799999999,425.84486955000034 L627.53941,429.0958249500002 L634.5154399999999,424.41418050000016 L641.4914699999999,427.0136014500001 L648.4675,420.7333467000003 L655.4435299999999,419.51759685000025 L662.4195599999999,419.94747525000025 L669.39559,418.77202650000027 L676.3716199999999,417.6234451500002 L683.3476499999999,416.5353154500003 L690.32368,415.01059050000026 L697.2997099999999,419.35639245000016 L704.2757399999999,421.73415735000026 L711.25177,416.2129066500004 L718.2277999999999,419.8400056500002 L725.2038299999999,411.40364205000037 L732.17986,423.46710465000024 L739.1558899999999,430.58696565000014 L746.1319199999999,435.42309765000005 L753.10795,439.86965235000025 L760.0839799999999,442.1668150500002 L767.0600099999999,435.0738214500002 L774.03604,439.46664135000015 L781.01207,436.26942075000034 L787.9880999999999,435.1208394 L794.96413,434.66409360000034 L801.94016,433.7304514500004 L808.9161899999999,430.0764850500002 L815.89222,430.95639240000037 L822.86825,429.9152806500001 L829.8442799999999,430.3585927500003 L836.82031,433.7103009000002 L843.79634,434.6036419500001 L850.7723699999999,436.6186969500002 L857.7484,436.8672204000002 L864.72443,438.85540800000035 L871.7004599999999,437.37098415000014 L878.67649,434.2140646500002 L885.65252,430.3317253500004 L892.6285499999999,428.80700040000033 L899.6045799999999,429.0353733000002 L906.58061,428.1285985500001 L913.5566399999999,428.9614879500002 L920.5326699999999,430.3115748 L927.5087,431.0907294000001 L934.4847299999999,429.7742268000002 L941.4607599999999,426.7449274500002 L948.43679,428.2898029500002 L955.4128199999999,431.7422638500002 L962.3888499999999,432.50798475000033 L969.36488,430.6205499 L976.3409099999999,428.7801330000002 L983.3169399999999,431.0034103500002 L990.29297,435.8395423500001 L997.2689999999999,435.98731305000024 L1004.2450299999999,435.1208394 L1011.22106,434.28795000000014 L1018.1970899999999,435.54400095000005 L1025.17312,437.67995925000014 L1032.14915,437.8142962500003 L1039.12518,438.6740530500001 L1046.10121,434.89918335000016 L1053.07724,434.2476489000003 L1060.0532699999999,431.05042830000025 L1067.0293,431.75569755000015 L1074.00533,433.42819320000035 L1080.98136,435.4835493000003 L1087.95739,436.60526325000023 L1094.93342,438.85540800000035 L1101.9094499999999,432.52813530000026 L1108.88548,431.84973345000003 L1115.86151,433.8647884500001 L1122.83754,432.28632870000024 L1129.81357,434.22749835000036 L1136.7895999999998,434.46930495000015 L1143.7656299999999,431.9504862000001 L1150.74166,431.7422638500002 L1157.71769,433.63641555000027 L1164.69372,433.7774694000002 L1171.66975,433.95210750000024 L1178.6457799999998,432.38036460000035 L1185.6218099999999,433.04533275000017 L1192.59784,430.6608510000003 L1199.57387,431.3661202500002 L1206.5499,428.5920612000002 L1213.52593,428.4174231000002 L1220.5019599999998,430.46606235000013 L1227.4779899999999,426.9262824000002 L1234.45402,427.3225765500001 L1241.43005,423.89698305000024 L1248.40608,425.2873710000001 L1255.38211,425.49559335000004 L1262.3581399999998,424.16565705000016 L1269.3341699999999,422.0229819000001 L1276.3102,423.3932193000003 L1283.28623,423.23873175000017 L1290.26226,421.49235075000024 L1297.23829,420.5788591500002 L1304.2143199999998,418.89964665000025 L1311.1903499999999,420.3639199500001 L1318.16638,417.8988360000001 L1325.14241,417.7443484500002 L1332.11844,418.3958829000003 L1339.09447,420.0952459500004 L1346.0704999999998,420.6661782000001 L1353.0465299999998,421.2236767500003 L1360.0225599999999,421.43189910000024 L1366.99859,422.3453907000003 L1373.97462,421.8147595500002 L1380.95065,422.8894555500003 L1387.9266799999998,425.81800215 L1394.9027099999998,422.4259929000002 L1401.8787399999999,421.2505441500002 L1408.85477,419.49072945000034 L1415.8308,416.8442905500003 L1422.80683,412.85448165000025 L1429.7828599999998,412.02830910000034 L1436.7588899999998,412.3440010500003 L1443.7349199999999,414.27845385000023 L1450.71095,414.27173700000026 L1457.68698,416.52859860000035 L1464.66301,417.07266345000016 L1471.63904,417.59657775000005 "/>
                        </g>
                    </g>
                </g>
            </g>
            <g fill="none" stroke="black" stroke-width="1" fill-rule="evenodd" stroke-linecap="square" stroke-linejoin="bevel" id="LegendItem_1">
                <g fill="none" stroke="none" transform="matrix(1,0,0,1,82,61)" font-family="Segoe UI" font-size="12" font-weight="400" font-style="normal">
                    <rect vector-effect="non-scaling-stroke" x="0" y="0" width="241.188" height="108"/>
                </g>
                <g fill="none" stroke="black" stroke-width="1" fill-rule="evenodd" stroke-linecap="square" stroke-linejoin="bevel" id="ItemSample_1">
                    <g fill="none" stroke="#ff0000" stroke-opacity="1" stroke-width="3" stroke-linecap="square" stroke-linejoin="bevel" font-family="Segoe UI" font-size="12" font-weight="400" font-style="normal">
                        <polyline fill="none" vector-effect="non-scaling-stroke" points="91.0,81.0 111.0,81.0"/>
                    </g>
                </g>
                <g fill="none" stroke="black" stroke-width="1" fill-rule="evenodd" stroke-linecap="square" stroke-linejoin="bevel" id="LabelItem_1">
                    <g fill="none" stroke="black" stroke-width="1" fill-rule="evenodd" stroke-linecap="square" stroke-linejoin="bevel" id="QGraphicsTextItem_1">
                        


                        


                        


                        <g fill="none" stroke="#232323" stroke-opacity="1" stroke-width="1" stroke-linecap="square" stroke-linejoin="bevel" transform="matrix(1,0,0,1,116,70)" font-family="Segoe UI" font-size="12" font-weight="400" font-style="normal">
                            <text fill="#232323" fill-opacity="1" stroke="none" xml:space="preserve" x="4" y="21.2656" font-family="&quot;Segoe UI&quot;" font-size="16" font-weight="400" font-style="normal">  </text>
                            <text fill="#232323" fill-opacity="1" stroke="none" xml:space="preserve" x="166.547" y="21.2656" font-family="&quot;Segoe UI&quot;" font-size="16" font-weight="400" font-style="normal"></text>
                            <text fill="#232323" fill-opacity="1" stroke="none" xml:space="preserve" x="171.813" y="21.2656" font-family="&quot;Segoe UI&quot;" font-size="16" font-weight="400" font-style="normal">n</text>
                            <text fill="#232323" fill-opacity="1" stroke="none" xml:space="preserve" x="180.859" y="21.2656" font-family="&quot;Segoe UI&quot;" font-size="16" font-weight="400" font-style="normal"></text>
                        </g>
                        


                        

                    </g>
                </g>
                <g fill="none" stroke="black" stroke-width="1" fill-rule="evenodd" stroke-linecap="square" stroke-linejoin="bevel" id="ItemSample_2">
                    <g fill="none" stroke="#ffa500" stroke-opacity="1" stroke-dasharray="4,2" stroke-dashoffset="0" stroke-width="1" stroke-linecap="square" stroke-linejoin="bevel" font-family="Segoe UI" font-size="12" font-weight="400" font-style="normal">
                        <polyline fill="none" vector-effect="non-scaling-stroke" points="91.0,111.0 111.0,111.0"/>
                    </g>
                </g>
                <g fill="none" stroke="black" stroke-width="1" fill-rule="evenodd" stroke-linecap="square" stroke-linejoin="bevel" id="LabelItem_2">
                    <g fill="none" stroke="black" stroke-width="1" fill-rule="evenodd" stroke-linecap="square" stroke-linejoin="bevel" id="QGraphicsTextItem_2">
                        


                        


                        


                        <g fill="none" stroke="#232323" stroke-opacity="1" stroke-width="1" stroke-linecap="square" stroke-linejoin="bevel" transform="matrix(1,0,0,1,116,100)" font-family="Segoe UI" font-size="12" font-weight="400" font-style="normal">
                            <text fill="#232323" fill-opacity="1" stroke="none" xml:space="preserve" x="4" y="21.2656" font-family="&quot;Segoe UI&quot;" font-size="16" font-weight="400" font-style="normal">  </text>
                            <text fill="#232323" fill-opacity="1" stroke="none" xml:space="preserve" x="132.297" y="21.2656" font-family="&quot;Segoe UI&quot;" font-size="16" font-weight="400" font-style="normal"></text>
                            <text fill="#232323" fill-opacity="1" stroke="none" xml:space="preserve" x="137.563" y="21.2656" font-family="&quot;Segoe UI&quot;" font-size="16" font-weight="400" font-style="normal">n</text>
                            <text fill="#232323" fill-opacity="1" stroke="none" xml:space="preserve" x="146.609" y="21.2656" font-family="&quot;Segoe UI&quot;" font-size="16" font-weight="400" font-style="normal"></text>
                            <text fill="#232323" fill-opacity="1" stroke="none" xml:space="preserve" x="151.875" y="21.2656" font-family="&quot;Segoe UI&quot;" font-size="16" font-weight="400" font-style="normal"> + </text>
                            <text fill="#232323" fill-opacity="1" stroke="none" xml:space="preserve" x="171.563" y="21.2656" font-family="&quot;Segoe UI&quot;" font-size="16" font-weight="400" font-style="normal"></text>
                            <text fill="#232323" fill-opacity="1" stroke="none" xml:space="preserve" x="180.75" y="23.5469" font-family="&quot;Segoe UI&quot;" font-size="10.6667" font-weight="400" font-style="normal"></text>
                            <text fill="#232323" fill-opacity="1" stroke="none" xml:space="preserve" x="184.359" y="23.5469" font-family="&quot;Segoe UI&quot;" font-size="10.6667" font-weight="400" font-style="normal">n</text>
                            <text fill="#232323" fill-opacity="1" stroke="none" xml:space="preserve" x="190.578" y="23.5469" font-family="&quot;Segoe UI&quot;" font-size="10.6667" font-weight="400" font-style="normal"></text>
                        </g>
                        


                        

                    </g>
                </g>
                <g fill="none" stroke="black" stroke-width="1" fill-rule="evenodd" stroke-linecap="square" stroke-linejoin="bevel" id="ItemSample_3">
                    <g fill="none" stroke="#ffa500" stroke-opacity="1" stroke-dasharray="4,2" stroke-dashoffset="0" stroke-width="1" stroke-linecap="square" stroke-linejoin="bevel" font-family="Segoe UI" font-size="12" font-weight="400" font-style="normal">
                        <polyline fill="none" vector-effect="non-scaling-stroke" points="91.0,141.0 111.0,141.0"/>
                    </g>
                </g>
                <g fill="none" stroke="black" stroke-width="1" fill-rule="evenodd" stroke-linecap="square" stroke-linejoin="bevel" id="LabelItem_3">
                    <g fill="none" stroke="black" stroke-width="1" fill-rule="evenodd" stroke-linecap="square" stroke-linejoin="bevel" id="QGraphicsTextItem_3">
                        


                        


                        


                        <g fill="none" stroke="#232323" stroke-opacity="1" stroke-width="1" stroke-linecap="square" stroke-linejoin="bevel" transform="matrix(1,0,0,1,116,130)" font-family="Segoe UI" font-size="12" font-weight="400" font-style="normal">
                            <text fill="#232323" fill-opacity="1" stroke="none" xml:space="preserve" x="4" y="21.2656" font-family="&quot;Segoe UI&quot;" font-size="16" font-weight="400" font-style="normal">  </text>
                            <text fill="#232323" fill-opacity="1" stroke="none" xml:space="preserve" x="130.609" y="21.2656" font-family="&quot;Segoe UI&quot;" font-size="16" font-weight="400" font-style="normal"></text>
                            <text fill="#232323" fill-opacity="1" stroke="none" xml:space="preserve" x="135.875" y="21.2656" font-family="&quot;Segoe UI&quot;" font-size="16" font-weight="400" font-style="normal">n</text>
                            <text fill="#232323" fill-opacity="1" stroke="none" xml:space="preserve" x="144.922" y="21.2656" font-family="&quot;Segoe UI&quot;" font-size="16" font-weight="400" font-style="normal"></text>
                            <text fill="#232323" fill-opacity="1" stroke="none" xml:space="preserve" x="150.188" y="21.2656" font-family="&quot;Segoe UI&quot;" font-size="16" font-weight="400" font-style="normal"> - </text>
                            <text fill="#232323" fill-opacity="1" stroke="none" xml:space="preserve" x="165.328" y="21.2656" font-family="&quot;Segoe UI&quot;" font-size="16" font-weight="400" font-style="normal"></text>
                            <text fill="#232323" fill-opacity="1" stroke="none" xml:space="preserve" x="174.516" y="23.5469" font-family="&quot;Segoe UI&quot;" font-size="10.6667" font-weight="400" font-style="normal"></text>
                            <text fill="#232323" fill-opacity="1" stroke="none" xml:space="preserve" x="178.125" y="23.5469" font-family="&quot;Segoe UI&quot;" font-size="10.6667" font-weight="400" font-style="normal">n</text>
                            <text fill="#232323" fill-opacity="1" stroke="none" xml:space="preserve" x="184.344" y="23.5469" font-family="&quot;Segoe UI&quot;" font-size="10.6667" font-weight="400" font-style="normal"></text>
                        </g>
                        


                        

                    </g>
                </g>
            </g>
            <g fill="none" stroke="black" stroke-width="1" fill-rule="evenodd" stroke-linecap="square" stroke-linejoin="bevel" id="QGraphicsRectItem_1">
                <g fill="none" stroke="none" transform="matrix(1,0,0,1,52,31)" font-family="Segoe UI" font-size="12" font-weight="400" font-style="normal">
                    <rect vector-effect="non-scaling-stroke" x="0" y="0" width="1465" height="582"/>
                </g>
            </g>
        </g>
    </g>
    <g fill="none" stroke="black" stroke-width="1" fill-rule="evenodd" stroke-linecap="square" stroke-linejoin="bevel" id="LabelItem_4">
        <g fill="none" stroke="black" stroke-width="1" fill-rule="evenodd" stroke-linecap="square" stroke-linejoin="bevel" id="QGraphicsTextItem_4">
            


            


            


            


            

        </g>
    </g>
    <g fill="none" stroke="black" stroke-width="1" fill-rule="evenodd" stroke-linecap="square" stroke-linejoin="bevel" id="AxisItem_1">
        <g fill="none" stroke="#969696" stroke-opacity="1" stroke-width="1" stroke-linecap="square" stroke-linejoin="bevel" font-family="Segoe UI" font-size="12" font-weight="400" font-style="normal">
            <polyline fill="none" vector-effect="non-scaling-stroke" points="51.0,614.0 1518.0,614.0"/>
        </g>
        <g fill="none" stroke="#969696" stroke-opacity="0.298039" stroke-width="1" stroke-linecap="square" stroke-linejoin="bevel" font-family="Segoe UI" font-size="12" font-weight="400" font-style="normal">
            <polyline fill="none" vector-effect="non-scaling-stroke" points="90.3851,31.0 90.3851,613.0"/>
            <polyline fill="none" vector-effect="non-scaling-stroke" points="229.906,31.0 229.906,613.0"/>
            <polyline fill="none" vector-effect="non-scaling-stroke" points="369.426,31.0 369.426,613.0"/>
            <polyline fill="none" vector-effect="non-scaling-stroke" points="508.947,31.0 508.947,613.0"/>
            <polyline fill="none" vector-effect="non-scaling-stroke" points="648.467,31.0 648.467,613.0"/>
            <polyline fill="none" vector-effect="non-scaling-stroke" points="787.988,31.0 787.988,613.0"/>
            <polyline fill="none" vector-effect="non-scaling-stroke" points="927.509,31.0 927.509,613.0"/>
            <polyline fill="none" vector-effect="non-scaling-stroke" points="1067.03,31.0 1067.03,613.0"/>
            <polyline fill="none" vector-effect="non-scaling-stroke" points="1206.55,31.0 1206.55,613.0"/>
            <polyline fill="none" vector-effect="non-scaling-stroke" points="1346.07,31.0 1346.07,613.0"/>
            <polyline fill="none" vector-effect="non-scaling-stroke" points="1485.59,31.0 1485.59,613.0"/>
        </g>
        <g fill="none" stroke="#969696" stroke-opacity="0.14902" stroke-width="1" stroke-linecap="square" stroke-linejoin="bevel" font-family="Segoe UI" font-size="12" font-weight="400" font-style="normal">
            <polyline fill="none" vector-effect="non-scaling-stroke" points="160.14499999999998,31.0 160.14499999999998,613.0"/>
            <polyline fill="none" vector-effect="non-scaling-stroke" points="299.666,31.0 299.666,613.0"/>
            <polyline fill="none" vector-effect="non-scaling-stroke" points="439.187,31.0 439.187,613.0"/>
            <polyline fill="none" vector-effect="non-scaling-stroke" points="578.707,31.0 578.707,613.0"/>
            <polyline fill="none" vector-effect="non-scaling-stroke" points="718.228,31.0 718.228,613.0"/>
            <polyline fill="none" vector-effect="non-scaling-stroke" points="857.748,31.0 857.748,613.0"/>
            <polyline fill="none" vector-effect="non-scaling-stroke" points="997.269,31.0 997.269,613.0"/>
            <polyline fill="none" vector-effect="non-scaling-stroke" points="1136.79,31.0 1136.79,613.0"/>
            <polyline fill="none" vector-effect="non-scaling-stroke" points="1276.31,31.0 1276.31,613.0"/>
            <polyline fill="none" vector-effect="non-scaling-stroke" points="1415.83,31.0 1415.83,613.0"/>
        </g>
        <g fill="none" stroke="#969696" stroke-opacity="0.0823529" stroke-width="1" stroke-linecap="square" stroke-linejoin="bevel" font-family="Segoe UI" font-size="12" font-weight="400" font-style="normal">
            <polyline fill="none" vector-effect="non-scaling-stroke" points="62.4809,31.0 62.4809,613.0"/>
            <polyline fill="none" vector-effect="non-scaling-stroke" points="76.43299999999999,31.0 76.43299999999999,613.0"/>
            <polyline fill="none" vector-effect="non-scaling-stroke" points="104.33709999999999,31.0 104.33709999999999,613.0"/>
            <polyline fill="none" vector-effect="non-scaling-stroke" points="118.2892,31.0 118.2892,613.0"/>
            <polyline fill="none" vector-effect="non-scaling-stroke" points="132.2412,31.0 132.2412,613.0"/>
            <polyline fill="none" vector-effect="non-scaling-stroke" points="146.1933,31.0 146.1933,613.0"/>
            <polyline fill="none" vector-effect="non-scaling-stroke" points="174.09699999999998,31.0 174.09699999999998,613.0"/>
            <polyline fill="none" vector-effect="non-scaling-stroke" points="188.049,31.0 188.049,613.0"/>
            <polyline fill="none" vector-effect="non-scaling-stroke" points="202.002,31.0 202.002,613.0"/>
            <polyline fill="none" vector-effect="non-scaling-stroke" points="215.954,31.0 215.954,613.0"/>
            <polyline fill="none" vector-effect="non-scaling-stroke" points="243.858,31.0 243.858,613.0"/>
            <polyline fill="none" vector-effect="non-scaling-stroke" points="257.81,31.0 257.81,613.0"/>
            <polyline fill="none" vector-effect="non-scaling-stroke" points="271.762,31.0 271.762,613.0"/>
            <polyline fill="none" vector-effect="non-scaling-stroke" points="285.714,31.0 285.714,613.0"/>
            <polyline fill="none" vector-effect="non-scaling-stroke" points="313.618,31.0 313.618,613.0"/>
            <polyline fill="none" vector-effect="non-scaling-stroke" points="327.57,31.0 327.57,613.0"/>
            <polyline fill="none" vector-effect="non-scaling-stroke" points="341.522,31.0 341.522,613.0"/>
            <polyline fill="none" vector-effect="non-scaling-stroke" points="355.474,31.0 355.474,613.0"/>
            <polyline fill="none" vector-effect="non-scaling-stroke" points="383.378,31.0 383.378,613.0"/>
            <polyline fill="none" vector-effect="non-scaling-stroke" points="397.33,31.0 397.33,613.0"/>
            <polyline fill="none" vector-effect="non-scaling-stroke" points="411.282,31.0 411.282,613.0"/>
            <polyline fill="none" vector-effect="non-scaling-stroke" points="425.234,31.0 425.234,613.0"/>
            <polyline fill="none" vector-effect="non-scaling-stroke" points="453.139,31.0 453.139,613.0"/>
            <polyline fill="none" vector-effect="non-scaling-stroke" points="467.091,31.0 467.091,613.0"/>
            <polyline fill="none" vector-effect="non-scaling-stroke" points="481.043,31.0 481.043,613.0"/>
            <polyline fill="none" vector-effect="non-scaling-stroke" points="494.995,31.0 494.995,613.0"/>
            <polyline fill="none" vector-effect="non-scaling-stroke" points="522.899,31.0 522.899,613.0"/>
            <polyline fill="none" vector-effect="non-scaling-stroke" points="536.851,31.0 536.851,613.0"/>
            <polyline fill="none" vector-effect="non-scaling-stroke" points="550.803,31.0 550.803,613.0"/>
            <polyline fill="none" vector-effect="non-scaling-stroke" points="564.755,31.0 564.755,613.0"/>
            <polyline fill="none" vector-effect="non-scaling-stroke" points="592.659,31.0 592.659,613.0"/>
            <polyline fill="none" vector-effect="non-scaling-stroke" points="606.611,31.0 606.611,613.0"/>
            <polyline fill="none" vector-effect="non-scaling-stroke" points="620.563,31.0 620.563,613.0"/>
            <polyline fill="none" vector-effect="non-scaling-stroke" points="634.515,31.0 634.515,613.0"/>
            <polyline fill="none" vector-effect="non-scaling-stroke" points="662.419,31.0 662.419,613.0"/>
            <polyline fill="none" vector-effect="non-scaling-stroke" points="676.372,31.0 676.372,613.0"/>
            <polyline fill="none" vector-effect="non-scaling-stroke" points="690.324,31.0 690.324,613.0"/>
            <polyline fill="none" vector-effect="non-scaling-stroke" points="704.276,31.0 704.276,613.0"/>
            <polyline fill="none" vector-effect="non-scaling-stroke" points="732.18,31.0 732.18,613.0"/>
            <polyline fill="none" vector-effect="non-scaling-stroke" points="746.132,31.0 746.132,613.0"/>
            <polyline fill="none" vector-effect="non-scaling-stroke" points="760.084,31.0 760.084,613.0"/>
            <polyline fill="none" vector-effect="non-scaling-stroke" points="774.036,31.0 774.036,613.0"/>
            <polyline fill="none" vector-effect="non-scaling-stroke" points="801.94,31.0 801.94,613.0"/>
            <polyline fill="none" vector-effect="non-scaling-stroke" points="815.892,31.0 815.892,613.0"/>
            <polyline fill="none" vector-effect="non-scaling-stroke" points="829.844,31.0 829.844,613.0"/>
            <polyline fill="none" vector-effect="non-scaling-stroke" points="843.796,31.0 843.796,613.0"/>
            <polyline fill="none" vector-effect="non-scaling-stroke" points="871.7,31.0 871.7,613.0"/>
            <polyline fill="none" vector-effect="non-scaling-stroke" points="885.652,31.0 885.652,613.0"/>
            <polyline fill="none" vector-effect="non-scaling-stroke" points="899.604,31.0 899.604,613.0"/>
            <polyline fill="none" vector-effect="non-scaling-stroke" points="913.557,31.0 913.557,613.0"/>
            <polyline fill="none" vector-effect="non-scaling-stroke" points="941.461,31.0 941.461,613.0"/>
            <polyline fill="none" vector-effect="non-scaling-stroke" points="955.413,31.0 955.413,613.0"/>
            <polyline fill="none" vector-effect="non-scaling-stroke" points="969.365,31.0 969.365,613.0"/>
            <polyline fill="none" vector-effect="non-scaling-stroke" points="983.317,31.0 983.317,613.0"/>
            <polyline fill="none" vector-effect="non-scaling-stroke" points="1011.221,31.0 1011.221,613.0"/>
            <polyline fill="none" vector-effect="non-scaling-stroke" points="1025.173,31.0 1025.173,613.0"/>
            <polyline fill="none" vector-effect="non-scaling-stroke" points="1039.125,31.0 1039.125,613.0"/>
            <polyline fill="none" vector-effect="non-scaling-stroke" points="1053.08,31.0 1053.08,613.0"/>
            <polyline fill="none" vector-effect="non-scaling-stroke" points="1080.98,31.0 1080.98,613.0"/>
            <polyline fill="none" vector-effect="non-scaling-stroke" points="1094.93,31.0 1094.93,613.0"/>
            <polyline fill="none" vector-effect="non-scaling-stroke" points="1108.89,31.0 1108.89,613.0"/>
            <polyline fill="none" vector-effect="non-scaling-stroke" points="1122.84,31.0 1122.84,613.0"/>
            <polyline fill="none" vector-effect="non-scaling-stroke" points="1150.74,31.0 1150.74,613.0"/>
            <polyline fill="none" vector-effect="non-scaling-stroke" points="1164.69,31.0 1164.69,613.0"/>
            <polyline fill="none" vector-effect="non-scaling-stroke" points="1178.65,31.0 1178.65,613.0"/>
            <polyline fill="none" vector-effect="non-scaling-stroke" points="1192.6,31.0 1192.6,613.0"/>
            <polyline fill="none" vector-effect="non-scaling-stroke" points="1220.5,31.0 1220.5,613.0"/>
            <polyline fill="none" vector-effect="non-scaling-stroke" points="1234.45,31.0 1234.45,613.0"/>
            <polyline fill="none" vector-effect="non-scaling-stroke" points="1248.41,31.0 1248.41,613.0"/>
            <polyline fill="none" vector-effect="non-scaling-stroke" points="1262.36,31.0 1262.36,613.0"/>
            <polyline fill="none" vector-effect="non-scaling-stroke" points="1290.26,31.0 1290.26,613.0"/>
            <polyline fill="none" vector-effect="non-scaling-stroke" points="1304.21,31.0 1304.21,613.0"/>
            <polyline fill="none" vector-effect="non-scaling-stroke" points="1318.17,31.0 1318.17,613.0"/>
            <polyline fill="none" vector-effect="non-scaling-stroke" points="1332.12,31.0 1332.12,613.0"/>
            <polyline fill="none" vector-effect="non-scaling-stroke" points="1360.02,31.0 1360.02,613.0"/>
            <polyline fill="none" vector-effect="non-scaling-stroke" points="1373.97,31.0 1373.97,613.0"/>
            <polyline fill="none" vector-effect="non-scaling-stroke" points="1387.93,31.0 1387.93,613.0"/>
            <polyline fill="none" vector-effect="non-scaling-stroke" points="1401.88,31.0 1401.88,613.0"/>
            <polyline fill="none" vector-effect="non-scaling-stroke" points="1429.78,31.0 1429.78,613.0"/>
            <polyline fill="none" vector-effect="non-scaling-stroke" points="1443.73,31.0 1443.73,613.0"/>
            <polyline fill="none" vector-effect="non-scaling-stroke" points="1457.69,31.0 1457.69,613.0"/>
            <polyline fill="none" vector-effect="non-scaling-stroke" points="1471.64,31.0 1471.64,613.0"/>
            <polyline fill="none" vector-effect="non-scaling-stroke" points="1499.54,31.0 1499.54,613.0"/>
            <polyline fill="none" vector-effect="non-scaling-stroke" points="1513.5,31.0 1513.5,613.0"/>
        </g>
        <g fill="none" stroke="#969696" stroke-opacity="1" stroke-width="1" stroke-linecap="square" stroke-linejoin="bevel" transform="matrix(1,0,0,1,52,613)" font-family="Segoe UI" font-size="12" font-weight="400" font-style="normal">
            <text fill="#969696" fill-opacity="1" stroke="none" xml:space="preserve" x="35.1406" y="14.9063" font-family="&quot;Segoe UI&quot;" font-size="12" font-weight="400" font-style="normal">0</text>
            <text fill="#969696" fill-opacity="1" stroke="none" xml:space="preserve" x="171.422" y="14.9063" font-family="&quot;Segoe UI&quot;" font-size="12" font-weight="400" font-style="normal">20</text>
            <text fill="#969696" fill-opacity="1" stroke="none" xml:space="preserve" x="310.953" y="14.9063" font-family="&quot;Segoe UI&quot;" font-size="12" font-weight="400" font-style="normal">40</text>
            <text fill="#969696" fill-opacity="1" stroke="none" xml:space="preserve" x="450.469" y="14.9063" font-family="&quot;Segoe UI&quot;" font-size="12" font-weight="400" font-style="normal">60</text>
            <text fill="#969696" fill-opacity="1" stroke="none" xml:space="preserve" x="589.984" y="14.9063" font-family="&quot;Segoe UI&quot;" font-size="12" font-weight="400" font-style="normal">80</text>
            <text fill="#969696" fill-opacity="1" stroke="none" xml:space="preserve" x="726.281" y="14.9063" font-family="&quot;Segoe UI&quot;" font-size="12" font-weight="400" font-style="normal">100</text>
            <text fill="#969696" fill-opacity="1" stroke="none" xml:space="preserve" x="865.797" y="14.9063" font-family="&quot;Segoe UI&quot;" font-size="12" font-weight="400" font-style="normal">120</text>
            <text fill="#969696" fill-opacity="1" stroke="none" xml:space="preserve" x="1005.31" y="14.9063" font-family="&quot;Segoe UI&quot;" font-size="12" font-weight="400" font-style="normal">140</text>
            <text fill="#969696" fill-opacity="1" stroke="none" xml:space="preserve" x="1144.84" y="14.9063" font-family="&quot;Segoe UI&quot;" font-size="12" font-weight="400" font-style="normal">160</text>
            <text fill="#969696" fill-opacity="1" stroke="none" xml:space="preserve" x="1284.36" y="14.9063" font-family="&quot;Segoe UI&quot;" font-size="12" font-weight="400" font-style="normal">180</text>
            <text fill="#969696" fill-opacity="1" stroke="none" xml:space="preserve" x="1423.88" y="14.9063" font-family="&quot;Segoe UI&quot;" font-size="12" font-weight="400" font-style="normal">200</text>
        </g>
        <g fill="none" stroke="black" stroke-width="1" fill-rule="evenodd" stroke-linecap="square" stroke-linejoin="bevel" id="QGraphicsTextItem_5">
            


            


            


            <g fill="none" stroke="#232323" stroke-opacity="1" stroke-width="1" stroke-linecap="square" stroke-linejoin="bevel" transform="matrix(1,0,0,1,721,632)" font-family="Segoe UI" font-size="12" font-weight="400" font-style="normal">
                <text fill="#232323" fill-opacity="1" stroke="none" xml:space="preserve" x="4" y="21.2656" font-family="&quot;Segoe UI&quot;" font-size="16" font-weight="400" font-style="normal">  </text>
            </g>
            


            

        </g>
    </g>
    <g fill="none" stroke="black" stroke-width="1" fill-rule="evenodd" stroke-linecap="square" stroke-linejoin="bevel" id="AxisItem_2">
        <g fill="none" stroke="#969696" stroke-opacity="1" stroke-width="1" stroke-linecap="square" stroke-linejoin="bevel" font-family="Segoe UI" font-size="12" font-weight="400" font-style="normal">
            <polyline fill="none" vector-effect="non-scaling-stroke" points="51.0,30.0 51.0,614.0"/>
        </g>
        <g fill="none" stroke="#969696" stroke-opacity="0.298039" stroke-width="1" stroke-linecap="square" stroke-linejoin="bevel" font-family="Segoe UI" font-size="12" font-weight="400" font-style="normal">
            <polyline fill="none" vector-effect="non-scaling-stroke" points="1517.5,521.604 52.0,521.604"/>
            <polyline fill="none" vector-effect="non-scaling-stroke" points="1517.5,387.267 52.0,387.267"/>
            <polyline fill="none" vector-effect="non-scaling-stroke" points="1517.5,252.93 52.0,252.93"/>
            <polyline fill="none" vector-effect="non-scaling-stroke" points="1517.5,118.5929 52.0,118.5929"/>
        </g>
        <g fill="none" stroke="#969696" stroke-opacity="0.14902" stroke-width="1" stroke-linecap="square" stroke-linejoin="bevel" font-family="Segoe UI" font-size="12" font-weight="400" font-style="normal">
            <polyline fill="none" vector-effect="non-scaling-stroke" points="1517.5,588.773 52.0,588.773"/>
            <polyline fill="none" vector-effect="non-scaling-stroke" points="1517.5,454.435 52.0,454.435"/>
            <polyline fill="none" vector-effect="non-scaling-stroke" points="1517.5,320.098 52.0,320.098"/>
            <polyline fill="none" vector-effect="non-scaling-stroke" points="1517.5,185.761 52.0,185.761"/>
            <polyline fill="none" vector-effect="non-scaling-stroke" points="1517.5,51.4244 52.0,51.4244"/>
        </g>
        <g fill="none" stroke="#969696" stroke-opacity="0.0823529" stroke-width="1" stroke-linecap="square" stroke-linejoin="bevel" font-family="Segoe UI" font-size="12" font-weight="400" font-style="normal">
            <polyline fill="none" vector-effect="non-scaling-stroke" points="1517.5,602.206 52.0,602.206"/>
            <polyline fill="none" vector-effect="non-scaling-stroke" points="1517.5,575.339 52.0,575.339"/>
            <polyline fill="none" vector-effect="non-scaling-stroke" points="1517.5,561.905 52.0,561.905"/>
            <polyline fill="none" vector-effect="non-scaling-stroke" points="1517.5,548.471 52.0,548.471"/>
            <polyline fill="none" vector-effect="non-scaling-stroke" points="1517.5,535.038 52.0,535.038"/>
            <polyline fill="none" vector-effect="non-scaling-stroke" points="1517.5,508.17 52.0,508.17"/>
            <polyline fill="none" vector-effect="non-scaling-stroke" points="1517.5,494.737 52.0,494.737"/>
            <polyline fill="none" vector-effect="non-scaling-stroke" points="1517.5,481.303 52.0,481.303"/>
            <polyline fill="none" vector-effect="non-scaling-stroke" points="1517.5,467.869 52.0,467.869"/>
            <polyline fill="none" vector-effect="non-scaling-stroke" points="1517.5,441.002 52.0,441.002"/>
            <polyline fill="none" vector-effect="non-scaling-stroke" points="1517.5,427.568 52.0,427.568"/>
            <polyline fill="none" vector-effect="non-scaling-stroke" points="1517.5,414.134 52.0,414.134"/>
            <polyline fill="none" vector-effect="non-scaling-stroke" points="1517.5,400.701 52.0,400.701"/>
            <polyline fill="none" vector-effect="non-scaling-stroke" points="1517.5,373.833 52.0,373.833"/>
            <polyline fill="none" vector-effect="non-scaling-stroke" points="1517.5,360.4 52.0,360.4"/>
            <polyline fill="none" vector-effect="non-scaling-stroke" points="1517.5,346.966 52.0,346.966"/>
            <polyline fill="none" vector-effect="non-scaling-stroke" points="1517.5,333.532 52.0,333.532"/>
            <polyline fill="none" vector-effect="non-scaling-stroke" points="1517.5,306.665 52.0,306.665"/>
            <polyline fill="none" vector-effect="non-scaling-stroke" points="1517.5,293.231 52.0,293.231"/>
            <polyline fill="none" vector-effect="non-scaling-stroke" points="1517.5,279.797 52.0,279.797"/>
            <polyline fill="none" vector-effect="non-scaling-stroke" points="1517.5,266.36400000000003 52.0,266.36400000000003"/>
            <polyline fill="none" vector-effect="non-scaling-stroke" points="1517.5,239.496 52.0,239.496"/>
            <polyline fill="none" vector-effect="non-scaling-stroke" points="1517.5,226.063 52.0,226.063"/>
            <polyline fill="none" vector-effect="non-scaling-stroke" points="1517.5,212.629 52.0,212.629"/>
            <polyline fill="none" vector-effect="non-scaling-stroke" points="1517.5,199.195 52.0,199.195"/>
            <polyline fill="none" vector-effect="non-scaling-stroke" points="1517.5,172.328 52.0,172.328"/>
            <polyline fill="none" vector-effect="non-scaling-stroke" points="1517.5,158.894 52.0,158.894"/>
            <polyline fill="none" vector-effect="non-scaling-stroke" points="1517.5,145.45999999999998 52.0,145.45999999999998"/>
            <polyline fill="none" vector-effect="non-scaling-stroke" points="1517.5,132.027 52.0,132.027"/>
            <polyline fill="none" vector-effect="non-scaling-stroke" points="1517.5,105.1592 52.0,105.1592"/>
            <polyline fill="none" vector-effect="non-scaling-stroke" points="1517.5,91.7255 52.0,91.7255"/>
            <polyline fill="none" vector-effect="non-scaling-stroke" points="1517.5,78.2918 52.0,78.2918"/>
            <polyline fill="none" vector-effect="non-scaling-stroke" points="1517.5,64.85810000000001 52.0,64.85810000000001"/>
            <polyline fill="none" vector-effect="non-scaling-stroke" points="1517.5,37.990719999999996 52.0,37.990719999999996"/>
        </g>
        <g fill="none" stroke="#969696" stroke-opacity="1" stroke-width="1" stroke-linecap="square" stroke-linejoin="bevel" transform="matrix(1,0,0,1,1,31)" font-family="Segoe UI" font-size="12" font-weight="400" font-style="normal">
            <text fill="#969696" fill-opacity="1" stroke="none" xml:space="preserve" x="33.0625" y="495.516" font-family="&quot;Segoe UI&quot;" font-size="12" font-weight="400" font-style="normal">18</text>
            <text fill="#969696" fill-opacity="1" stroke="none" xml:space="preserve" x="33.0625" y="361.188" font-family="&quot;Segoe UI&quot;" font-size="12" font-weight="400" font-style="normal">20</text>
            <text fill="#969696" fill-opacity="1" stroke="none" xml:space="preserve" x="33.0625" y="226.844" font-family="&quot;Segoe UI&quot;" font-size="12" font-weight="400" font-style="normal">22</text>
            <text fill="#969696" fill-opacity="1" stroke="none" xml:space="preserve" x="33.0625" y="92.5" font-family="&quot;Segoe UI&quot;" font-size="12" font-weight="400" font-style="normal">24</text>
            <text fill="#969696" fill-opacity="1" stroke="none" xml:space="preserve" x="33.0625" y="562.688" font-family="&quot;Segoe UI&quot;" font-size="12" font-weight="400" font-style="normal">17</text>
            <text fill="#969696" fill-opacity="1" stroke="none" xml:space="preserve" x="33.0625" y="428.344" font-family="&quot;Segoe UI&quot;" font-size="12" font-weight="400" font-style="normal">19</text>
            <text fill="#969696" fill-opacity="1" stroke="none" xml:space="preserve" x="33.0625" y="294.016" font-family="&quot;Segoe UI&quot;" font-size="12" font-weight="400" font-style="normal">21</text>
            <text fill="#969696" fill-opacity="1" stroke="none" xml:space="preserve" x="33.0625" y="159.672" font-family="&quot;Segoe UI&quot;" font-size="12" font-weight="400" font-style="normal">23</text>
            <text fill="#969696" fill-opacity="1" stroke="none" xml:space="preserve" x="33.0625" y="25.3438" font-family="&quot;Segoe UI&quot;" font-size="12" font-weight="400" font-style="normal">25</text>
        </g>
        <g fill="none" stroke="black" stroke-width="1" fill-rule="evenodd" stroke-linecap="square" stroke-linejoin="bevel" id="QGraphicsTextItem_6">
            


            


            


            <g fill="none" stroke="#232323" stroke-opacity="1" stroke-width="1" stroke-linecap="square" stroke-linejoin="bevel" transform="matrix(0,-1,1,0,-4,377)" font-family="Segoe UI" font-size="12" font-weight="400" font-style="normal">
                <text fill="#232323" fill-opacity="1" stroke="none" xml:space="preserve" x="4" y="21.2656" font-family="&quot;Segoe UI&quot;" font-size="16" font-weight="400" font-style="normal">  </text>
            </g>
            


            

        </g>
    </g>
</g>

</svg>
