<?xml version="1.0" encoding="UTF-8" standalone="no"?>
<svg xmlns="http://www.w3.org/2000/svg" xmlns:xlink="http://www.w3.org/1999/xlink"  version="1.2" baseProfile="tiny" viewBox ="0 0 1518 658">
<title>pyqtgraph SVG export</title>
<desc>Generated with Qt and pyqtgraph</desc>
<style>
    image {
        image-rendering: crisp-edges;
        image-rendering: -moz-crisp-edges;
        image-rendering: pixelated;
    }
</style>
<rect width="100%" height="100%" fill="#ffffff" fill-opacity="1.0" />
<defs>
</defs>
<g fill="none" stroke="black" stroke-width="1" fill-rule="evenodd" stroke-linecap="square" stroke-linejoin="bevel" id="PlotItem_1">
    <g fill="none" stroke="black" stroke-width="1" fill-rule="evenodd" stroke-linecap="square" stroke-linejoin="bevel" id="ViewBox_1">
        <g fill="none" stroke="none" font-family="Segoe UI" font-size="12" font-weight="400" font-style="normal">
            <path vector-effect="non-scaling-stroke" fill-rule="evenodd" d="M52.0,31.0 L1517.5,31.0 L1517.5,613.5 L52.0,613.5 L52.0,31.0 "/>
        </g>
        <clipPath id="ViewBox_1_clip">
            <path vector-effect="none" fill-rule="evenodd" d="M52.0,31.0 L1517.5,31.0 L1517.5,613.5 L52.0,613.5 L52.0,31.0 " stroke-width="1.0"/>
        </clipPath>
        <g clip-path="url(#ViewBox_1_clip)">
            <g fill="none" stroke="black" stroke-width="1" fill-rule="evenodd" stroke-linecap="square" stroke-linejoin="bevel" id="ChildGroup_1">
                <g fill="none" stroke="black" stroke-width="1" fill-rule="evenodd" stroke-linecap="square" stroke-linejoin="bevel" id="FillBetweenItem_1">
                    <g fill="#00ff00" fill-opacity="0.196078" stroke="none" font-family="Segoe UI" font-size="12" font-weight="400" font-style="normal">
                        <path vector-effect="non-scaling-stroke" fill-rule="evenodd" d="M89.0461,204.17920987000002 L96.03558,204.17920987000002 L103.02506,204.17920987000002 L110.01454,204.17920987000002 L117.00402,204.17920987000002 L123.9935,204.17920987000002 L130.98298,204.17920987000002 L137.97246,204.17920987000002 L144.96194,204.17920987000002 L151.95141999999998,204.17920987000002 L158.9409,204.17920987000002 L165.93038,204.17920987000002 L172.91986,204.17920987000002 L179.90934,204.17920987000002 L186.89882,204.17920987000002 L193.88830000000002,204.17920987000002 L200.87778,204.17920987000002 L207.86726,204.17920987000002 L214.85674,204.17920987000002 L221.84622,204.17920987000002 L228.8357,204.17920987000002 L235.82518,204.17920987000002 L242.81466,204.17920987000002 L249.80414,204.17920987000002 L256.79362000000003,204.17920987000002 L263.7831,204.17920987000002 L270.77258,204.17920987000002 L277.76206,204.17920987000002 L284.75154,204.17920987000002 L291.74102,204.17920987000002 L298.7305,204.17920987000002 L305.71997999999996,204.17920987000002 L312.70946000000004,204.17920987000002 L319.69894,204.17920987000002 L326.68842,204.17920987000002 L333.6779,204.17920987000002 L340.66738,204.17920987000002 L347.65686000000005,204.17920987000002 L354.64634,204.17920987000002 L361.63581999999997,204.17920987000002 L368.62530000000004,204.17920987000002 L375.61478,204.17920987000002 L382.60425999999995,204.17920987000002 L389.59374,204.17920987000002 L396.58322,204.17920987000002 L403.57270000000005,204.17920987000002 L410.56218,204.17920987000002 L417.55165999999997,204.17920987000002 L424.54114000000004,204.17920987000002 L431.53062,204.17920987000002 L438.52009999999996,204.17920987000002 L445.50958,204.17920987000002 L452.49906,204.17920987000002 L459.48854000000006,204.17920987000002 L466.47802,204.17920987000002 L473.4675,204.17920987000002 L480.45698000000004,204.17920987000002 L487.44646,204.17920987000002 L494.43593999999996,204.17920987000002 L501.42542000000003,204.17920987000002 L508.4149,204.17920987000002 L515.4043800000001,204.17920987000002 L522.39386,204.17920987000002 L529.38334,204.17920987000002 L536.37282,204.17920987000002 L543.3623,204.17920987000002 L550.35178,204.17920987000002 L557.34126,204.17920987000002 L564.33074,204.17920987000002 L571.32022,204.17920987000002 L578.3097,204.17920987000002 L585.29918,204.17920987000002 L592.28866,204.17920987000002 L599.27814,204.17920987000002 L606.2676200000001,204.17920987000002 L613.2571,204.17920987000002 L620.24658,204.17920987000002 L627.2360600000001,204.17920987000002 L634.22554,204.17920987000002 L641.21502,204.17920987000002 L648.2045,204.17920987000002 L655.19398,204.17920987000002 L662.1834600000001,204.17920987000002 L669.17294,204.17920987000002 L676.16242,204.17920987000002 L683.1519000000001,204.17920987000002 L690.14138,204.17920987000002 L697.13086,204.17920987000002 L704.12034,204.17920987000002 L711.10982,204.17920987000002 L718.0993000000001,204.17920987000002 L725.08878,204.17920987000002 L732.07826,204.17920987000002 L739.0677400000001,204.17920987000002 L746.05722,204.17920987000002 L753.0467,204.17920987000002 L760.0361800000001,204.17920987000002 L767.02566,204.17920987000002 L774.0151400000001,204.17920987000002 L781.00462,204.17920987000002 L787.9941,204.17920987000002 L794.9835800000001,204.17920987000002 L801.97306,204.17920987000002 L808.96254,204.17920987000002 L815.9520200000001,204.17920987000002 L822.9415,204.17920987000002 L829.9309800000001,204.17920987000002 L836.92046,204.17920987000002 L843.90994,204.17920987000002 L850.8994200000001,204.17920987000002 L857.8889,204.17920987000002 L864.87838,204.17920987000002 L871.8678600000001,204.17920987000002 L878.85734,204.17920987000002 L885.8468200000001,204.17920987000002 L892.8363,204.17920987000002 L899.82578,204.17920987000002 L906.8152600000001,204.17920987000002 L913.80474,204.17920987000002 L920.79422,204.17920987000002 L927.7837000000001,204.17920987000002 L934.77318,204.17920987000002 L941.7626600000001,204.17920987000002 L948.75214,204.17920987000002 L955.74162,204.17920987000002 L962.7311000000001,204.17920987000002 L969.72058,204.17920987000002 L976.71006,204.17920987000002 L983.6995400000001,204.17920987000002 L990.68902,204.17920987000002 L997.6785,204.17920987000002 L1004.6679800000001,204.17920987000002 L1011.65746,204.17920987000002 L1018.6469400000001,204.17920987000002 L1025.63642,204.17920987000002 L1032.6259,204.17920987000002 L1039.61538,204.17920987000002 L1046.60486,204.17920987000002 L1053.5943399999999,204.17920987000002 L1060.58382,204.17920987000002 L1067.5733,204.17920987000002 L1074.56278,204.17920987000002 L1081.55226,204.17920987000002 L1088.54174,204.17920987000002 L1095.53122,204.17920987000002 L1102.5207,204.17920987000002 L1109.51018,204.17920987000002 L1116.49966,204.17920987000002 L1123.4891400000001,204.17920987000002 L1130.47862,204.17920987000002 L1137.4681,204.17920987000002 L1144.45758,204.17920987000002 L1151.44706,204.17920987000002 L1158.4365400000002,204.17920987000002 L1165.42602,204.17920987000002 L1172.4155,204.17920987000002 L1179.40498,204.17920987000002 L1186.39446,204.17920987000002 L1193.38394,204.17920987000002 L1200.3734200000001,204.17920987000002 L1207.3629,204.17920987000002 L1214.35238,204.17920987000002 L1221.34186,204.17920987000002 L1228.33134,204.17920987000002 L1235.3208200000001,204.17920987000002 L1242.3103,204.17920987000002 L1249.29978,204.17920987000002 L1256.28926,204.17920987000002 L1263.27874,204.17920987000002 L1270.2682200000002,204.17920987000002 L1277.2577,204.17920987000002 L1284.24718,204.17920987000002 L1291.23666,204.17920987000002 L1298.22614,204.17920987000002 L1305.21562,204.17920987000002 L1312.2051000000001,204.17920987000002 L1319.19458,204.17920987000002 L1326.18406,204.17920987000002 L1333.17354,204.17920987000002 L1340.16302,204.17920987000002 L1347.1525000000001,204.17920987000002 L1354.14198,204.17920987000002 L1361.13146,204.17920987000002 L1368.12094,204.17920987000002 L1375.11042,204.17920987000002 L1382.0999000000002,204.17920987000002 L1389.0893800000001,204.17920987000002 L1396.07886,204.17920987000002 L1403.06834,204.17920987000002 L1410.05782,204.17920987000002 L1417.0473,204.17920987000002 L1424.0367800000001,204.17920987000002 L1431.02626,204.17920987000002 L1438.01574,204.17920987000002 L1445.00522,204.17920987000002 L1451.9947,204.17920987000002 L1458.9841800000002,204.17920987000002 L1465.97366,204.17920987000002 L1472.96314,204.17920987000002 L1479.95262,204.17920987000002 L1479.95262,349.14901513000007 L1472.96314,349.14901513000007 L1465.97366,349.14901513000007 L1458.9841800000002,349.14901513000007 L1451.9947,349.14901513000007 L1445.00522,349.14901513000007 L1438.01574,349.14901513000007 L1431.02626,349.14901513000007 L1424.0367800000001,349.14901513000007 L1417.0473,349.14901513000007 L1410.05782,349.14901513000007 L1403.06834,349.14901513000007 L1396.07886,349.14901513000007 L1389.0893800000001,349.14901513000007 L1382.0999000000002,349.14901513000007 L1375.11042,349.14901513000007 L1368.12094,349.14901513000007 L1361.13146,349.14901513000007 L1354.14198,349.14901513000007 L1347.1525000000001,349.14901513000007 L1340.16302,349.14901513000007 L1333.17354,349.14901513000007 L1326.18406,349.14901513000007 L1319.19458,349.14901513000007 L1312.2051000000001,349.14901513000007 L1305.21562,349.14901513000007 L1298.22614,349.14901513000007 L1291.23666,349.14901513000007 L1284.24718,349.14901513000007 L1277.2577,349.14901513000007 L1270.2682200000002,349.14901513000007 L1263.27874,349.14901513000007 L1256.28926,349.14901513000007 L1249.29978,349.14901513000007 L1242.3103,349.14901513000007 L1235.3208200000001,349.14901513000007 L1228.33134,349.14901513000007 L1221.34186,349.14901513000007 L1214.35238,349.14901513000007 L1207.3629,349.14901513000007 L1200.3734200000001,349.14901513000007 L1193.38394,349.14901513000007 L1186.39446,349.14901513000007 L1179.40498,349.14901513000007 L1172.4155,349.14901513000007 L1165.42602,349.14901513000007 L1158.4365400000002,349.14901513000007 L1151.44706,349.14901513000007 L1144.45758,349.14901513000007 L1137.4681,349.14901513000007 L1130.47862,349.14901513000007 L1123.4891400000001,349.14901513000007 L1116.49966,349.14901513000007 L1109.51018,349.14901513000007 L1102.5207,349.14901513000007 L1095.53122,349.14901513000007 L1088.54174,349.14901513000007 L1081.55226,349.14901513000007 L1074.56278,349.14901513000007 L1067.5733,349.14901513000007 L1060.58382,349.14901513000007 L1053.5943399999999,349.14901513000007 L1046.60486,349.14901513000007 L1039.61538,349.14901513000007 L1032.6259,349.14901513000007 L1025.63642,349.14901513000007 L1018.6469400000001,349.14901513000007 L1011.65746,349.14901513000007 L1004.6679800000001,349.14901513000007 L997.6785,349.14901513000007 L990.68902,349.14901513000007 L983.6995400000001,349.14901513000007 L976.71006,349.14901513000007 L969.72058,349.14901513000007 L962.7311000000001,349.14901513000007 L955.74162,349.14901513000007 L948.75214,349.14901513000007 L941.7626600000001,349.14901513000007 L934.77318,349.14901513000007 L927.7837000000001,349.14901513000007 L920.79422,349.14901513000007 L913.80474,349.14901513000007 L906.8152600000001,349.14901513000007 L899.82578,349.14901513000007 L892.8363,349.14901513000007 L885.8468200000001,349.14901513000007 L878.85734,349.14901513000007 L871.8678600000001,349.14901513000007 L864.87838,349.14901513000007 L857.8889,349.14901513000007 L850.8994200000001,349.14901513000007 L843.90994,349.14901513000007 L836.92046,349.14901513000007 L829.9309800000001,349.14901513000007 L822.9415,349.14901513000007 L815.9520200000001,349.14901513000007 L808.96254,349.14901513000007 L801.97306,349.14901513000007 L794.9835800000001,349.14901513000007 L787.9941,349.14901513000007 L781.00462,349.14901513000007 L774.0151400000001,349.14901513000007 L767.02566,349.14901513000007 L760.0361800000001,349.14901513000007 L753.0467,349.14901513000007 L746.05722,349.14901513000007 L739.0677400000001,349.14901513000007 L732.07826,349.14901513000007 L725.08878,349.14901513000007 L718.0993000000001,349.14901513000007 L711.10982,349.14901513000007 L704.12034,349.14901513000007 L697.13086,349.14901513000007 L690.14138,349.14901513000007 L683.1519000000001,349.14901513000007 L676.16242,349.14901513000007 L669.17294,349.14901513000007 L662.1834600000001,349.14901513000007 L655.19398,349.14901513000007 L648.2045,349.14901513000007 L641.21502,349.14901513000007 L634.22554,349.14901513000007 L627.2360600000001,349.14901513000007 L620.24658,349.14901513000007 L613.2571,349.14901513000007 L606.2676200000001,349.14901513000007 L599.27814,349.14901513000007 L592.28866,349.14901513000007 L585.29918,349.14901513000007 L578.3097,349.14901513000007 L571.32022,349.14901513000007 L564.33074,349.14901513000007 L557.34126,349.14901513000007 L550.35178,349.14901513000007 L543.3623,349.14901513000007 L536.37282,349.14901513000007 L529.38334,349.14901513000007 L522.39386,349.14901513000007 L515.4043800000001,349.14901513000007 L508.4149,349.14901513000007 L501.42542000000003,349.14901513000007 L494.43593999999996,349.14901513000007 L487.44646,349.14901513000007 L480.45698000000004,349.14901513000007 L473.4675,349.14901513000007 L466.47802,349.14901513000007 L459.48854000000006,349.14901513000007 L452.49906,349.14901513000007 L445.50958,349.14901513000007 L438.52009999999996,349.14901513000007 L431.53062,349.14901513000007 L424.54114000000004,349.14901513000007 L417.55165999999997,349.14901513000007 L410.56218,349.14901513000007 L403.57270000000005,349.14901513000007 L396.58322,349.14901513000007 L389.59374,349.14901513000007 L382.60425999999995,349.14901513000007 L375.61478,349.14901513000007 L368.62530000000004,349.14901513000007 L361.63581999999997,349.14901513000007 L354.64634,349.14901513000007 L347.65686000000005,349.14901513000007 L340.66738,349.14901513000007 L333.6779,349.14901513000007 L326.68842,349.14901513000007 L319.69894,349.14901513000007 L312.70946000000004,349.14901513000007 L305.71997999999996,349.14901513000007 L298.7305,349.14901513000007 L291.74102,349.14901513000007 L284.75154,349.14901513000007 L277.76206,349.14901513000007 L270.77258,349.14901513000007 L263.7831,349.14901513000007 L256.79362000000003,349.14901513000007 L249.80414,349.14901513000007 L242.81466,349.14901513000007 L235.82518,349.14901513000007 L228.8357,349.14901513000007 L221.84622,349.14901513000007 L214.85674,349.14901513000007 L207.86726,349.14901513000007 L200.87778,349.14901513000007 L193.88830000000002,349.14901513000007 L186.89882,349.14901513000007 L179.90934,349.14901513000007 L172.91986,349.14901513000007 L165.93038,349.14901513000007 L158.9409,349.14901513000007 L151.95141999999998,349.14901513000007 L144.96194,349.14901513000007 L137.97246,349.14901513000007 L130.98298,349.14901513000007 L123.9935,349.14901513000007 L117.00402,349.14901513000007 L110.01454,349.14901513000007 L103.02506,349.14901513000007 L96.03558,349.14901513000007 L89.0461,349.14901513000007 "/>
                    </g>
                </g>
                <g id="PlotDataItem_1">
                    <g fill="none" stroke="black" stroke-width="1" fill-rule="evenodd" stroke-linecap="square" stroke-linejoin="bevel" id="PlotCurveItem_1">
                        <g fill="#0000ff" fill-opacity="0.588235" stroke="none" font-family="Segoe UI" font-size="12" font-weight="400" font-style="normal">
                            <path vector-effect="none" fill-rule="evenodd" d="M89.0461,321.9997 L96.03558,321.9997 L96.03558,164.3107 L103.02506,164.3107 L103.02506,274.69300000000004 L110.01454,274.69300000000004 L110.01454,227.3863 L117.00402,227.3863 L117.00402,337.7686 L123.9935,337.7686 L123.9935,211.61740000000003 L130.98298,211.61740000000003 L130.98298,306.23080000000004 L137.97246,306.23080000000004 L137.97246,274.69300000000004 L144.96194,274.69300000000004 L144.96194,337.7686 L151.95141999999998,337.7686 L151.95141999999998,274.69300000000004 L158.9409,274.69300000000004 L158.9409,195.8485 L165.93038,195.8485 L165.93038,306.23080000000004 L172.91986,306.23080000000004 L172.91986,148.54180000000002 L179.90934,148.54180000000002 L179.90934,180.07960000000003 L186.89882,180.07960000000003 L186.89882,227.3863 L193.88830000000002,227.3863 L193.88830000000002,369.30640000000005 L200.87778,369.30640000000005 L200.87778,211.61740000000003 L207.86726,211.61740000000003 L207.86726,400.8442 L214.85674,400.8442 L214.85674,227.3863 L221.84622,227.3863 L221.84622,274.69300000000004 L228.8357,274.69300000000004 L228.8357,369.30640000000005 L235.82518,369.30640000000005 L235.82518,306.23080000000004 L242.81466,306.23080000000004 L242.81466,463.9198 L249.80414,463.9198 L249.80414,290.4619 L256.79362000000003,290.4619 L256.79362000000003,243.15520000000004 L263.7831,243.15520000000004 L263.7831,590.071 L89.0461,590.071 L89.0461,321.9997 "/>
                        </g>
                        <g fill="#0000ff" fill-opacity="0.588235" stroke="none" font-family="Segoe UI" font-size="12" font-weight="400" font-style="normal">
                            <path vector-effect="none" fill-rule="evenodd" d="M263.7831,243.15520000000004 L263.7831,227.3863 L270.77258,227.3863 L270.77258,243.15520000000004 L277.76206,243.15520000000004 L277.76206,290.4619 L284.75154,290.4619 L284.75154,274.69300000000004 L291.74102,274.69300000000004 L291.74102,211.61740000000003 L298.7305,211.61740000000003 L298.7305,258.9241 L305.71997999999996,258.9241 L305.71997999999996,400.8442 L312.70946000000004,400.8442 L312.70946000000004,416.61310000000003 L319.69894,416.61310000000003 L319.69894,321.9997 L326.68842,321.9997 L326.68842,211.61740000000003 L333.6779,211.61740000000003 L333.6779,290.4619 L340.66738,290.4619 L340.66738,321.9997 L347.65686000000005,321.9997 L347.65686000000005,306.23080000000004 L354.64634,306.23080000000004 L354.64634,290.4619 L361.63581999999997,290.4619 L361.63581999999997,132.7729 L368.62530000000004,132.7729 L368.62530000000004,353.5375 L375.61478,353.5375 L375.61478,274.69300000000004 L382.60425999999995,274.69300000000004 L382.60425999999995,258.9241 L389.59374,258.9241 L389.59374,180.07960000000003 L396.58322,180.07960000000003 L396.58322,306.23080000000004 L403.57270000000005,306.23080000000004 L403.57270000000005,290.4619 L410.56218,290.4619 L410.56218,353.5375 L417.55165999999997,353.5375 L417.55165999999997,306.23080000000004 L424.54114000000004,306.23080000000004 L424.54114000000004,385.0753 L431.53062,385.0753 L431.53062,306.23080000000004 L431.53062,590.071 L263.7831,590.071 L263.7831,243.15520000000004 "/>
                        </g>
                        <g fill="#0000ff" fill-opacity="0.588235" stroke="none" font-family="Segoe UI" font-size="12" font-weight="400" font-style="normal">
                            <path vector-effect="none" fill-rule="evenodd" d="M431.53062,306.23080000000004 L438.52009999999996,306.23080000000004 L438.52009999999996,306.23080000000004 L445.50958,306.23080000000004 L445.50958,306.23080000000004 L452.49906,306.23080000000004 L452.49906,227.3863 L459.48854000000006,227.3863 L459.48854000000006,195.8485 L466.47802,195.8485 L466.47802,180.07960000000003 L473.4675,180.07960000000003 L473.4675,258.9241 L480.45698000000004,258.9241 L480.45698000000004,274.69300000000004 L487.44646,274.69300000000004 L487.44646,227.3863 L494.43593999999996,227.3863 L494.43593999999996,274.69300000000004 L501.42542000000003,274.69300000000004 L501.42542000000003,211.61740000000003 L508.4149,211.61740000000003 L508.4149,290.4619 L515.4043800000001,290.4619 L515.4043800000001,274.69300000000004 L522.39386,274.69300000000004 L522.39386,321.9997 L529.38334,321.9997 L529.38334,243.15520000000004 L536.37282,243.15520000000004 L536.37282,274.69300000000004 L543.3623,274.69300000000004 L543.3623,290.4619 L550.35178,290.4619 L550.35178,290.4619 L557.34126,290.4619 L557.34126,211.61740000000003 L564.33074,211.61740000000003 L564.33074,369.30640000000005 L571.32022,369.30640000000005 L571.32022,369.30640000000005 L578.3097,369.30640000000005 L578.3097,353.5375 L585.29918,353.5375 L585.29918,258.9241 L592.28866,258.9241 L592.28866,117.00400000000002 L599.27814,117.00400000000002 L599.27814,258.9241 L606.2676200000001,258.9241 L606.2676200000001,590.071 L431.53062,590.071 L431.53062,306.23080000000004 "/>
                        </g>
                        <g fill="#0000ff" fill-opacity="0.588235" stroke="none" font-family="Segoe UI" font-size="12" font-weight="400" font-style="normal">
                            <path vector-effect="none" fill-rule="evenodd" d="M606.2676200000001,258.9241 L606.2676200000001,180.07960000000003 L613.2571,180.07960000000003 L613.2571,274.69300000000004 L620.24658,274.69300000000004 L620.24658,258.9241 L627.2360600000001,258.9241 L627.2360600000001,337.7686 L634.22554,337.7686 L634.22554,195.8485 L641.21502,195.8485 L641.21502,321.9997 L648.2045,321.9997 L648.2045,164.3107 L655.19398,164.3107 L655.19398,258.9241 L662.1834600000001,258.9241 L662.1834600000001,290.4619 L669.17294,290.4619 L669.17294,258.9241 L676.16242,258.9241 L676.16242,258.9241 L683.1519000000001,258.9241 L683.1519000000001,258.9241 L690.14138,258.9241 L690.14138,243.15520000000004 L697.13086,243.15520000000004 L697.13086,369.30640000000005 L704.12034,369.30640000000005 L704.12034,321.9997 L711.10982,321.9997 L711.10982,164.3107 L718.0993000000001,164.3107 L718.0993000000001,321.9997 L725.08878,321.9997 L725.08878,53.92840000000001 L732.07826,53.92840000000001 L732.07826,526.9954 L739.0677400000001,526.9954 L739.0677400000001,432.38200000000006 L746.05722,432.38200000000006 L746.05722,385.0753 L753.0467,385.0753 L753.0467,385.0753 L760.0361800000001,385.0753 L760.0361800000001,321.9997 L767.02566,321.9997 L767.02566,117.00400000000002 L774.0151400000001,117.00400000000002 L774.0151400000001,385.0753 L774.0151400000001,590.071 L606.2676200000001,590.071 L606.2676200000001,258.9241 "/>
                        </g>
                        <g fill="#0000ff" fill-opacity="0.588235" stroke="none" font-family="Segoe UI" font-size="12" font-weight="400" font-style="normal">
                            <path vector-effect="none" fill-rule="evenodd" d="M774.0151400000001,385.0753 L781.00462,385.0753 L781.00462,211.61740000000003 L787.9941,211.61740000000003 L787.9941,258.9241 L794.9835800000001,258.9241 L794.9835800000001,274.69300000000004 L801.97306,274.69300000000004 L801.97306,258.9241 L808.96254,258.9241 L808.96254,195.8485 L815.9520200000001,195.8485 L815.9520200000001,306.23080000000004 L822.9415,306.23080000000004 L822.9415,258.9241 L829.9309800000001,258.9241 L829.9309800000001,290.4619 L836.92046,290.4619 L836.92046,369.30640000000005 L843.90994,369.30640000000005 L843.90994,306.23080000000004 L850.8994200000001,306.23080000000004 L850.8994200000001,337.7686 L857.8889,337.7686 L857.8889,290.4619 L864.87838,290.4619 L864.87838,337.7686 L871.8678600000001,337.7686 L871.8678600000001,243.15520000000004 L878.85734,243.15520000000004 L878.85734,195.8485 L885.8468200000001,195.8485 L885.8468200000001,180.07960000000003 L892.8363,180.07960000000003 L892.8363,243.15520000000004 L899.82578,243.15520000000004 L899.82578,290.4619 L906.8152600000001,290.4619 L906.8152600000001,258.9241 L913.80474,258.9241 L913.80474,306.23080000000004 L920.79422,306.23080000000004 L920.79422,321.9997 L927.7837000000001,321.9997 L927.7837000000001,306.23080000000004 L934.77318,306.23080000000004 L934.77318,243.15520000000004 L941.7626600000001,243.15520000000004 L941.7626600000001,195.8485 L948.75214,195.8485 L948.75214,590.071 L774.0151400000001,590.071 L774.0151400000001,385.0753 "/>
                        </g>
                        <g fill="#0000ff" fill-opacity="0.588235" stroke="none" font-family="Segoe UI" font-size="12" font-weight="400" font-style="normal">
                            <path vector-effect="none" fill-rule="evenodd" d="M948.75214,195.8485 L948.75214,321.9997 L955.74162,321.9997 L955.74162,385.0753 L962.7311000000001,385.0753 L962.7311000000001,306.23080000000004 L969.72058,306.23080000000004 L969.72058,227.3863 L976.71006,227.3863 L976.71006,227.3863 L983.6995400000001,227.3863 L983.6995400000001,337.7686 L990.68902,337.7686 L990.68902,432.38200000000006 L997.6785,432.38200000000006 L997.6785,290.4619 L1004.6679800000001,290.4619 L1004.6679800000001,258.9241 L1011.65746,258.9241 L1011.65746,258.9241 L1018.6469400000001,258.9241 L1018.6469400000001,321.9997 L1025.63642,321.9997 L1025.63642,353.5375 L1032.6259,353.5375 L1032.6259,290.4619 L1039.61538,290.4619 L1039.61538,306.23080000000004 L1046.60486,306.23080000000004 L1046.60486,164.3107 L1053.5943399999999,164.3107 L1053.5943399999999,258.9241 L1060.58382,258.9241 L1060.58382,180.07960000000003 L1067.5733,180.07960000000003 L1067.5733,306.23080000000004 L1074.56278,306.23080000000004 L1074.56278,337.7686 L1081.55226,337.7686 L1081.55226,353.5375 L1088.54174,353.5375 L1088.54174,321.9997 L1095.53122,321.9997 L1095.53122,337.7686 L1102.5207,337.7686 L1102.5207,69.69730000000004 L1109.51018,69.69730000000004 L1109.51018,258.9241 L1116.49966,258.9241 L1116.49966,353.5375 L1116.49966,590.071 L948.75214,590.071 L948.75214,195.8485 "/>
                        </g>
                        <g fill="#0000ff" fill-opacity="0.588235" stroke="none" font-family="Segoe UI" font-size="12" font-weight="400" font-style="normal">
                            <path vector-effect="none" fill-rule="evenodd" d="M1116.49966,353.5375 L1123.4891400000001,353.5375 L1123.4891400000001,227.3863 L1130.47862,227.3863 L1130.47862,353.5375 L1137.4681,353.5375 L1137.4681,290.4619 L1144.45758,290.4619 L1144.45758,195.8485 L1151.44706,195.8485 L1151.44706,274.69300000000004 L1158.4365400000002,274.69300000000004 L1158.4365400000002,353.5375 L1165.42602,353.5375 L1165.42602,290.4619 L1172.4155,290.4619 L1172.4155,290.4619 L1179.40498,290.4619 L1179.40498,227.3863 L1186.39446,227.3863 L1186.39446,306.23080000000004 L1193.38394,306.23080000000004 L1193.38394,195.8485 L1200.3734200000001,195.8485 L1200.3734200000001,306.23080000000004 L1207.3629,306.23080000000004 L1207.3629,180.07960000000003 L1214.35238,180.07960000000003 L1214.35238,274.69300000000004 L1221.34186,274.69300000000004 L1221.34186,353.5375 L1228.33134,353.5375 L1228.33134,148.54180000000002 L1235.3208200000001,148.54180000000002 L1235.3208200000001,290.4619 L1242.3103,290.4619 L1242.3103,148.54180000000002 L1249.29978,148.54180000000002 L1249.29978,337.7686 L1256.28926,337.7686 L1256.28926,290.4619 L1263.27874,290.4619 L1263.27874,227.3863 L1270.2682200000002,227.3863 L1270.2682200000002,195.8485 L1277.2577,195.8485 L1277.2577,337.7686 L1284.24718,337.7686 L1284.24718,274.69300000000004 L1291.23666,274.69300000000004 L1291.23666,590.071 L1116.49966,590.071 L1116.49966,353.5375 "/>
                        </g>
                        <g fill="#0000ff" fill-opacity="0.588235" stroke="none" font-family="Segoe UI" font-size="12" font-weight="400" font-style="normal">
                            <path vector-effect="none" fill-rule="evenodd" d="M1291.23666,274.69300000000004 L1291.23666,211.61740000000003 L1298.22614,211.61740000000003 L1298.22614,243.15520000000004 L1305.21562,243.15520000000004 L1305.21562,211.61740000000003 L1312.2051000000001,211.61740000000003 L1312.2051000000001,337.7686 L1319.19458,337.7686 L1319.19458,180.07960000000003 L1326.18406,180.07960000000003 L1326.18406,274.69300000000004 L1333.17354,274.69300000000004 L1333.17354,306.23080000000004 L1340.16302,306.23080000000004 L1340.16302,353.5375 L1347.1525000000001,353.5375 L1347.1525000000001,306.23080000000004 L1354.14198,306.23080000000004 L1354.14198,306.23080000000004 L1361.13146,306.23080000000004 L1361.13146,290.4619 L1368.12094,290.4619 L1368.12094,321.9997 L1375.11042,321.9997 L1375.11042,258.9241 L1382.0999000000002,258.9241 L1382.0999000000002,321.9997 L1389.0893800000001,321.9997 L1389.0893800000001,400.8442 L1396.07886,400.8442 L1396.07886,132.7729 L1403.06834,132.7729 L1403.06834,227.3863 L1410.05782,227.3863 L1410.05782,195.8485 L1417.0473,195.8485 L1417.0473,148.54180000000002 L1424.0367800000001,148.54180000000002 L1424.0367800000001,101.23509999999999 L1431.02626,101.23509999999999 L1431.02626,243.15520000000004 L1438.01574,243.15520000000004 L1438.01574,290.4619 L1445.00522,290.4619 L1445.00522,369.30640000000005 L1451.9947,369.30640000000005 L1451.9947,274.69300000000004 L1458.9841800000002,274.69300000000004 L1458.9841800000002,385.0753 L1458.9841800000002,590.071 L1291.23666,590.071 L1291.23666,274.69300000000004 "/>
                        </g>
                        <g fill="#0000ff" fill-opacity="0.588235" stroke="none" font-family="Segoe UI" font-size="12" font-weight="400" font-style="normal">
                            <path vector-effect="none" fill-rule="evenodd" d="M1458.9841800000002,385.0753 L1465.97366,385.0753 L1465.97366,306.23080000000004 L1472.96314,306.23080000000004 L1472.96314,306.23080000000004 L1479.95262,306.23080000000004 L1479.95262,590.071 L1458.9841800000002,590.071 L1458.9841800000002,385.0753 "/>
                        </g>
                        <g fill="none" stroke="#c8c8c8" stroke-opacity="1" stroke-width="1" stroke-linecap="square" stroke-linejoin="bevel" font-family="Segoe UI" font-size="12" font-weight="400" font-style="normal">
                            <path vector-effect="non-scaling-stroke" fill-rule="evenodd" d="M89.0461,590.071 L89.0461,321.9997 L96.03558,321.9997 L96.03558,164.3107 L103.02506,164.3107 L103.02506,274.69300000000004 L110.01454,274.69300000000004 L110.01454,227.3863 L117.00402,227.3863 L117.00402,337.7686 L123.9935,337.7686 L123.9935,211.61740000000003 L130.98298,211.61740000000003 L130.98298,306.23080000000004 L137.97246,306.23080000000004 L137.97246,274.69300000000004 L144.96194,274.69300000000004 L144.96194,337.7686 L151.95141999999998,337.7686 L151.95141999999998,274.69300000000004 L158.9409,274.69300000000004 L158.9409,195.8485 L165.93038,195.8485 L165.93038,306.23080000000004 L172.91986,306.23080000000004 L172.91986,148.54180000000002 L179.90934,148.54180000000002 L179.90934,180.07960000000003 L186.89882,180.07960000000003 L186.89882,227.3863 L193.88830000000002,227.3863 L193.88830000000002,369.30640000000005 L200.87778,369.30640000000005 L200.87778,211.61740000000003 L207.86726,211.61740000000003 L207.86726,400.8442 L214.85674,400.8442 L214.85674,227.3863 L221.84622,227.3863 L221.84622,274.69300000000004 L228.8357,274.69300000000004 L228.8357,369.30640000000005 L235.82518,369.30640000000005 L235.82518,306.23080000000004 L242.81466,306.23080000000004 L242.81466,463.9198 L249.80414,463.9198 L249.80414,290.4619 L256.79362000000003,290.4619 L256.79362000000003,243.15520000000004 L263.7831,243.15520000000004 L263.7831,227.3863 L270.77258,227.3863 L270.77258,243.15520000000004 L277.76206,243.15520000000004 L277.76206,290.4619 L284.75154,290.4619 L284.75154,274.69300000000004 L291.74102,274.69300000000004 L291.74102,211.61740000000003 L298.7305,211.61740000000003 L298.7305,258.9241 L305.71997999999996,258.9241 L305.71997999999996,400.8442 L312.70946000000004,400.8442 L312.70946000000004,416.61310000000003 L319.69894,416.61310000000003 L319.69894,321.9997 L326.68842,321.9997 L326.68842,211.61740000000003 L333.6779,211.61740000000003 L333.6779,290.4619 L340.66738,290.4619 L340.66738,321.9997 L347.65686000000005,321.9997 L347.65686000000005,306.23080000000004 L354.64634,306.23080000000004 L354.64634,290.4619 L361.63581999999997,290.4619 L361.63581999999997,132.7729 L368.62530000000004,132.7729 L368.62530000000004,353.5375 L375.61478,353.5375 L375.61478,274.69300000000004 L382.60425999999995,274.69300000000004 L382.60425999999995,258.9241 L389.59374,258.9241 L389.59374,180.07960000000003 L396.58322,180.07960000000003 L396.58322,306.23080000000004 L403.57270000000005,306.23080000000004 L403.57270000000005,290.4619 L410.56218,290.4619 L410.56218,353.5375 L417.55165999999997,353.5375 L417.55165999999997,306.23080000000004 L424.54114000000004,306.23080000000004 L424.54114000000004,385.0753 L431.53062,385.0753 L431.53062,306.23080000000004 L438.52009999999996,306.23080000000004 L438.52009999999996,306.23080000000004 L445.50958,306.23080000000004 L445.50958,306.23080000000004 L452.49906,306.23080000000004 L452.49906,227.3863 L459.48854000000006,227.3863 L459.48854000000006,195.8485 L466.47802,195.8485 L466.47802,180.07960000000003 L473.4675,180.07960000000003 L473.4675,258.9241 L480.45698000000004,258.9241 L480.45698000000004,274.69300000000004 L487.44646,274.69300000000004 L487.44646,227.3863 L494.43593999999996,227.3863 L494.43593999999996,274.69300000000004 L501.42542000000003,274.69300000000004 L501.42542000000003,211.61740000000003 L508.4149,211.61740000000003 L508.4149,290.4619 L515.4043800000001,290.4619 L515.4043800000001,274.69300000000004 L522.39386,274.69300000000004 L522.39386,321.9997 L529.38334,321.9997 L529.38334,243.15520000000004 L536.37282,243.15520000000004 L536.37282,274.69300000000004 L543.3623,274.69300000000004 L543.3623,290.4619 L550.35178,290.4619 L550.35178,290.4619 L557.34126,290.4619 L557.34126,211.61740000000003 L564.33074,211.61740000000003 L564.33074,369.30640000000005 L571.32022,369.30640000000005 L571.32022,369.30640000000005 L578.3097,369.30640000000005 L578.3097,353.5375 L585.29918,353.5375 L585.29918,258.9241 L592.28866,258.9241 L592.28866,117.00400000000002 L599.27814,117.00400000000002 L599.27814,258.9241 L606.2676200000001,258.9241 L606.2676200000001,180.07960000000003 L613.2571,180.07960000000003 L613.2571,274.69300000000004 L620.24658,274.69300000000004 L620.24658,258.9241 L627.2360600000001,258.9241 L627.2360600000001,337.7686 L634.22554,337.7686 L634.22554,195.8485 L641.21502,195.8485 L641.21502,321.9997 L648.2045,321.9997 L648.2045,164.3107 L655.19398,164.3107 L655.19398,258.9241 L662.1834600000001,258.9241 L662.1834600000001,290.4619 L669.17294,290.4619 L669.17294,258.9241 L676.16242,258.9241 L676.16242,258.9241 L683.1519000000001,258.9241 L683.1519000000001,258.9241 L690.14138,258.9241 L690.14138,243.15520000000004 L697.13086,243.15520000000004 L697.13086,369.30640000000005 L704.12034,369.30640000000005 L704.12034,321.9997 L711.10982,321.9997 L711.10982,164.3107 L718.0993000000001,164.3107 L718.0993000000001,321.9997 L725.08878,321.9997 L725.08878,53.92840000000001 L732.07826,53.92840000000001 L732.07826,526.9954 L739.0677400000001,526.9954 L739.0677400000001,432.38200000000006 L746.05722,432.38200000000006 L746.05722,385.0753 L753.0467,385.0753 L753.0467,385.0753 L760.0361800000001,385.0753 L760.0361800000001,321.9997 L767.02566,321.9997 L767.02566,117.00400000000002 L774.0151400000001,117.00400000000002 L774.0151400000001,385.0753 L781.00462,385.0753 L781.00462,211.61740000000003 L787.9941,211.61740000000003 L787.9941,258.9241 L794.9835800000001,258.9241 L794.9835800000001,274.69300000000004 L801.97306,274.69300000000004 L801.97306,258.9241 L808.96254,258.9241 L808.96254,195.8485 L815.9520200000001,195.8485 L815.9520200000001,306.23080000000004 L822.9415,306.23080000000004 L822.9415,258.9241 L829.9309800000001,258.9241 L829.9309800000001,290.4619 L836.92046,290.4619 L836.92046,369.30640000000005 L843.90994,369.30640000000005 L843.90994,306.23080000000004 L850.8994200000001,306.23080000000004 L850.8994200000001,337.7686 L857.8889,337.7686 L857.8889,290.4619 L864.87838,290.4619 L864.87838,337.7686 L871.8678600000001,337.7686 L871.8678600000001,243.15520000000004 L878.85734,243.15520000000004 L878.85734,195.8485 L885.8468200000001,195.8485 L885.8468200000001,180.07960000000003 L892.8363,180.07960000000003 L892.8363,243.15520000000004 L899.82578,243.15520000000004 L899.82578,290.4619 L906.8152600000001,290.4619 L906.8152600000001,258.9241 L913.80474,258.9241 L913.80474,306.23080000000004 L920.79422,306.23080000000004 L920.79422,321.9997 L927.7837000000001,321.9997 L927.7837000000001,306.23080000000004 L934.77318,306.23080000000004 L934.77318,243.15520000000004 L941.7626600000001,243.15520000000004 L941.7626600000001,195.8485 L948.75214,195.8485 L948.75214,321.9997 L955.74162,321.9997 L955.74162,385.0753 L962.7311000000001,385.0753 L962.7311000000001,306.23080000000004 L969.72058,306.23080000000004 L969.72058,227.3863 L976.71006,227.3863 L976.71006,227.3863 L983.6995400000001,227.3863 L983.6995400000001,337.7686 L990.68902,337.7686 L990.68902,432.38200000000006 L997.6785,432.38200000000006 L997.6785,290.4619 L1004.6679800000001,290.4619 L1004.6679800000001,258.9241 L1011.65746,258.9241 L1011.65746,258.9241 L1018.6469400000001,258.9241 L1018.6469400000001,321.9997 L1025.63642,321.9997 L1025.63642,353.5375 L1032.6259,353.5375 L1032.6259,290.4619 L1039.61538,290.4619 L1039.61538,306.23080000000004 L1046.60486,306.23080000000004 L1046.60486,164.3107 L1053.5943399999999,164.3107 L1053.5943399999999,258.9241 L1060.58382,258.9241 L1060.58382,180.07960000000003 L1067.5733,180.07960000000003 L1067.5733,306.23080000000004 L1074.56278,306.23080000000004 L1074.56278,337.7686 L1081.55226,337.7686 L1081.55226,353.5375 L1088.54174,353.5375 L1088.54174,321.9997 L1095.53122,321.9997 L1095.53122,337.7686 L1102.5207,337.7686 L1102.5207,69.69730000000004 L1109.51018,69.69730000000004 L1109.51018,258.9241 L1116.49966,258.9241 L1116.49966,353.5375 L1123.4891400000001,353.5375 L1123.4891400000001,227.3863 L1130.47862,227.3863 L1130.47862,353.5375 L1137.4681,353.5375 L1137.4681,290.4619 L1144.45758,290.4619 L1144.45758,195.8485 L1151.44706,195.8485 L1151.44706,274.69300000000004 L1158.4365400000002,274.69300000000004 L1158.4365400000002,353.5375 L1165.42602,353.5375 L1165.42602,290.4619 L1172.4155,290.4619 L1172.4155,290.4619 L1179.40498,290.4619 L1179.40498,227.3863 L1186.39446,227.3863 L1186.39446,306.23080000000004 L1193.38394,306.23080000000004 L1193.38394,195.8485 L1200.3734200000001,195.8485 L1200.3734200000001,306.23080000000004 L1207.3629,306.23080000000004 L1207.3629,180.07960000000003 L1214.35238,180.07960000000003 L1214.35238,274.69300000000004 L1221.34186,274.69300000000004 L1221.34186,353.5375 L1228.33134,353.5375 L1228.33134,148.54180000000002 L1235.3208200000001,148.54180000000002 L1235.3208200000001,290.4619 L1242.3103,290.4619 L1242.3103,148.54180000000002 L1249.29978,148.54180000000002 L1249.29978,337.7686 L1256.28926,337.7686 L1256.28926,290.4619 L1263.27874,290.4619 L1263.27874,227.3863 L1270.2682200000002,227.3863 L1270.2682200000002,195.8485 L1277.2577,195.8485 L1277.2577,337.7686 L1284.24718,337.7686 L1284.24718,274.69300000000004 L1291.23666,274.69300000000004 L1291.23666,211.61740000000003 L1298.22614,211.61740000000003 L1298.22614,243.15520000000004 L1305.21562,243.15520000000004 L1305.21562,211.61740000000003 L1312.2051000000001,211.61740000000003 L1312.2051000000001,337.7686 L1319.19458,337.7686 L1319.19458,180.07960000000003 L1326.18406,180.07960000000003 L1326.18406,274.69300000000004 L1333.17354,274.69300000000004 L1333.17354,306.23080000000004 L1340.16302,306.23080000000004 L1340.16302,353.5375 L1347.1525000000001,353.5375 L1347.1525000000001,306.23080000000004 L1354.14198,306.23080000000004 L1354.14198,306.23080000000004 L1361.13146,306.23080000000004 L1361.13146,290.4619 L1368.12094,290.4619 L1368.12094,321.9997 L1375.11042,321.9997 L1375.11042,258.9241 L1382.0999000000002,258.9241 L1382.0999000000002,321.9997 L1389.0893800000001,321.9997 L1389.0893800000001,400.8442 L1396.07886,400.8442 L1396.07886,132.7729 L1403.06834,132.7729 L1403.06834,227.3863 L1410.05782,227.3863 L1410.05782,195.8485 L1417.0473,195.8485 L1417.0473,148.54180000000002 L1424.0367800000001,148.54180000000002 L1424.0367800000001,101.23509999999999 L1431.02626,101.23509999999999 L1431.02626,243.15520000000004 L1438.01574,243.15520000000004 L1438.01574,290.4619 L1445.00522,290.4619 L1445.00522,369.30640000000005 L1451.9947,369.30640000000005 L1451.9947,274.69300000000004 L1458.9841800000002,274.69300000000004 L1458.9841800000002,385.0753 L1465.97366,385.0753 L1465.97366,306.23080000000004 L1472.96314,306.23080000000004 L1472.96314,306.23080000000004 L1479.95262,306.23080000000004 L1479.95262,590.071 "/>
                        </g>
                    </g>
                </g>
                <g id="PlotDataItem_2">
                    <g fill="none" stroke="black" stroke-width="1" fill-rule="evenodd" stroke-linecap="square" stroke-linejoin="bevel" id="PlotCurveItem_2">
                        <g fill="none" stroke="#ff0000" stroke-opacity="1" stroke-dasharray="4,2" stroke-dashoffset="0" stroke-width="1" stroke-linecap="square" stroke-linejoin="bevel" font-family="Segoe UI" font-size="12" font-weight="400" font-style="normal">
                            <path vector-effect="non-scaling-stroke" fill-rule="evenodd" d="M89.0461,276.66411250000004 L96.03558,276.66411250000004 L103.02506,276.66411250000004 L110.01454,276.66411250000004 L117.00402,276.66411250000004 L123.9935,276.66411250000004 L130.98298,276.66411250000004 L137.97246,276.66411250000004 L144.96194,276.66411250000004 L151.95141999999998,276.66411250000004 L158.9409,276.66411250000004 L165.93038,276.66411250000004 L172.91986,276.66411250000004 L179.90934,276.66411250000004 L186.89882,276.66411250000004 L193.88830000000002,276.66411250000004 L200.87778,276.66411250000004 L207.86726,276.66411250000004 L214.85674,276.66411250000004 L221.84622,276.66411250000004 L228.8357,276.66411250000004 L235.82518,276.66411250000004 L242.81466,276.66411250000004 L249.80414,276.66411250000004 L256.79362000000003,276.66411250000004 L263.7831,276.66411250000004 L270.77258,276.66411250000004 L277.76206,276.66411250000004 L284.75154,276.66411250000004 L291.74102,276.66411250000004 L298.7305,276.66411250000004 L305.71997999999996,276.66411250000004 L312.70946000000004,276.66411250000004 L319.69894,276.66411250000004 L326.68842,276.66411250000004 L333.6779,276.66411250000004 L340.66738,276.66411250000004 L347.65686000000005,276.66411250000004 L354.64634,276.66411250000004 L361.63581999999997,276.66411250000004 L368.62530000000004,276.66411250000004 L375.61478,276.66411250000004 L382.60425999999995,276.66411250000004 L389.59374,276.66411250000004 L396.58322,276.66411250000004 L403.57270000000005,276.66411250000004 L410.56218,276.66411250000004 L417.55165999999997,276.66411250000004 L424.54114000000004,276.66411250000004 L431.53062,276.66411250000004 L438.52009999999996,276.66411250000004 L445.50958,276.66411250000004 L452.49906,276.66411250000004 L459.48854000000006,276.66411250000004 L466.47802,276.66411250000004 L473.4675,276.66411250000004 L480.45698000000004,276.66411250000004 L487.44646,276.66411250000004 L494.43593999999996,276.66411250000004 L501.42542000000003,276.66411250000004 L508.4149,276.66411250000004 L515.4043800000001,276.66411250000004 L522.39386,276.66411250000004 L529.38334,276.66411250000004 L536.37282,276.66411250000004 L543.3623,276.66411250000004 L550.35178,276.66411250000004 L557.34126,276.66411250000004 L564.33074,276.66411250000004 L571.32022,276.66411250000004 L578.3097,276.66411250000004 L585.29918,276.66411250000004 L592.28866,276.66411250000004 L599.27814,276.66411250000004 L606.2676200000001,276.66411250000004 L613.2571,276.66411250000004 L620.24658,276.66411250000004 L627.2360600000001,276.66411250000004 L634.22554,276.66411250000004 L641.21502,276.66411250000004 L648.2045,276.66411250000004 L655.19398,276.66411250000004 L662.1834600000001,276.66411250000004 L669.17294,276.66411250000004 L676.16242,276.66411250000004 L683.1519000000001,276.66411250000004 L690.14138,276.66411250000004 L697.13086,276.66411250000004 L704.12034,276.66411250000004 L711.10982,276.66411250000004 L718.0993000000001,276.66411250000004 L725.08878,276.66411250000004 L732.07826,276.66411250000004 L739.0677400000001,276.66411250000004 L746.05722,276.66411250000004 L753.0467,276.66411250000004 L760.0361800000001,276.66411250000004 L767.02566,276.66411250000004 L774.0151400000001,276.66411250000004 L781.00462,276.66411250000004 L787.9941,276.66411250000004 L794.9835800000001,276.66411250000004 L801.97306,276.66411250000004 L808.96254,276.66411250000004 L815.9520200000001,276.66411250000004 L822.9415,276.66411250000004 L829.9309800000001,276.66411250000004 L836.92046,276.66411250000004 L843.90994,276.66411250000004 L850.8994200000001,276.66411250000004 L857.8889,276.66411250000004 L864.87838,276.66411250000004 L871.8678600000001,276.66411250000004 L878.85734,276.66411250000004 L885.8468200000001,276.66411250000004 L892.8363,276.66411250000004 L899.82578,276.66411250000004 L906.8152600000001,276.66411250000004 L913.80474,276.66411250000004 L920.79422,276.66411250000004 L927.7837000000001,276.66411250000004 L934.77318,276.66411250000004 L941.7626600000001,276.66411250000004 L948.75214,276.66411250000004 L955.74162,276.66411250000004 L962.7311000000001,276.66411250000004 L969.72058,276.66411250000004 L976.71006,276.66411250000004 L983.6995400000001,276.66411250000004 L990.68902,276.66411250000004 L997.6785,276.66411250000004 L1004.6679800000001,276.66411250000004 L1011.65746,276.66411250000004 L1018.6469400000001,276.66411250000004 L1025.63642,276.66411250000004 L1032.6259,276.66411250000004 L1039.61538,276.66411250000004 L1046.60486,276.66411250000004 L1053.5943399999999,276.66411250000004 L1060.58382,276.66411250000004 L1067.5733,276.66411250000004 L1074.56278,276.66411250000004 L1081.55226,276.66411250000004 L1088.54174,276.66411250000004 L1095.53122,276.66411250000004 L1102.5207,276.66411250000004 L1109.51018,276.66411250000004 L1116.49966,276.66411250000004 L1123.4891400000001,276.66411250000004 L1130.47862,276.66411250000004 L1137.4681,276.66411250000004 L1144.45758,276.66411250000004 L1151.44706,276.66411250000004 L1158.4365400000002,276.66411250000004 L1165.42602,276.66411250000004 L1172.4155,276.66411250000004 L1179.40498,276.66411250000004 L1186.39446,276.66411250000004 L1193.38394,276.66411250000004 L1200.3734200000001,276.66411250000004 L1207.3629,276.66411250000004 L1214.35238,276.66411250000004 L1221.34186,276.66411250000004 L1228.33134,276.66411250000004 L1235.3208200000001,276.66411250000004 L1242.3103,276.66411250000004 L1249.29978,276.66411250000004 L1256.28926,276.66411250000004 L1263.27874,276.66411250000004 L1270.2682200000002,276.66411250000004 L1277.2577,276.66411250000004 L1284.24718,276.66411250000004 L1291.23666,276.66411250000004 L1298.22614,276.66411250000004 L1305.21562,276.66411250000004 L1312.2051000000001,276.66411250000004 L1319.19458,276.66411250000004 L1326.18406,276.66411250000004 L1333.17354,276.66411250000004 L1340.16302,276.66411250000004 L1347.1525000000001,276.66411250000004 L1354.14198,276.66411250000004 L1361.13146,276.66411250000004 L1368.12094,276.66411250000004 L1375.11042,276.66411250000004 L1382.0999000000002,276.66411250000004 L1389.0893800000001,276.66411250000004 L1396.07886,276.66411250000004 L1403.06834,276.66411250000004 L1410.05782,276.66411250000004 L1417.0473,276.66411250000004 L1424.0367800000001,276.66411250000004 L1431.02626,276.66411250000004 L1438.01574,276.66411250000004 L1445.00522,276.66411250000004 L1451.9947,276.66411250000004 L1458.9841800000002,276.66411250000004 L1465.97366,276.66411250000004 L1472.96314,276.66411250000004 L1479.95262,276.66411250000004 "/>
                        </g>
                    </g>
                </g>
                <g id="PlotDataItem_3">
                    <g fill="none" stroke="black" stroke-width="1" fill-rule="evenodd" stroke-linecap="square" stroke-linejoin="bevel" id="PlotCurveItem_3">
                        <g fill="none" stroke="#008000" stroke-opacity="1" stroke-dasharray="4,2" stroke-dashoffset="0" stroke-width="1" stroke-linecap="square" stroke-linejoin="bevel" font-family="Segoe UI" font-size="12" font-weight="400" font-style="normal">
                            <path vector-effect="non-scaling-stroke" fill-rule="evenodd" d="M89.0461,204.17920987000002 L96.03558,204.17920987000002 L103.02506,204.17920987000002 L110.01454,204.17920987000002 L117.00402,204.17920987000002 L123.9935,204.17920987000002 L130.98298,204.17920987000002 L137.97246,204.17920987000002 L144.96194,204.17920987000002 L151.95141999999998,204.17920987000002 L158.9409,204.17920987000002 L165.93038,204.17920987000002 L172.91986,204.17920987000002 L179.90934,204.17920987000002 L186.89882,204.17920987000002 L193.88830000000002,204.17920987000002 L200.87778,204.17920987000002 L207.86726,204.17920987000002 L214.85674,204.17920987000002 L221.84622,204.17920987000002 L228.8357,204.17920987000002 L235.82518,204.17920987000002 L242.81466,204.17920987000002 L249.80414,204.17920987000002 L256.79362000000003,204.17920987000002 L263.7831,204.17920987000002 L270.77258,204.17920987000002 L277.76206,204.17920987000002 L284.75154,204.17920987000002 L291.74102,204.17920987000002 L298.7305,204.17920987000002 L305.71997999999996,204.17920987000002 L312.70946000000004,204.17920987000002 L319.69894,204.17920987000002 L326.68842,204.17920987000002 L333.6779,204.17920987000002 L340.66738,204.17920987000002 L347.65686000000005,204.17920987000002 L354.64634,204.17920987000002 L361.63581999999997,204.17920987000002 L368.62530000000004,204.17920987000002 L375.61478,204.17920987000002 L382.60425999999995,204.17920987000002 L389.59374,204.17920987000002 L396.58322,204.17920987000002 L403.57270000000005,204.17920987000002 L410.56218,204.17920987000002 L417.55165999999997,204.17920987000002 L424.54114000000004,204.17920987000002 L431.53062,204.17920987000002 L438.52009999999996,204.17920987000002 L445.50958,204.17920987000002 L452.49906,204.17920987000002 L459.48854000000006,204.17920987000002 L466.47802,204.17920987000002 L473.4675,204.17920987000002 L480.45698000000004,204.17920987000002 L487.44646,204.17920987000002 L494.43593999999996,204.17920987000002 L501.42542000000003,204.17920987000002 L508.4149,204.17920987000002 L515.4043800000001,204.17920987000002 L522.39386,204.17920987000002 L529.38334,204.17920987000002 L536.37282,204.17920987000002 L543.3623,204.17920987000002 L550.35178,204.17920987000002 L557.34126,204.17920987000002 L564.33074,204.17920987000002 L571.32022,204.17920987000002 L578.3097,204.17920987000002 L585.29918,204.17920987000002 L592.28866,204.17920987000002 L599.27814,204.17920987000002 L606.2676200000001,204.17920987000002 L613.2571,204.17920987000002 L620.24658,204.17920987000002 L627.2360600000001,204.17920987000002 L634.22554,204.17920987000002 L641.21502,204.17920987000002 L648.2045,204.17920987000002 L655.19398,204.17920987000002 L662.1834600000001,204.17920987000002 L669.17294,204.17920987000002 L676.16242,204.17920987000002 L683.1519000000001,204.17920987000002 L690.14138,204.17920987000002 L697.13086,204.17920987000002 L704.12034,204.17920987000002 L711.10982,204.17920987000002 L718.0993000000001,204.17920987000002 L725.08878,204.17920987000002 L732.07826,204.17920987000002 L739.0677400000001,204.17920987000002 L746.05722,204.17920987000002 L753.0467,204.17920987000002 L760.0361800000001,204.17920987000002 L767.02566,204.17920987000002 L774.0151400000001,204.17920987000002 L781.00462,204.17920987000002 L787.9941,204.17920987000002 L794.9835800000001,204.17920987000002 L801.97306,204.17920987000002 L808.96254,204.17920987000002 L815.9520200000001,204.17920987000002 L822.9415,204.17920987000002 L829.9309800000001,204.17920987000002 L836.92046,204.17920987000002 L843.90994,204.17920987000002 L850.8994200000001,204.17920987000002 L857.8889,204.17920987000002 L864.87838,204.17920987000002 L871.8678600000001,204.17920987000002 L878.85734,204.17920987000002 L885.8468200000001,204.17920987000002 L892.8363,204.17920987000002 L899.82578,204.17920987000002 L906.8152600000001,204.17920987000002 L913.80474,204.17920987000002 L920.79422,204.17920987000002 L927.7837000000001,204.17920987000002 L934.77318,204.17920987000002 L941.7626600000001,204.17920987000002 L948.75214,204.17920987000002 L955.74162,204.17920987000002 L962.7311000000001,204.17920987000002 L969.72058,204.17920987000002 L976.71006,204.17920987000002 L983.6995400000001,204.17920987000002 L990.68902,204.17920987000002 L997.6785,204.17920987000002 L1004.6679800000001,204.17920987000002 L1011.65746,204.17920987000002 L1018.6469400000001,204.17920987000002 L1025.63642,204.17920987000002 L1032.6259,204.17920987000002 L1039.61538,204.17920987000002 L1046.60486,204.17920987000002 L1053.5943399999999,204.17920987000002 L1060.58382,204.17920987000002 L1067.5733,204.17920987000002 L1074.56278,204.17920987000002 L1081.55226,204.17920987000002 L1088.54174,204.17920987000002 L1095.53122,204.17920987000002 L1102.5207,204.17920987000002 L1109.51018,204.17920987000002 L1116.49966,204.17920987000002 L1123.4891400000001,204.17920987000002 L1130.47862,204.17920987000002 L1137.4681,204.17920987000002 L1144.45758,204.17920987000002 L1151.44706,204.17920987000002 L1158.4365400000002,204.17920987000002 L1165.42602,204.17920987000002 L1172.4155,204.17920987000002 L1179.40498,204.17920987000002 L1186.39446,204.17920987000002 L1193.38394,204.17920987000002 L1200.3734200000001,204.17920987000002 L1207.3629,204.17920987000002 L1214.35238,204.17920987000002 L1221.34186,204.17920987000002 L1228.33134,204.17920987000002 L1235.3208200000001,204.17920987000002 L1242.3103,204.17920987000002 L1249.29978,204.17920987000002 L1256.28926,204.17920987000002 L1263.27874,204.17920987000002 L1270.2682200000002,204.17920987000002 L1277.2577,204.17920987000002 L1284.24718,204.17920987000002 L1291.23666,204.17920987000002 L1298.22614,204.17920987000002 L1305.21562,204.17920987000002 L1312.2051000000001,204.17920987000002 L1319.19458,204.17920987000002 L1326.18406,204.17920987000002 L1333.17354,204.17920987000002 L1340.16302,204.17920987000002 L1347.1525000000001,204.17920987000002 L1354.14198,204.17920987000002 L1361.13146,204.17920987000002 L1368.12094,204.17920987000002 L1375.11042,204.17920987000002 L1382.0999000000002,204.17920987000002 L1389.0893800000001,204.17920987000002 L1396.07886,204.17920987000002 L1403.06834,204.17920987000002 L1410.05782,204.17920987000002 L1417.0473,204.17920987000002 L1424.0367800000001,204.17920987000002 L1431.02626,204.17920987000002 L1438.01574,204.17920987000002 L1445.00522,204.17920987000002 L1451.9947,204.17920987000002 L1458.9841800000002,204.17920987000002 L1465.97366,204.17920987000002 L1472.96314,204.17920987000002 L1479.95262,204.17920987000002 "/>
                        </g>
                    </g>
                </g>
                <g id="PlotDataItem_4">
                    <g fill="none" stroke="black" stroke-width="1" fill-rule="evenodd" stroke-linecap="square" stroke-linejoin="bevel" id="PlotCurveItem_4">
                        <g fill="none" stroke="#008000" stroke-opacity="1" stroke-dasharray="4,2" stroke-dashoffset="0" stroke-width="1" stroke-linecap="square" stroke-linejoin="bevel" font-family="Segoe UI" font-size="12" font-weight="400" font-style="normal">
                            <path vector-effect="non-scaling-stroke" fill-rule="evenodd" d="M89.0461,349.14901513000007 L96.03558,349.14901513000007 L103.02506,349.14901513000007 L110.01454,349.14901513000007 L117.00402,349.14901513000007 L123.9935,349.14901513000007 L130.98298,349.14901513000007 L137.97246,349.14901513000007 L144.96194,349.14901513000007 L151.95141999999998,349.14901513000007 L158.9409,349.14901513000007 L165.93038,349.14901513000007 L172.91986,349.14901513000007 L179.90934,349.14901513000007 L186.89882,349.14901513000007 L193.88830000000002,349.14901513000007 L200.87778,349.14901513000007 L207.86726,349.14901513000007 L214.85674,349.14901513000007 L221.84622,349.14901513000007 L228.8357,349.14901513000007 L235.82518,349.14901513000007 L242.81466,349.14901513000007 L249.80414,349.14901513000007 L256.79362000000003,349.14901513000007 L263.7831,349.14901513000007 L270.77258,349.14901513000007 L277.76206,349.14901513000007 L284.75154,349.14901513000007 L291.74102,349.14901513000007 L298.7305,349.14901513000007 L305.71997999999996,349.14901513000007 L312.70946000000004,349.14901513000007 L319.69894,349.14901513000007 L326.68842,349.14901513000007 L333.6779,349.14901513000007 L340.66738,349.14901513000007 L347.65686000000005,349.14901513000007 L354.64634,349.14901513000007 L361.63581999999997,349.14901513000007 L368.62530000000004,349.14901513000007 L375.61478,349.14901513000007 L382.60425999999995,349.14901513000007 L389.59374,349.14901513000007 L396.58322,349.14901513000007 L403.57270000000005,349.14901513000007 L410.56218,349.14901513000007 L417.55165999999997,349.14901513000007 L424.54114000000004,349.14901513000007 L431.53062,349.14901513000007 L438.52009999999996,349.14901513000007 L445.50958,349.14901513000007 L452.49906,349.14901513000007 L459.48854000000006,349.14901513000007 L466.47802,349.14901513000007 L473.4675,349.14901513000007 L480.45698000000004,349.14901513000007 L487.44646,349.14901513000007 L494.43593999999996,349.14901513000007 L501.42542000000003,349.14901513000007 L508.4149,349.14901513000007 L515.4043800000001,349.14901513000007 L522.39386,349.14901513000007 L529.38334,349.14901513000007 L536.37282,349.14901513000007 L543.3623,349.14901513000007 L550.35178,349.14901513000007 L557.34126,349.14901513000007 L564.33074,349.14901513000007 L571.32022,349.14901513000007 L578.3097,349.14901513000007 L585.29918,349.14901513000007 L592.28866,349.14901513000007 L599.27814,349.14901513000007 L606.2676200000001,349.14901513000007 L613.2571,349.14901513000007 L620.24658,349.14901513000007 L627.2360600000001,349.14901513000007 L634.22554,349.14901513000007 L641.21502,349.14901513000007 L648.2045,349.14901513000007 L655.19398,349.14901513000007 L662.1834600000001,349.14901513000007 L669.17294,349.14901513000007 L676.16242,349.14901513000007 L683.1519000000001,349.14901513000007 L690.14138,349.14901513000007 L697.13086,349.14901513000007 L704.12034,349.14901513000007 L711.10982,349.14901513000007 L718.0993000000001,349.14901513000007 L725.08878,349.14901513000007 L732.07826,349.14901513000007 L739.0677400000001,349.14901513000007 L746.05722,349.14901513000007 L753.0467,349.14901513000007 L760.0361800000001,349.14901513000007 L767.02566,349.14901513000007 L774.0151400000001,349.14901513000007 L781.00462,349.14901513000007 L787.9941,349.14901513000007 L794.9835800000001,349.14901513000007 L801.97306,349.14901513000007 L808.96254,349.14901513000007 L815.9520200000001,349.14901513000007 L822.9415,349.14901513000007 L829.9309800000001,349.14901513000007 L836.92046,349.14901513000007 L843.90994,349.14901513000007 L850.8994200000001,349.14901513000007 L857.8889,349.14901513000007 L864.87838,349.14901513000007 L871.8678600000001,349.14901513000007 L878.85734,349.14901513000007 L885.8468200000001,349.14901513000007 L892.8363,349.14901513000007 L899.82578,349.14901513000007 L906.8152600000001,349.14901513000007 L913.80474,349.14901513000007 L920.79422,349.14901513000007 L927.7837000000001,349.14901513000007 L934.77318,349.14901513000007 L941.7626600000001,349.14901513000007 L948.75214,349.14901513000007 L955.74162,349.14901513000007 L962.7311000000001,349.14901513000007 L969.72058,349.14901513000007 L976.71006,349.14901513000007 L983.6995400000001,349.14901513000007 L990.68902,349.14901513000007 L997.6785,349.14901513000007 L1004.6679800000001,349.14901513000007 L1011.65746,349.14901513000007 L1018.6469400000001,349.14901513000007 L1025.63642,349.14901513000007 L1032.6259,349.14901513000007 L1039.61538,349.14901513000007 L1046.60486,349.14901513000007 L1053.5943399999999,349.14901513000007 L1060.58382,349.14901513000007 L1067.5733,349.14901513000007 L1074.56278,349.14901513000007 L1081.55226,349.14901513000007 L1088.54174,349.14901513000007 L1095.53122,349.14901513000007 L1102.5207,349.14901513000007 L1109.51018,349.14901513000007 L1116.49966,349.14901513000007 L1123.4891400000001,349.14901513000007 L1130.47862,349.14901513000007 L1137.4681,349.14901513000007 L1144.45758,349.14901513000007 L1151.44706,349.14901513000007 L1158.4365400000002,349.14901513000007 L1165.42602,349.14901513000007 L1172.4155,349.14901513000007 L1179.40498,349.14901513000007 L1186.39446,349.14901513000007 L1193.38394,349.14901513000007 L1200.3734200000001,349.14901513000007 L1207.3629,349.14901513000007 L1214.35238,349.14901513000007 L1221.34186,349.14901513000007 L1228.33134,349.14901513000007 L1235.3208200000001,349.14901513000007 L1242.3103,349.14901513000007 L1249.29978,349.14901513000007 L1256.28926,349.14901513000007 L1263.27874,349.14901513000007 L1270.2682200000002,349.14901513000007 L1277.2577,349.14901513000007 L1284.24718,349.14901513000007 L1291.23666,349.14901513000007 L1298.22614,349.14901513000007 L1305.21562,349.14901513000007 L1312.2051000000001,349.14901513000007 L1319.19458,349.14901513000007 L1326.18406,349.14901513000007 L1333.17354,349.14901513000007 L1340.16302,349.14901513000007 L1347.1525000000001,349.14901513000007 L1354.14198,349.14901513000007 L1361.13146,349.14901513000007 L1368.12094,349.14901513000007 L1375.11042,349.14901513000007 L1382.0999000000002,349.14901513000007 L1389.0893800000001,349.14901513000007 L1396.07886,349.14901513000007 L1403.06834,349.14901513000007 L1410.05782,349.14901513000007 L1417.0473,349.14901513000007 L1424.0367800000001,349.14901513000007 L1431.02626,349.14901513000007 L1438.01574,349.14901513000007 L1445.00522,349.14901513000007 L1451.9947,349.14901513000007 L1458.9841800000002,349.14901513000007 L1465.97366,349.14901513000007 L1472.96314,349.14901513000007 L1479.95262,349.14901513000007 "/>
                        </g>
                    </g>
                </g>
            </g>
            <g fill="none" stroke="black" stroke-width="1" fill-rule="evenodd" stroke-linecap="square" stroke-linejoin="bevel" id="LegendItem_1">
                <g fill="none" stroke="none" transform="matrix(1,0,0,1,82,61)" font-family="Segoe UI" font-size="12" font-weight="400" font-style="normal">
                    <rect vector-effect="non-scaling-stroke" x="0" y="0" width="233.969" height="138"/>
                </g>
                <g fill="none" stroke="black" stroke-width="1" fill-rule="evenodd" stroke-linecap="square" stroke-linejoin="bevel" id="ItemSample_1">
                    <g fill="none" stroke="#c8c8c8" stroke-opacity="1" stroke-width="1" stroke-linecap="square" stroke-linejoin="bevel" font-family="Segoe UI" font-size="12" font-weight="400" font-style="normal">
                        <polyline fill="none" vector-effect="non-scaling-stroke" points="91.0,81.0 111.0,81.0"/>
                    </g>
                    <g fill="#0000ff" fill-opacity="0.588235" stroke="#c8c8c8" stroke-opacity="1" stroke-width="1" stroke-linecap="square" stroke-linejoin="bevel" font-family="Segoe UI" font-size="12" font-weight="400" font-style="normal">
                        <path vector-effect="non-scaling-stroke" fill-rule="evenodd" d="M93.0,88.0 L109.0,72.0 L109.0,88.0 L93.0,88.0 "/>
                    </g>
                </g>
                <g fill="none" stroke="black" stroke-width="1" fill-rule="evenodd" stroke-linecap="square" stroke-linejoin="bevel" id="LabelItem_1">
                    <g fill="none" stroke="black" stroke-width="1" fill-rule="evenodd" stroke-linecap="square" stroke-linejoin="bevel" id="QGraphicsTextItem_1">
                        


                        


                        


                        <g fill="none" stroke="#232323" stroke-opacity="1" stroke-width="1" stroke-linecap="square" stroke-linejoin="bevel" transform="matrix(1,0,0,1,116,70)" font-family="Segoe UI" font-size="12" font-weight="400" font-style="normal">
                            <text fill="#232323" fill-opacity="1" stroke="none" xml:space="preserve" x="4" y="21.2656" font-family="&quot;Segoe UI&quot;" font-size="16" font-weight="400" font-style="normal">  </text>
                            <text fill="#232323" fill-opacity="1" stroke="none" xml:space="preserve" x="122.938" y="21.2656" font-family="&quot;Segoe UI&quot;" font-size="16" font-weight="400" font-style="normal">n(t)</text>
                        </g>
                        


                        

                    </g>
                </g>
                <g fill="none" stroke="black" stroke-width="1" fill-rule="evenodd" stroke-linecap="square" stroke-linejoin="bevel" id="ItemSample_2">
                    <g fill="none" stroke="#ff0000" stroke-opacity="1" stroke-dasharray="4,2" stroke-dashoffset="0" stroke-width="1" stroke-linecap="square" stroke-linejoin="bevel" font-family="Segoe UI" font-size="12" font-weight="400" font-style="normal">
                        <polyline fill="none" vector-effect="non-scaling-stroke" points="91.0,111.0 111.0,111.0"/>
                    </g>
                </g>
                <g fill="none" stroke="black" stroke-width="1" fill-rule="evenodd" stroke-linecap="square" stroke-linejoin="bevel" id="LabelItem_2">
                    <g fill="none" stroke="black" stroke-width="1" fill-rule="evenodd" stroke-linecap="square" stroke-linejoin="bevel" id="QGraphicsTextItem_2">
                        


                        


                        


                        <g fill="none" stroke="#232323" stroke-opacity="1" stroke-width="1" stroke-linecap="square" stroke-linejoin="bevel" transform="matrix(1,0,0,1,116,100)" font-family="Segoe UI" font-size="12" font-weight="400" font-style="normal">
                            <text fill="#232323" fill-opacity="1" stroke="none" xml:space="preserve" x="4" y="21.2656" font-family="&quot;Segoe UI&quot;" font-size="16" font-weight="400" font-style="normal"></text>
                        </g>
                        


                        

                    </g>
                </g>
                <g fill="none" stroke="black" stroke-width="1" fill-rule="evenodd" stroke-linecap="square" stroke-linejoin="bevel" id="ItemSample_3">
                    <g fill="none" stroke="#008000" stroke-opacity="1" stroke-dasharray="4,2" stroke-dashoffset="0" stroke-width="1" stroke-linecap="square" stroke-linejoin="bevel" font-family="Segoe UI" font-size="12" font-weight="400" font-style="normal">
                        <polyline fill="none" vector-effect="non-scaling-stroke" points="91.0,141.0 111.0,141.0"/>
                    </g>
                </g>
                <g fill="none" stroke="black" stroke-width="1" fill-rule="evenodd" stroke-linecap="square" stroke-linejoin="bevel" id="LabelItem_3">
                    <g fill="none" stroke="black" stroke-width="1" fill-rule="evenodd" stroke-linecap="square" stroke-linejoin="bevel" id="QGraphicsTextItem_3">
                        


                        


                        


                        <g fill="none" stroke="#232323" stroke-opacity="1" stroke-width="1" stroke-linecap="square" stroke-linejoin="bevel" transform="matrix(1,0,0,1,116,130)" font-family="Segoe UI" font-size="12" font-weight="400" font-style="normal">
                            <text fill="#232323" fill-opacity="1" stroke="none" xml:space="preserve" x="4" y="21.2656" font-family="&quot;Segoe UI&quot;" font-size="16" font-weight="400" font-style="normal">  </text>
                            <text fill="#232323" fill-opacity="1" stroke="none" xml:space="preserve" x="132.297" y="21.2656" font-family="&quot;Segoe UI&quot;" font-size="16" font-weight="400" font-style="normal"></text>
                            <text fill="#232323" fill-opacity="1" stroke="none" xml:space="preserve" x="137.563" y="21.2656" font-family="&quot;Segoe UI&quot;" font-size="16" font-weight="400" font-style="normal">n</text>
                            <text fill="#232323" fill-opacity="1" stroke="none" xml:space="preserve" x="146.609" y="21.2656" font-family="&quot;Segoe UI&quot;" font-size="16" font-weight="400" font-style="normal"></text>
                            <text fill="#232323" fill-opacity="1" stroke="none" xml:space="preserve" x="151.875" y="21.2656" font-family="&quot;Segoe UI&quot;" font-size="16" font-weight="400" font-style="normal"> + </text>
                            <text fill="#232323" fill-opacity="1" stroke="none" xml:space="preserve" x="171.563" y="21.2656" font-family="&quot;Segoe UI&quot;" font-size="16" font-weight="400" font-style="normal"></text>
                            <text fill="#232323" fill-opacity="1" stroke="none" xml:space="preserve" x="180.75" y="23.5469" font-family="&quot;Segoe UI&quot;" font-size="10.6667" font-weight="400" font-style="normal">n</text>
                        </g>
                        


                        

                    </g>
                </g>
                <g fill="none" stroke="black" stroke-width="1" fill-rule="evenodd" stroke-linecap="square" stroke-linejoin="bevel" id="ItemSample_4">
                    <g fill="none" stroke="#008000" stroke-opacity="1" stroke-dasharray="4,2" stroke-dashoffset="0" stroke-width="1" stroke-linecap="square" stroke-linejoin="bevel" font-family="Segoe UI" font-size="12" font-weight="400" font-style="normal">
                        <polyline fill="none" vector-effect="non-scaling-stroke" points="91.0,171.0 111.0,171.0"/>
                    </g>
                </g>
                <g fill="none" stroke="black" stroke-width="1" fill-rule="evenodd" stroke-linecap="square" stroke-linejoin="bevel" id="LabelItem_4">
                    <g fill="none" stroke="black" stroke-width="1" fill-rule="evenodd" stroke-linecap="square" stroke-linejoin="bevel" id="QGraphicsTextItem_4">
                        


                        


                        


                        <g fill="none" stroke="#232323" stroke-opacity="1" stroke-width="1" stroke-linecap="square" stroke-linejoin="bevel" transform="matrix(1,0,0,1,116,160)" font-family="Segoe UI" font-size="12" font-weight="400" font-style="normal">
                            <text fill="#232323" fill-opacity="1" stroke="none" xml:space="preserve" x="4" y="21.2656" font-family="&quot;Segoe UI&quot;" font-size="16" font-weight="400" font-style="normal">  </text>
                            <text fill="#232323" fill-opacity="1" stroke="none" xml:space="preserve" x="130.609" y="21.2656" font-family="&quot;Segoe UI&quot;" font-size="16" font-weight="400" font-style="normal"></text>
                            <text fill="#232323" fill-opacity="1" stroke="none" xml:space="preserve" x="135.875" y="21.2656" font-family="&quot;Segoe UI&quot;" font-size="16" font-weight="400" font-style="normal">n</text>
                            <text fill="#232323" fill-opacity="1" stroke="none" xml:space="preserve" x="144.922" y="21.2656" font-family="&quot;Segoe UI&quot;" font-size="16" font-weight="400" font-style="normal"></text>
                            <text fill="#232323" fill-opacity="1" stroke="none" xml:space="preserve" x="150.188" y="21.2656" font-family="&quot;Segoe UI&quot;" font-size="16" font-weight="400" font-style="normal"> - </text>
                            <text fill="#232323" fill-opacity="1" stroke="none" xml:space="preserve" x="165.328" y="21.2656" font-family="&quot;Segoe UI&quot;" font-size="16" font-weight="400" font-style="normal"></text>
                            <text fill="#232323" fill-opacity="1" stroke="none" xml:space="preserve" x="174.516" y="23.5469" font-family="&quot;Segoe UI&quot;" font-size="10.6667" font-weight="400" font-style="normal">n</text>
                        </g>
                        


                        

                    </g>
                </g>
            </g>
            <g fill="none" stroke="black" stroke-width="1" fill-rule="evenodd" stroke-linecap="square" stroke-linejoin="bevel" id="QGraphicsRectItem_1">
                <g fill="none" stroke="none" transform="matrix(1,0,0,1,52,31)" font-family="Segoe UI" font-size="12" font-weight="400" font-style="normal">
                    <rect vector-effect="non-scaling-stroke" x="0" y="0" width="1465" height="582"/>
                </g>
            </g>
        </g>
    </g>
    <g fill="none" stroke="black" stroke-width="1" fill-rule="evenodd" stroke-linecap="square" stroke-linejoin="bevel" id="LabelItem_5">
        <g fill="none" stroke="black" stroke-width="1" fill-rule="evenodd" stroke-linecap="square" stroke-linejoin="bevel" id="QGraphicsTextItem_5">
            


            


            


            


            

        </g>
    </g>
    <g fill="none" stroke="black" stroke-width="1" fill-rule="evenodd" stroke-linecap="square" stroke-linejoin="bevel" id="AxisItem_1">
        <g fill="none" stroke="#969696" stroke-opacity="1" stroke-width="1" stroke-linecap="square" stroke-linejoin="bevel" font-family="Segoe UI" font-size="12" font-weight="400" font-style="normal">
            <polyline fill="none" vector-effect="non-scaling-stroke" points="51.0,614.0 1518.0,614.0"/>
        </g>
        <g fill="none" stroke="#969696" stroke-opacity="0.298039" stroke-width="1" stroke-linecap="square" stroke-linejoin="bevel" font-family="Segoe UI" font-size="12" font-weight="400" font-style="normal">
            <polyline fill="none" vector-effect="non-scaling-stroke" points="89.0461,31.0 89.0461,613.0"/>
            <polyline fill="none" vector-effect="non-scaling-stroke" points="263.783,31.0 263.783,613.0"/>
            <polyline fill="none" vector-effect="non-scaling-stroke" points="438.52,31.0 438.52,613.0"/>
            <polyline fill="none" vector-effect="non-scaling-stroke" points="613.258,31.0 613.258,613.0"/>
            <polyline fill="none" vector-effect="non-scaling-stroke" points="787.995,31.0 787.995,613.0"/>
            <polyline fill="none" vector-effect="non-scaling-stroke" points="962.732,31.0 962.732,613.0"/>
            <polyline fill="none" vector-effect="non-scaling-stroke" points="1137.47,31.0 1137.47,613.0"/>
            <polyline fill="none" vector-effect="non-scaling-stroke" points="1312.21,31.0 1312.21,613.0"/>
            <polyline fill="none" vector-effect="non-scaling-stroke" points="1486.94,31.0 1486.94,613.0"/>
        </g>
        <g fill="none" stroke="#969696" stroke-opacity="0.14902" stroke-width="1" stroke-linecap="square" stroke-linejoin="bevel" font-family="Segoe UI" font-size="12" font-weight="400" font-style="normal">
            <polyline fill="none" vector-effect="non-scaling-stroke" points="54.09863,31.0 54.09863,613.0"/>
            <polyline fill="none" vector-effect="non-scaling-stroke" points="123.9935,31.0 123.9935,613.0"/>
            <polyline fill="none" vector-effect="non-scaling-stroke" points="158.941,31.0 158.941,613.0"/>
            <polyline fill="none" vector-effect="non-scaling-stroke" points="193.888,31.0 193.888,613.0"/>
            <polyline fill="none" vector-effect="non-scaling-stroke" points="228.836,31.0 228.836,613.0"/>
            <polyline fill="none" vector-effect="non-scaling-stroke" points="298.731,31.0 298.731,613.0"/>
            <polyline fill="none" vector-effect="non-scaling-stroke" points="333.678,31.0 333.678,613.0"/>
            <polyline fill="none" vector-effect="non-scaling-stroke" points="368.626,31.0 368.626,613.0"/>
            <polyline fill="none" vector-effect="non-scaling-stroke" points="403.573,31.0 403.573,613.0"/>
            <polyline fill="none" vector-effect="non-scaling-stroke" points="473.468,31.0 473.468,613.0"/>
            <polyline fill="none" vector-effect="non-scaling-stroke" points="508.415,31.0 508.415,613.0"/>
            <polyline fill="none" vector-effect="non-scaling-stroke" points="543.363,31.0 543.363,613.0"/>
            <polyline fill="none" vector-effect="non-scaling-stroke" points="578.31,31.0 578.31,613.0"/>
            <polyline fill="none" vector-effect="non-scaling-stroke" points="648.205,31.0 648.205,613.0"/>
            <polyline fill="none" vector-effect="non-scaling-stroke" points="683.152,31.0 683.152,613.0"/>
            <polyline fill="none" vector-effect="non-scaling-stroke" points="718.1,31.0 718.1,613.0"/>
            <polyline fill="none" vector-effect="non-scaling-stroke" points="753.047,31.0 753.047,613.0"/>
            <polyline fill="none" vector-effect="non-scaling-stroke" points="822.942,31.0 822.942,613.0"/>
            <polyline fill="none" vector-effect="non-scaling-stroke" points="857.89,31.0 857.89,613.0"/>
            <polyline fill="none" vector-effect="non-scaling-stroke" points="892.837,31.0 892.837,613.0"/>
            <polyline fill="none" vector-effect="non-scaling-stroke" points="927.784,31.0 927.784,613.0"/>
            <polyline fill="none" vector-effect="non-scaling-stroke" points="997.679,31.0 997.679,613.0"/>
            <polyline fill="none" vector-effect="non-scaling-stroke" points="1032.627,31.0 1032.627,613.0"/>
            <polyline fill="none" vector-effect="non-scaling-stroke" points="1067.5700000000002,31.0 1067.5700000000002,613.0"/>
            <polyline fill="none" vector-effect="non-scaling-stroke" points="1102.52,31.0 1102.52,613.0"/>
            <polyline fill="none" vector-effect="non-scaling-stroke" points="1172.42,31.0 1172.42,613.0"/>
            <polyline fill="none" vector-effect="non-scaling-stroke" points="1207.36,31.0 1207.36,613.0"/>
            <polyline fill="none" vector-effect="non-scaling-stroke" points="1242.31,31.0 1242.31,613.0"/>
            <polyline fill="none" vector-effect="non-scaling-stroke" points="1277.26,31.0 1277.26,613.0"/>
            <polyline fill="none" vector-effect="non-scaling-stroke" points="1347.15,31.0 1347.15,613.0"/>
            <polyline fill="none" vector-effect="non-scaling-stroke" points="1382.1,31.0 1382.1,613.0"/>
            <polyline fill="none" vector-effect="non-scaling-stroke" points="1417.05,31.0 1417.05,613.0"/>
            <polyline fill="none" vector-effect="non-scaling-stroke" points="1452.0,31.0 1452.0,613.0"/>
        </g>
        <g fill="none" stroke="#969696" stroke-opacity="0.0980392" stroke-width="1" stroke-linecap="square" stroke-linejoin="bevel" font-family="Segoe UI" font-size="12" font-weight="400" font-style="normal">
            <polyline fill="none" vector-effect="non-scaling-stroke" points="71.5724,31.0 71.5724,613.0"/>
            <polyline fill="none" vector-effect="non-scaling-stroke" points="106.5198,31.0 106.5198,613.0"/>
            <polyline fill="none" vector-effect="non-scaling-stroke" points="141.4672,31.0 141.4672,613.0"/>
            <polyline fill="none" vector-effect="non-scaling-stroke" points="176.41500000000002,31.0 176.41500000000002,613.0"/>
            <polyline fill="none" vector-effect="non-scaling-stroke" points="211.362,31.0 211.362,613.0"/>
            <polyline fill="none" vector-effect="non-scaling-stroke" points="246.31,31.0 246.31,613.0"/>
            <polyline fill="none" vector-effect="non-scaling-stroke" points="281.257,31.0 281.257,613.0"/>
            <polyline fill="none" vector-effect="non-scaling-stroke" points="316.204,31.0 316.204,613.0"/>
            <polyline fill="none" vector-effect="non-scaling-stroke" points="351.152,31.0 351.152,613.0"/>
            <polyline fill="none" vector-effect="non-scaling-stroke" points="386.099,31.0 386.099,613.0"/>
            <polyline fill="none" vector-effect="non-scaling-stroke" points="421.047,31.0 421.047,613.0"/>
            <polyline fill="none" vector-effect="non-scaling-stroke" points="455.994,31.0 455.994,613.0"/>
            <polyline fill="none" vector-effect="non-scaling-stroke" points="490.942,31.0 490.942,613.0"/>
            <polyline fill="none" vector-effect="non-scaling-stroke" points="525.889,31.0 525.889,613.0"/>
            <polyline fill="none" vector-effect="non-scaling-stroke" points="560.836,31.0 560.836,613.0"/>
            <polyline fill="none" vector-effect="non-scaling-stroke" points="595.784,31.0 595.784,613.0"/>
            <polyline fill="none" vector-effect="non-scaling-stroke" points="630.731,31.0 630.731,613.0"/>
            <polyline fill="none" vector-effect="non-scaling-stroke" points="665.679,31.0 665.679,613.0"/>
            <polyline fill="none" vector-effect="non-scaling-stroke" points="700.626,31.0 700.626,613.0"/>
            <polyline fill="none" vector-effect="non-scaling-stroke" points="735.574,31.0 735.574,613.0"/>
            <polyline fill="none" vector-effect="non-scaling-stroke" points="770.521,31.0 770.521,613.0"/>
            <polyline fill="none" vector-effect="non-scaling-stroke" points="805.468,31.0 805.468,613.0"/>
            <polyline fill="none" vector-effect="non-scaling-stroke" points="840.416,31.0 840.416,613.0"/>
            <polyline fill="none" vector-effect="non-scaling-stroke" points="875.363,31.0 875.363,613.0"/>
            <polyline fill="none" vector-effect="non-scaling-stroke" points="910.311,31.0 910.311,613.0"/>
            <polyline fill="none" vector-effect="non-scaling-stroke" points="945.258,31.0 945.258,613.0"/>
            <polyline fill="none" vector-effect="non-scaling-stroke" points="980.206,31.0 980.206,613.0"/>
            <polyline fill="none" vector-effect="non-scaling-stroke" points="1015.153,31.0 1015.153,613.0"/>
            <polyline fill="none" vector-effect="non-scaling-stroke" points="1050.1,31.0 1050.1,613.0"/>
            <polyline fill="none" vector-effect="non-scaling-stroke" points="1085.05,31.0 1085.05,613.0"/>
            <polyline fill="none" vector-effect="non-scaling-stroke" points="1120.0,31.0 1120.0,613.0"/>
            <polyline fill="none" vector-effect="non-scaling-stroke" points="1154.94,31.0 1154.94,613.0"/>
            <polyline fill="none" vector-effect="non-scaling-stroke" points="1189.89,31.0 1189.89,613.0"/>
            <polyline fill="none" vector-effect="non-scaling-stroke" points="1224.84,31.0 1224.84,613.0"/>
            <polyline fill="none" vector-effect="non-scaling-stroke" points="1259.79,31.0 1259.79,613.0"/>
            <polyline fill="none" vector-effect="non-scaling-stroke" points="1294.73,31.0 1294.73,613.0"/>
            <polyline fill="none" vector-effect="non-scaling-stroke" points="1329.68,31.0 1329.68,613.0"/>
            <polyline fill="none" vector-effect="non-scaling-stroke" points="1364.63,31.0 1364.63,613.0"/>
            <polyline fill="none" vector-effect="non-scaling-stroke" points="1399.57,31.0 1399.57,613.0"/>
            <polyline fill="none" vector-effect="non-scaling-stroke" points="1434.52,31.0 1434.52,613.0"/>
            <polyline fill="none" vector-effect="non-scaling-stroke" points="1469.47,31.0 1469.47,613.0"/>
            <polyline fill="none" vector-effect="non-scaling-stroke" points="1504.42,31.0 1504.42,613.0"/>
        </g>
        <g fill="none" stroke="#969696" stroke-opacity="1" stroke-width="1" stroke-linecap="square" stroke-linejoin="bevel" transform="matrix(1,0,0,1,52,613)" font-family="Segoe UI" font-size="12" font-weight="400" font-style="normal">
            <text fill="#969696" fill-opacity="1" stroke="none" xml:space="preserve" x="33.7969" y="14.9063" font-family="&quot;Segoe UI&quot;" font-size="12" font-weight="400" font-style="normal">0</text>
            <text fill="#969696" fill-opacity="1" stroke="none" xml:space="preserve" x="202.078" y="14.9063" font-family="&quot;Segoe UI&quot;" font-size="12" font-weight="400" font-style="normal">500</text>
            <text fill="#969696" fill-opacity="1" stroke="none" xml:space="preserve" x="373.578" y="14.9063" font-family="&quot;Segoe UI&quot;" font-size="12" font-weight="400" font-style="normal">1000</text>
            <text fill="#969696" fill-opacity="1" stroke="none" xml:space="preserve" x="548.313" y="14.9063" font-family="&quot;Segoe UI&quot;" font-size="12" font-weight="400" font-style="normal">1500</text>
            <text fill="#969696" fill-opacity="1" stroke="none" xml:space="preserve" x="723.047" y="14.9063" font-family="&quot;Segoe UI&quot;" font-size="12" font-weight="400" font-style="normal">2000</text>
            <text fill="#969696" fill-opacity="1" stroke="none" xml:space="preserve" x="897.781" y="14.9063" font-family="&quot;Segoe UI&quot;" font-size="12" font-weight="400" font-style="normal">2500</text>
            <text fill="#969696" fill-opacity="1" stroke="none" xml:space="preserve" x="1072.53" y="14.9063" font-family="&quot;Segoe UI&quot;" font-size="12" font-weight="400" font-style="normal">3000</text>
            <text fill="#969696" fill-opacity="1" stroke="none" xml:space="preserve" x="1247.27" y="14.9063" font-family="&quot;Segoe UI&quot;" font-size="12" font-weight="400" font-style="normal">3500</text>
            <text fill="#969696" fill-opacity="1" stroke="none" xml:space="preserve" x="1422" y="14.9063" font-family="&quot;Segoe UI&quot;" font-size="12" font-weight="400" font-style="normal">4000</text>
        </g>
        <g fill="none" stroke="black" stroke-width="1" fill-rule="evenodd" stroke-linecap="square" stroke-linejoin="bevel" id="QGraphicsTextItem_6">
            


            


            


            <g fill="none" stroke="#232323" stroke-opacity="1" stroke-width="1" stroke-linecap="square" stroke-linejoin="bevel" transform="matrix(1,0,0,1,721,632)" font-family="Segoe UI" font-size="12" font-weight="400" font-style="normal">
                <text fill="#232323" fill-opacity="1" stroke="none" xml:space="preserve" x="4" y="21.2656" font-family="&quot;Segoe UI&quot;" font-size="16" font-weight="400" font-style="normal">,  </text>
            </g>
            


            

        </g>
    </g>
    <g fill="none" stroke="black" stroke-width="1" fill-rule="evenodd" stroke-linecap="square" stroke-linejoin="bevel" id="AxisItem_2">
        <g fill="none" stroke="#969696" stroke-opacity="1" stroke-width="1" stroke-linecap="square" stroke-linejoin="bevel" font-family="Segoe UI" font-size="12" font-weight="400" font-style="normal">
            <polyline fill="none" vector-effect="non-scaling-stroke" points="51.0,30.0 51.0,614.0"/>
        </g>
        <g fill="none" stroke="#969696" stroke-opacity="0.298039" stroke-width="1" stroke-linecap="square" stroke-linejoin="bevel" font-family="Segoe UI" font-size="12" font-weight="400" font-style="normal">
            <polyline fill="none" vector-effect="non-scaling-stroke" points="1517.5,590.071 52.0,590.071"/>
            <polyline fill="none" vector-effect="non-scaling-stroke" points="1517.5,432.382 52.0,432.382"/>
            <polyline fill="none" vector-effect="non-scaling-stroke" points="1517.5,274.693 52.0,274.693"/>
            <polyline fill="none" vector-effect="non-scaling-stroke" points="1517.5,117.0047 52.0,117.0047"/>
        </g>
        <g fill="none" stroke="#969696" stroke-opacity="0.14902" stroke-width="1" stroke-linecap="square" stroke-linejoin="bevel" font-family="Segoe UI" font-size="12" font-weight="400" font-style="normal">
            <polyline fill="none" vector-effect="non-scaling-stroke" points="1517.5,511.226 52.0,511.226"/>
            <polyline fill="none" vector-effect="non-scaling-stroke" points="1517.5,353.538 52.0,353.538"/>
            <polyline fill="none" vector-effect="non-scaling-stroke" points="1517.5,195.849 52.0,195.849"/>
            <polyline fill="none" vector-effect="non-scaling-stroke" points="1517.5,38.1604 52.0,38.1604"/>
        </g>
        <g fill="none" stroke="#969696" stroke-opacity="0.0941176" stroke-width="1" stroke-linecap="square" stroke-linejoin="bevel" font-family="Segoe UI" font-size="12" font-weight="400" font-style="normal">
            <polyline fill="none" vector-effect="non-scaling-stroke" points="1517.5,605.84 52.0,605.84"/>
            <polyline fill="none" vector-effect="non-scaling-stroke" points="1517.5,574.302 52.0,574.302"/>
            <polyline fill="none" vector-effect="non-scaling-stroke" points="1517.5,558.533 52.0,558.533"/>
            <polyline fill="none" vector-effect="non-scaling-stroke" points="1517.5,542.764 52.0,542.764"/>
            <polyline fill="none" vector-effect="non-scaling-stroke" points="1517.5,526.995 52.0,526.995"/>
            <polyline fill="none" vector-effect="non-scaling-stroke" points="1517.5,495.458 52.0,495.458"/>
            <polyline fill="none" vector-effect="non-scaling-stroke" points="1517.5,479.689 52.0,479.689"/>
            <polyline fill="none" vector-effect="non-scaling-stroke" points="1517.5,463.92 52.0,463.92"/>
            <polyline fill="none" vector-effect="non-scaling-stroke" points="1517.5,448.151 52.0,448.151"/>
            <polyline fill="none" vector-effect="non-scaling-stroke" points="1517.5,416.613 52.0,416.613"/>
            <polyline fill="none" vector-effect="non-scaling-stroke" points="1517.5,400.844 52.0,400.844"/>
            <polyline fill="none" vector-effect="non-scaling-stroke" points="1517.5,385.075 52.0,385.075"/>
            <polyline fill="none" vector-effect="non-scaling-stroke" points="1517.5,369.307 52.0,369.307"/>
            <polyline fill="none" vector-effect="non-scaling-stroke" points="1517.5,337.769 52.0,337.769"/>
            <polyline fill="none" vector-effect="non-scaling-stroke" points="1517.5,322.0 52.0,322.0"/>
            <polyline fill="none" vector-effect="non-scaling-stroke" points="1517.5,306.231 52.0,306.231"/>
            <polyline fill="none" vector-effect="non-scaling-stroke" points="1517.5,290.462 52.0,290.462"/>
            <polyline fill="none" vector-effect="non-scaling-stroke" points="1517.5,258.925 52.0,258.925"/>
            <polyline fill="none" vector-effect="non-scaling-stroke" points="1517.5,243.156 52.0,243.156"/>
            <polyline fill="none" vector-effect="non-scaling-stroke" points="1517.5,227.387 52.0,227.387"/>
            <polyline fill="none" vector-effect="non-scaling-stroke" points="1517.5,211.618 52.0,211.618"/>
            <polyline fill="none" vector-effect="non-scaling-stroke" points="1517.5,180.08 52.0,180.08"/>
            <polyline fill="none" vector-effect="non-scaling-stroke" points="1517.5,164.311 52.0,164.311"/>
            <polyline fill="none" vector-effect="non-scaling-stroke" points="1517.5,148.542 52.0,148.542"/>
            <polyline fill="none" vector-effect="non-scaling-stroke" points="1517.5,132.774 52.0,132.774"/>
            <polyline fill="none" vector-effect="non-scaling-stroke" points="1517.5,101.2359 52.0,101.2359"/>
            <polyline fill="none" vector-effect="non-scaling-stroke" points="1517.5,85.467 52.0,85.467"/>
            <polyline fill="none" vector-effect="non-scaling-stroke" points="1517.5,69.6981 52.0,69.6981"/>
            <polyline fill="none" vector-effect="non-scaling-stroke" points="1517.5,53.9293 52.0,53.9293"/>
        </g>
        <g fill="none" stroke="#969696" stroke-opacity="1" stroke-width="1" stroke-linecap="square" stroke-linejoin="bevel" transform="matrix(1,0,0,1,1,31)" font-family="Segoe UI" font-size="12" font-weight="400" font-style="normal">
            <text fill="#969696" fill-opacity="1" stroke="none" xml:space="preserve" x="39.5313" y="563.984" font-family="&quot;Segoe UI&quot;" font-size="12" font-weight="400" font-style="normal">0</text>
            <text fill="#969696" fill-opacity="1" stroke="none" xml:space="preserve" x="33.0625" y="406.297" font-family="&quot;Segoe UI&quot;" font-size="12" font-weight="400" font-style="normal">10</text>
            <text fill="#969696" fill-opacity="1" stroke="none" xml:space="preserve" x="33.0625" y="248.609" font-family="&quot;Segoe UI&quot;" font-size="12" font-weight="400" font-style="normal">20</text>
            <text fill="#969696" fill-opacity="1" stroke="none" xml:space="preserve" x="33.0625" y="90.9219" font-family="&quot;Segoe UI&quot;" font-size="12" font-weight="400" font-style="normal">30</text>
            <text fill="#969696" fill-opacity="1" stroke="none" xml:space="preserve" x="39.5313" y="485.141" font-family="&quot;Segoe UI&quot;" font-size="12" font-weight="400" font-style="normal">5</text>
            <text fill="#969696" fill-opacity="1" stroke="none" xml:space="preserve" x="33.0625" y="327.453" font-family="&quot;Segoe UI&quot;" font-size="12" font-weight="400" font-style="normal">15</text>
            <text fill="#969696" fill-opacity="1" stroke="none" xml:space="preserve" x="33.0625" y="169.766" font-family="&quot;Segoe UI&quot;" font-size="12" font-weight="400" font-style="normal">25</text>
            <text fill="#969696" fill-opacity="1" stroke="none" xml:space="preserve" x="33.0625" y="12.0938" font-family="&quot;Segoe UI&quot;" font-size="12" font-weight="400" font-style="normal">35</text>
        </g>
        <g fill="none" stroke="black" stroke-width="1" fill-rule="evenodd" stroke-linecap="square" stroke-linejoin="bevel" id="QGraphicsTextItem_7">
            


            


            


            <g fill="none" stroke="#232323" stroke-opacity="1" stroke-width="1" stroke-linecap="square" stroke-linejoin="bevel" transform="matrix(0,-1,1,0,-4,377)" font-family="Segoe UI" font-size="12" font-weight="400" font-style="normal">
                <text fill="#232323" fill-opacity="1" stroke="none" xml:space="preserve" x="4" y="21.2656" font-family="&quot;Segoe UI&quot;" font-size="16" font-weight="400" font-style="normal">n </text>
            </g>
            


            

        </g>
    </g>
</g>

</svg>
