<?xml version="1.0" encoding="UTF-8" standalone="no"?>
<svg xmlns="http://www.w3.org/2000/svg" xmlns:xlink="http://www.w3.org/1999/xlink"  version="1.2" baseProfile="tiny" viewBox ="0 0 1518 658">
<title>pyqtgraph SVG export</title>
<desc>Generated with Qt and pyqtgraph</desc>
<style>
    image {
        image-rendering: crisp-edges;
        image-rendering: -moz-crisp-edges;
        image-rendering: pixelated;
    }
</style>
<rect width="100%" height="100%" fill="#ffffff" fill-opacity="1.0" />
<defs>
</defs>
<g fill="none" stroke="black" stroke-width="1" fill-rule="evenodd" stroke-linecap="square" stroke-linejoin="bevel" id="PlotItem_1">
    <g fill="none" stroke="black" stroke-width="1" fill-rule="evenodd" stroke-linecap="square" stroke-linejoin="bevel" id="ViewBox_1">
        <g fill="none" stroke="none" font-family="Segoe UI" font-size="12" font-weight="400" font-style="normal">
            <path vector-effect="non-scaling-stroke" fill-rule="evenodd" d="M52.0,31.0 L1517.5,31.0 L1517.5,613.5 L52.0,613.5 L52.0,31.0 "/>
        </g>
        <clipPath id="ViewBox_1_clip">
            <path vector-effect="none" fill-rule="evenodd" d="M52.0,31.0 L1517.5,31.0 L1517.5,613.5 L52.0,613.5 L52.0,31.0 " stroke-width="1.0"/>
        </clipPath>
        <g clip-path="url(#ViewBox_1_clip)">
            <g fill="none" stroke="black" stroke-width="1" fill-rule="evenodd" stroke-linecap="square" stroke-linejoin="bevel" id="ChildGroup_1">
                <g fill="none" stroke="black" stroke-width="1" fill-rule="evenodd" stroke-linecap="square" stroke-linejoin="bevel" id="FillBetweenItem_1">
                    <g fill="#ffff00" fill-opacity="0.196078" stroke="none" font-family="Segoe UI" font-size="12" font-weight="400" font-style="normal">
                        <path vector-effect="non-scaling-stroke" fill-rule="evenodd" d="M118.71629999999999,138.44618039999978 L147.04749999999999,175.97197293 L175.37869999999998,94.51133318999973 L203.7099,53.932170269999915 L232.0411,249.52926357000024 L260.3723,227.31782945999976 L288.70349999999996,254.03805945000022 L317.0347,307.7894708699996 L345.3659,299.81702144999963 L373.6971,292.59171923999975 L402.02829999999994,327.56079993000003 L430.3595,360.04658787000017 L458.6907,311.58135092999964 L487.02189999999996,294.98863659000017 L515.3530999999999,304.60653737999974 L543.6843,295.76169642000013 L572.0155,328.98599403000026 L600.3466999999999,292.33259303999967 L628.6778999999999,296.58226271999956 L657.0091,283.4143329900003 L685.3403,286.49361599999975 L713.6714999999999,234.8670394200003 L742.0026999999999,311.98731530999976 L770.3339,306.45497093999984 L798.6650999999999,296.4872497800002 L826.9962999999999,310.6873655399995 L855.3275,326.65385822999997 L883.6587,305.53075415999956 L911.9898999999999,314.7210967199999 L940.3210999999999,313.6025352900001 L968.6523,317.6578603199996 L996.9834999999999,337.07936900999994 L1025.3147,346.5245189999996 L1053.6459,330.89057159999993 L1081.9771,348.38590886999964 L1110.3083,343.0004026800002 L1138.6395,341.13037527000006 L1166.9706999999999,349.3662696599995 L1195.3019,344.7581420700003 L1223.6331,335.79669431999946 L1251.9642999999999,334.35422513999947 L1280.2955,330.8257900499998 L1308.6267,325.7944229999998 L1336.9578999999999,327.34918019999986 L1365.2891,335.75782538999965 L1393.6202999999998,332.75196146999997 L1421.9515,309.0764643299999 L1450.2827,314.0646436799998 L1450.2827,449.4408080999997 L1421.9515,445.94692316999954 L1393.6202999999998,472.23527615999956 L1365.2891,468.7888976999998 L1336.9578999999999,463.30405980000023 L1308.6267,464.0771196300002 L1280.2955,472.28278262999993 L1251.9642999999999,478.51044896999974 L1223.6331,483.0840264000003 L1195.3019,495.56095293 L1166.9706999999999,502.41484091999973 L1138.6395,497.7117003899998 L1110.3083,503.20949459999974 L1081.9771,512.81012031 L1053.6459,499.24486374000026 L1025.3147,516.7877074799999 L996.9834999999999,509.0657467199999 L968.6523,494.04938343000003 L940.3210999999999,492.09729939 L911.9898999999999,498.9641436900001 L883.6587,495.8416729800001 L855.3275,523.2313123199997 L826.9962999999999,508.1156173200002 L798.6650999999999,498.8173055100001 L770.3339,515.2934130599997 L742.0026999999999,527.6105450999999 L713.6714999999999,458.8945956299999 L685.3403,464.11598856 L657.0091,459.5251360500001 L628.6778999999999,481.1146672799996 L600.3466999999999,482.86376913000004 L572.0155,529.8044802600002 L543.6843,488.79344033999996 L515.3530999999999,493.6045501200001 L487.02189999999996,495.6646034099999 L458.6907,525.9607749599995 L430.3595,584.7521909699994 L402.02829999999994,540.8303000699998 L373.6971,509.05279040999994 L345.3659,525.3863785500002 L317.0347,555.8034756599995 L288.70349999999996,527.9776405499997 L260.3723,523.84889643 L232.0411,590.0729156100001 L203.7099,443.0447097299998 L175.37869999999998,320.40891680999994 L147.04749999999999,447.68738747999987 L118.71629999999999,384.4433196 "/>
                    </g>
                </g>
                <g id="PlotDataItem_1">
                    <g fill="none" stroke="black" stroke-width="1" fill-rule="evenodd" stroke-linecap="square" stroke-linejoin="bevel" id="PlotCurveItem_1">
                        <g fill="none" stroke="#ff0000" stroke-opacity="1" stroke-width="3" stroke-linecap="square" stroke-linejoin="bevel" font-family="Segoe UI" font-size="12" font-weight="400" font-style="normal">
                            <polyline fill="none" vector-effect="non-scaling-stroke" points="90.3851,67.10009999999966 118.71629999999999,261.44474999999966"/>
                            <polyline fill="none" vector-effect="non-scaling-stroke" points="118.71629999999999,261.44474999999966 147.04749999999999,311.8318395900001"/>
                            <polyline fill="none" vector-effect="non-scaling-stroke" points="147.04749999999999,311.8318395900001 175.37869999999998,207.46012500000006"/>
                            <polyline fill="none" vector-effect="non-scaling-stroke" points="175.37869999999998,207.46012500000006 203.7099,248.48844000000008"/>
                            <polyline fill="none" vector-effect="non-scaling-stroke" points="203.7099,248.48844000000008 232.0411,419.8010895900002"/>
                            <polyline fill="none" vector-effect="non-scaling-stroke" points="232.0411,419.8010895900002 260.3723,375.58552232999955"/>
                            <polyline fill="none" vector-effect="non-scaling-stroke" points="260.3723,375.58552232999955 288.70349999999996,391.00784999999996"/>
                            <polyline fill="none" vector-effect="non-scaling-stroke" points="288.70349999999996,391.00784999999996 317.0347,431.7943138800001"/>
                            <polyline fill="none" vector-effect="non-scaling-stroke" points="317.0347,431.7943138800001 345.3659,412.6016999999997"/>
                            <polyline fill="none" vector-effect="non-scaling-stroke" points="345.3659,412.6016999999997 373.6971,400.82441420999976"/>
                            <polyline fill="none" vector-effect="non-scaling-stroke" points="373.6971,400.82441420999976 402.02829999999994,434.1955499999999"/>
                            <polyline fill="none" vector-effect="non-scaling-stroke" points="402.02829999999994,434.1955499999999 430.3595,472.39938942000026"/>
                            <polyline fill="none" vector-effect="non-scaling-stroke" points="430.3595,472.39938942000026 458.6907,418.77322232999995"/>
                            <polyline fill="none" vector-effect="non-scaling-stroke" points="458.6907,418.77322232999995 487.02189999999996,395.3266199999998"/>
                            <polyline fill="none" vector-effect="non-scaling-stroke" points="487.02189999999996,395.3266199999998 515.3530999999999,399.1055437499999"/>
                            <polyline fill="none" vector-effect="non-scaling-stroke" points="515.3530999999999,399.1055437499999 543.6843,392.2775683799996"/>
                            <polyline fill="none" vector-effect="non-scaling-stroke" points="543.6843,392.2775683799996 572.0155,429.39739653000015"/>
                            <polyline fill="none" vector-effect="non-scaling-stroke" points="572.0155,429.39739653000015 600.3466999999999,387.60034046999954"/>
                            <polyline fill="none" vector-effect="non-scaling-stroke" points="600.3466999999999,387.60034046999954 628.6778999999999,388.84846500000003"/>
                            <polyline fill="none" vector-effect="non-scaling-stroke" points="628.6778999999999,388.84846500000003 657.0091,371.4697345200002"/>
                            <polyline fill="none" vector-effect="non-scaling-stroke" points="657.0091,371.4697345200002 685.3403,375.3048022799994"/>
                            <polyline fill="none" vector-effect="non-scaling-stroke" points="685.3403,375.3048022799994 713.6714999999999,346.88297691000025"/>
                            <polyline fill="none" vector-effect="non-scaling-stroke" points="713.6714999999999,346.88297691000025 742.0026999999999,419.8010895900002"/>
                            <polyline fill="none" vector-effect="non-scaling-stroke" points="742.0026999999999,419.8010895900002 770.3339,410.87419199999977"/>
                            <polyline fill="none" vector-effect="non-scaling-stroke" points="770.3339,410.87419199999977 798.6650999999999,397.65011826"/>
                            <polyline fill="none" vector-effect="non-scaling-stroke" points="798.6650999999999,397.65011826 826.9962999999999,409.4014914299996"/>
                            <polyline fill="none" vector-effect="non-scaling-stroke" points="826.9962999999999,409.4014914299996 855.3275,424.9404258899999"/>
                            <polyline fill="none" vector-effect="non-scaling-stroke" points="855.3275,424.9404258899999 883.6587,400.6862135700003"/>
                            <polyline fill="none" vector-effect="non-scaling-stroke" points="883.6587,400.6862135700003 911.9898999999999,406.8447795899997"/>
                            <polyline fill="none" vector-effect="non-scaling-stroke" points="911.9898999999999,406.8447795899997 940.3210999999999,402.8499173399996"/>
                            <polyline fill="none" vector-effect="non-scaling-stroke" points="940.3210999999999,402.8499173399996 968.6523,405.8514624899999"/>
                            <polyline fill="none" vector-effect="non-scaling-stroke" points="968.6523,405.8514624899999 996.9834999999999,423.0703984800002"/>
                            <polyline fill="none" vector-effect="non-scaling-stroke" points="996.9834999999999,423.0703984800002 1025.3147,431.65611323999974"/>
                            <polyline fill="none" vector-effect="non-scaling-stroke" points="1025.3147,431.65611323999974 1053.6459,415.0677176700001"/>
                            <polyline fill="none" vector-effect="non-scaling-stroke" points="1053.6459,415.0677176700001 1081.9771,430.5980145900003"/>
                            <polyline fill="none" vector-effect="non-scaling-stroke" points="1081.9771,430.5980145900003 1110.3083,423.10494863999975"/>
                            <polyline fill="none" vector-effect="non-scaling-stroke" points="1110.3083,423.10494863999975 1138.6395,419.42103782999993"/>
                            <polyline fill="none" vector-effect="non-scaling-stroke" points="1138.6395,419.42103782999993 1166.9706999999999,425.8905552899996"/>
                            <polyline fill="none" vector-effect="non-scaling-stroke" points="1166.9706999999999,425.8905552899996 1195.3019,420.1595474999999"/>
                            <polyline fill="none" vector-effect="non-scaling-stroke" points="1195.3019,420.1595474999999 1223.6331,409.4403603599999"/>
                            <polyline fill="none" vector-effect="non-scaling-stroke" points="1223.6331,409.4403603599999 1251.9642999999999,406.4301776699999"/>
                            <polyline fill="none" vector-effect="non-scaling-stroke" points="1251.9642999999999,406.4301776699999 1280.2955,401.5542863400001"/>
                            <polyline fill="none" vector-effect="non-scaling-stroke" points="1280.2955,401.5542863400001 1308.6267,394.9336119300001"/>
                            <polyline fill="none" vector-effect="non-scaling-stroke" points="1308.6267,394.9336119300001 1336.9578999999999,395.3266199999998"/>
                            <polyline fill="none" vector-effect="non-scaling-stroke" points="1336.9578999999999,395.3266199999998 1365.2891,402.2755209300003"/>
                            <polyline fill="none" vector-effect="non-scaling-stroke" points="1365.2891,402.2755209300003 1393.6202999999998,402.49577820000013"/>
                            <polyline fill="none" vector-effect="non-scaling-stroke" points="1393.6202999999998,402.49577820000013 1421.9515,377.5116937499997"/>
                            <polyline fill="none" vector-effect="non-scaling-stroke" points="1421.9515,377.5116937499997 1450.2827,381.75272588999997"/>
                            <polyline fill="none" vector-effect="non-scaling-stroke" points="1450.2827,381.75272588999997 1478.6138999999998,391.00784999999996"/>
                        </g>
                    </g>
                </g>
                <g id="PlotDataItem_2">
                    <g fill="none" stroke="black" stroke-width="1" fill-rule="evenodd" stroke-linecap="square" stroke-linejoin="bevel" id="PlotCurveItem_2">
                        <g fill="none" stroke="#ffa500" stroke-opacity="1" stroke-dasharray="4,2" stroke-dashoffset="0" stroke-width="1" stroke-linecap="square" stroke-linejoin="bevel" font-family="Segoe UI" font-size="12" font-weight="400" font-style="normal">
                            <path vector-effect="non-scaling-stroke" fill-rule="evenodd" d="M118.71629999999999,138.44618039999978 L147.04749999999999,175.97197293 L175.37869999999998,94.51133318999973 L203.7099,53.932170269999915 L232.0411,249.52926357000024 L260.3723,227.31782945999976 L288.70349999999996,254.03805945000022 L317.0347,307.7894708699996 L345.3659,299.81702144999963 L373.6971,292.59171923999975 L402.02829999999994,327.56079993000003 L430.3595,360.04658787000017 L458.6907,311.58135092999964 L487.02189999999996,294.98863659000017 L515.3530999999999,304.60653737999974 L543.6843,295.76169642000013 L572.0155,328.98599403000026 L600.3466999999999,292.33259303999967 L628.6778999999999,296.58226271999956 L657.0091,283.4143329900003 L685.3403,286.49361599999975 L713.6714999999999,234.8670394200003 L742.0026999999999,311.98731530999976 L770.3339,306.45497093999984 L798.6650999999999,296.4872497800002 L826.9962999999999,310.6873655399995 L855.3275,326.65385822999997 L883.6587,305.53075415999956 L911.9898999999999,314.7210967199999 L940.3210999999999,313.6025352900001 L968.6523,317.6578603199996 L996.9834999999999,337.07936900999994 L1025.3147,346.5245189999996 L1053.6459,330.89057159999993 L1081.9771,348.38590886999964 L1110.3083,343.0004026800002 L1138.6395,341.13037527000006 L1166.9706999999999,349.3662696599995 L1195.3019,344.7581420700003 L1223.6331,335.79669431999946 L1251.9642999999999,334.35422513999947 L1280.2955,330.8257900499998 L1308.6267,325.7944229999998 L1336.9578999999999,327.34918019999986 L1365.2891,335.75782538999965 L1393.6202999999998,332.75196146999997 L1421.9515,309.0764643299999 L1450.2827,314.0646436799998 "/>
                        </g>
                    </g>
                </g>
                <g id="PlotDataItem_3">
                    <g fill="none" stroke="black" stroke-width="1" fill-rule="evenodd" stroke-linecap="square" stroke-linejoin="bevel" id="PlotCurveItem_3">
                        <g fill="none" stroke="#ffa500" stroke-opacity="1" stroke-dasharray="4,2" stroke-dashoffset="0" stroke-width="1" stroke-linecap="square" stroke-linejoin="bevel" font-family="Segoe UI" font-size="12" font-weight="400" font-style="normal">
                            <path vector-effect="non-scaling-stroke" fill-rule="evenodd" d="M118.71629999999999,384.4433196 L147.04749999999999,447.68738747999987 L175.37869999999998,320.40891680999994 L203.7099,443.0447097299998 L232.0411,590.0729156100001 L260.3723,523.84889643 L288.70349999999996,527.9776405499997 L317.0347,555.8034756599995 L345.3659,525.3863785500002 L373.6971,509.05279040999994 L402.02829999999994,540.8303000699998 L430.3595,584.7521909699994 L458.6907,525.9607749599995 L487.02189999999996,495.6646034099999 L515.3530999999999,493.6045501200001 L543.6843,488.79344033999996 L572.0155,529.8044802600002 L600.3466999999999,482.86376913000004 L628.6778999999999,481.1146672799996 L657.0091,459.5251360500001 L685.3403,464.11598856 L713.6714999999999,458.8945956299999 L742.0026999999999,527.6105450999999 L770.3339,515.2934130599997 L798.6650999999999,498.8173055100001 L826.9962999999999,508.1156173200002 L855.3275,523.2313123199997 L883.6587,495.8416729800001 L911.9898999999999,498.9641436900001 L940.3210999999999,492.09729939 L968.6523,494.04938343000003 L996.9834999999999,509.0657467199999 L1025.3147,516.7877074799999 L1053.6459,499.24486374000026 L1081.9771,512.81012031 L1110.3083,503.20949459999974 L1138.6395,497.7117003899998 L1166.9706999999999,502.41484091999973 L1195.3019,495.56095293 L1223.6331,483.0840264000003 L1251.9642999999999,478.51044896999974 L1280.2955,472.28278262999993 L1308.6267,464.0771196300002 L1336.9578999999999,463.30405980000023 L1365.2891,468.7888976999998 L1393.6202999999998,472.23527615999956 L1421.9515,445.94692316999954 L1450.2827,449.4408080999997 "/>
                        </g>
                    </g>
                </g>
            </g>
            <g fill="none" stroke="black" stroke-width="1" fill-rule="evenodd" stroke-linecap="square" stroke-linejoin="bevel" id="LegendItem_1">
                <g fill="none" stroke="none" transform="matrix(1,0,0,1,82,61)" font-family="Segoe UI" font-size="12" font-weight="400" font-style="normal">
                    <rect vector-effect="non-scaling-stroke" x="0" y="0" width="241.188" height="108"/>
                </g>
                <g fill="none" stroke="black" stroke-width="1" fill-rule="evenodd" stroke-linecap="square" stroke-linejoin="bevel" id="ItemSample_1">
                    <g fill="none" stroke="#ff0000" stroke-opacity="1" stroke-width="3" stroke-linecap="square" stroke-linejoin="bevel" font-family="Segoe UI" font-size="12" font-weight="400" font-style="normal">
                        <polyline fill="none" vector-effect="non-scaling-stroke" points="91.0,81.0 111.0,81.0"/>
                    </g>
                </g>
                <g fill="none" stroke="black" stroke-width="1" fill-rule="evenodd" stroke-linecap="square" stroke-linejoin="bevel" id="LabelItem_1">
                    <g fill="none" stroke="black" stroke-width="1" fill-rule="evenodd" stroke-linecap="square" stroke-linejoin="bevel" id="QGraphicsTextItem_1">
                        


                        


                        


                        <g fill="none" stroke="#232323" stroke-opacity="1" stroke-width="1" stroke-linecap="square" stroke-linejoin="bevel" transform="matrix(1,0,0,1,116,70)" font-family="Segoe UI" font-size="12" font-weight="400" font-style="normal">
                            <text fill="#232323" fill-opacity="1" stroke="none" xml:space="preserve" x="4" y="21.2656" font-family="&quot;Segoe UI&quot;" font-size="16" font-weight="400" font-style="normal">Выборочное среднее </text>
                            <text fill="#232323" fill-opacity="1" stroke="none" xml:space="preserve" x="166.547" y="21.2656" font-family="&quot;Segoe UI&quot;" font-size="16" font-weight="400" font-style="normal">〈</text>
                            <text fill="#232323" fill-opacity="1" stroke="none" xml:space="preserve" x="171.813" y="21.2656" font-family="&quot;Segoe UI&quot;" font-size="16" font-weight="400" font-style="normal">n</text>
                            <text fill="#232323" fill-opacity="1" stroke="none" xml:space="preserve" x="180.859" y="21.2656" font-family="&quot;Segoe UI&quot;" font-size="16" font-weight="400" font-style="normal">〉</text>
                        </g>
                        


                        

                    </g>
                </g>
                <g fill="none" stroke="black" stroke-width="1" fill-rule="evenodd" stroke-linecap="square" stroke-linejoin="bevel" id="ItemSample_2">
                    <g fill="none" stroke="#ffa500" stroke-opacity="1" stroke-dasharray="4,2" stroke-dashoffset="0" stroke-width="1" stroke-linecap="square" stroke-linejoin="bevel" font-family="Segoe UI" font-size="12" font-weight="400" font-style="normal">
                        <polyline fill="none" vector-effect="non-scaling-stroke" points="91.0,111.0 111.0,111.0"/>
                    </g>
                </g>
                <g fill="none" stroke="black" stroke-width="1" fill-rule="evenodd" stroke-linecap="square" stroke-linejoin="bevel" id="LabelItem_2">
                    <g fill="none" stroke="black" stroke-width="1" fill-rule="evenodd" stroke-linecap="square" stroke-linejoin="bevel" id="QGraphicsTextItem_2">
                        


                        


                        


                        <g fill="none" stroke="#232323" stroke-opacity="1" stroke-width="1" stroke-linecap="square" stroke-linejoin="bevel" transform="matrix(1,0,0,1,116,100)" font-family="Segoe UI" font-size="12" font-weight="400" font-style="normal">
                            <text fill="#232323" fill-opacity="1" stroke="none" xml:space="preserve" x="4" y="21.2656" font-family="&quot;Segoe UI&quot;" font-size="16" font-weight="400" font-style="normal">Верхняя граница </text>
                            <text fill="#232323" fill-opacity="1" stroke="none" xml:space="preserve" x="132.297" y="21.2656" font-family="&quot;Segoe UI&quot;" font-size="16" font-weight="400" font-style="normal">〈</text>
                            <text fill="#232323" fill-opacity="1" stroke="none" xml:space="preserve" x="137.563" y="21.2656" font-family="&quot;Segoe UI&quot;" font-size="16" font-weight="400" font-style="normal">n</text>
                            <text fill="#232323" fill-opacity="1" stroke="none" xml:space="preserve" x="146.609" y="21.2656" font-family="&quot;Segoe UI&quot;" font-size="16" font-weight="400" font-style="normal">〉</text>
                            <text fill="#232323" fill-opacity="1" stroke="none" xml:space="preserve" x="151.875" y="21.2656" font-family="&quot;Segoe UI&quot;" font-size="16" font-weight="400" font-style="normal"> + </text>
                            <text fill="#232323" fill-opacity="1" stroke="none" xml:space="preserve" x="171.563" y="21.2656" font-family="&quot;Segoe UI&quot;" font-size="16" font-weight="400" font-style="normal">σ</text>
                            <text fill="#232323" fill-opacity="1" stroke="none" xml:space="preserve" x="180.75" y="23.5469" font-family="&quot;Segoe UI&quot;" font-size="10.6667" font-weight="400" font-style="normal">〈</text>
                            <text fill="#232323" fill-opacity="1" stroke="none" xml:space="preserve" x="184.359" y="23.5469" font-family="&quot;Segoe UI&quot;" font-size="10.6667" font-weight="400" font-style="normal">n</text>
                            <text fill="#232323" fill-opacity="1" stroke="none" xml:space="preserve" x="190.578" y="23.5469" font-family="&quot;Segoe UI&quot;" font-size="10.6667" font-weight="400" font-style="normal">〉</text>
                        </g>
                        


                        

                    </g>
                </g>
                <g fill="none" stroke="black" stroke-width="1" fill-rule="evenodd" stroke-linecap="square" stroke-linejoin="bevel" id="ItemSample_3">
                    <g fill="none" stroke="#ffa500" stroke-opacity="1" stroke-dasharray="4,2" stroke-dashoffset="0" stroke-width="1" stroke-linecap="square" stroke-linejoin="bevel" font-family="Segoe UI" font-size="12" font-weight="400" font-style="normal">
                        <polyline fill="none" vector-effect="non-scaling-stroke" points="91.0,141.0 111.0,141.0"/>
                    </g>
                </g>
                <g fill="none" stroke="black" stroke-width="1" fill-rule="evenodd" stroke-linecap="square" stroke-linejoin="bevel" id="LabelItem_3">
                    <g fill="none" stroke="black" stroke-width="1" fill-rule="evenodd" stroke-linecap="square" stroke-linejoin="bevel" id="QGraphicsTextItem_3">
                        


                        


                        


                        <g fill="none" stroke="#232323" stroke-opacity="1" stroke-width="1" stroke-linecap="square" stroke-linejoin="bevel" transform="matrix(1,0,0,1,116,130)" font-family="Segoe UI" font-size="12" font-weight="400" font-style="normal">
                            <text fill="#232323" fill-opacity="1" stroke="none" xml:space="preserve" x="4" y="21.2656" font-family="&quot;Segoe UI&quot;" font-size="16" font-weight="400" font-style="normal">Нижняя граница </text>
                            <text fill="#232323" fill-opacity="1" stroke="none" xml:space="preserve" x="130.609" y="21.2656" font-family="&quot;Segoe UI&quot;" font-size="16" font-weight="400" font-style="normal">〈</text>
                            <text fill="#232323" fill-opacity="1" stroke="none" xml:space="preserve" x="135.875" y="21.2656" font-family="&quot;Segoe UI&quot;" font-size="16" font-weight="400" font-style="normal">n</text>
                            <text fill="#232323" fill-opacity="1" stroke="none" xml:space="preserve" x="144.922" y="21.2656" font-family="&quot;Segoe UI&quot;" font-size="16" font-weight="400" font-style="normal">〉</text>
                            <text fill="#232323" fill-opacity="1" stroke="none" xml:space="preserve" x="150.188" y="21.2656" font-family="&quot;Segoe UI&quot;" font-size="16" font-weight="400" font-style="normal"> - </text>
                            <text fill="#232323" fill-opacity="1" stroke="none" xml:space="preserve" x="165.328" y="21.2656" font-family="&quot;Segoe UI&quot;" font-size="16" font-weight="400" font-style="normal">σ</text>
                            <text fill="#232323" fill-opacity="1" stroke="none" xml:space="preserve" x="174.516" y="23.5469" font-family="&quot;Segoe UI&quot;" font-size="10.6667" font-weight="400" font-style="normal">〈</text>
                            <text fill="#232323" fill-opacity="1" stroke="none" xml:space="preserve" x="178.125" y="23.5469" font-family="&quot;Segoe UI&quot;" font-size="10.6667" font-weight="400" font-style="normal">n</text>
                            <text fill="#232323" fill-opacity="1" stroke="none" xml:space="preserve" x="184.344" y="23.5469" font-family="&quot;Segoe UI&quot;" font-size="10.6667" font-weight="400" font-style="normal">〉</text>
                        </g>
                        


                        

                    </g>
                </g>
            </g>
            <g fill="none" stroke="black" stroke-width="1" fill-rule="evenodd" stroke-linecap="square" stroke-linejoin="bevel" id="QGraphicsRectItem_1">
                <g fill="none" stroke="none" transform="matrix(1,0,0,1,52,31)" font-family="Segoe UI" font-size="12" font-weight="400" font-style="normal">
                    <rect vector-effect="non-scaling-stroke" x="0" y="0" width="1465" height="582"/>
                </g>
            </g>
        </g>
    </g>
    <g fill="none" stroke="black" stroke-width="1" fill-rule="evenodd" stroke-linecap="square" stroke-linejoin="bevel" id="LabelItem_4">
        <g fill="none" stroke="black" stroke-width="1" fill-rule="evenodd" stroke-linecap="square" stroke-linejoin="bevel" id="QGraphicsTextItem_4">
            


            


            


            


            

        </g>
    </g>
    <g fill="none" stroke="black" stroke-width="1" fill-rule="evenodd" stroke-linecap="square" stroke-linejoin="bevel" id="AxisItem_1">
        <g fill="none" stroke="#969696" stroke-opacity="1" stroke-width="1" stroke-linecap="square" stroke-linejoin="bevel" font-family="Segoe UI" font-size="12" font-weight="400" font-style="normal">
            <polyline fill="none" vector-effect="non-scaling-stroke" points="51.0,614.0 1518.0,614.0"/>
        </g>
        <g fill="none" stroke="#969696" stroke-opacity="0.298039" stroke-width="1" stroke-linecap="square" stroke-linejoin="bevel" font-family="Segoe UI" font-size="12" font-weight="400" font-style="normal">
            <polyline fill="none" vector-effect="non-scaling-stroke" points="90.3851,31.0 90.3851,613.0"/>
            <polyline fill="none" vector-effect="non-scaling-stroke" points="373.697,31.0 373.697,613.0"/>
            <polyline fill="none" vector-effect="non-scaling-stroke" points="657.01,31.0 657.01,613.0"/>
            <polyline fill="none" vector-effect="non-scaling-stroke" points="940.322,31.0 940.322,613.0"/>
            <polyline fill="none" vector-effect="non-scaling-stroke" points="1223.63,31.0 1223.63,613.0"/>
            <polyline fill="none" vector-effect="non-scaling-stroke" points="1506.95,31.0 1506.95,613.0"/>
        </g>
        <g fill="none" stroke="#969696" stroke-opacity="0.14902" stroke-width="1" stroke-linecap="square" stroke-linejoin="bevel" font-family="Segoe UI" font-size="12" font-weight="400" font-style="normal">
            <polyline fill="none" vector-effect="non-scaling-stroke" points="232.041,31.0 232.041,613.0"/>
            <polyline fill="none" vector-effect="non-scaling-stroke" points="515.3530000000001,31.0 515.3530000000001,613.0"/>
            <polyline fill="none" vector-effect="non-scaling-stroke" points="798.666,31.0 798.666,613.0"/>
            <polyline fill="none" vector-effect="non-scaling-stroke" points="1081.98,31.0 1081.98,613.0"/>
            <polyline fill="none" vector-effect="non-scaling-stroke" points="1365.29,31.0 1365.29,613.0"/>
        </g>
        <g fill="none" stroke="#969696" stroke-opacity="0.0980392" stroke-width="1" stroke-linecap="square" stroke-linejoin="bevel" font-family="Segoe UI" font-size="12" font-weight="400" font-style="normal">
            <polyline fill="none" vector-effect="non-scaling-stroke" points="62.0538,31.0 62.0538,613.0"/>
            <polyline fill="none" vector-effect="non-scaling-stroke" points="118.7163,31.0 118.7163,613.0"/>
            <polyline fill="none" vector-effect="non-scaling-stroke" points="147.0475,31.0 147.0475,613.0"/>
            <polyline fill="none" vector-effect="non-scaling-stroke" points="175.37900000000002,31.0 175.37900000000002,613.0"/>
            <polyline fill="none" vector-effect="non-scaling-stroke" points="203.71,31.0 203.71,613.0"/>
            <polyline fill="none" vector-effect="non-scaling-stroke" points="260.372,31.0 260.372,613.0"/>
            <polyline fill="none" vector-effect="non-scaling-stroke" points="288.704,31.0 288.704,613.0"/>
            <polyline fill="none" vector-effect="non-scaling-stroke" points="317.035,31.0 317.035,613.0"/>
            <polyline fill="none" vector-effect="non-scaling-stroke" points="345.366,31.0 345.366,613.0"/>
            <polyline fill="none" vector-effect="non-scaling-stroke" points="402.029,31.0 402.029,613.0"/>
            <polyline fill="none" vector-effect="non-scaling-stroke" points="430.36,31.0 430.36,613.0"/>
            <polyline fill="none" vector-effect="non-scaling-stroke" points="458.691,31.0 458.691,613.0"/>
            <polyline fill="none" vector-effect="non-scaling-stroke" points="487.022,31.0 487.022,613.0"/>
            <polyline fill="none" vector-effect="non-scaling-stroke" points="543.685,31.0 543.685,613.0"/>
            <polyline fill="none" vector-effect="non-scaling-stroke" points="572.016,31.0 572.016,613.0"/>
            <polyline fill="none" vector-effect="non-scaling-stroke" points="600.347,31.0 600.347,613.0"/>
            <polyline fill="none" vector-effect="non-scaling-stroke" points="628.678,31.0 628.678,613.0"/>
            <polyline fill="none" vector-effect="non-scaling-stroke" points="685.341,31.0 685.341,613.0"/>
            <polyline fill="none" vector-effect="non-scaling-stroke" points="713.672,31.0 713.672,613.0"/>
            <polyline fill="none" vector-effect="non-scaling-stroke" points="742.003,31.0 742.003,613.0"/>
            <polyline fill="none" vector-effect="non-scaling-stroke" points="770.334,31.0 770.334,613.0"/>
            <polyline fill="none" vector-effect="non-scaling-stroke" points="826.997,31.0 826.997,613.0"/>
            <polyline fill="none" vector-effect="non-scaling-stroke" points="855.328,31.0 855.328,613.0"/>
            <polyline fill="none" vector-effect="non-scaling-stroke" points="883.659,31.0 883.659,613.0"/>
            <polyline fill="none" vector-effect="non-scaling-stroke" points="911.99,31.0 911.99,613.0"/>
            <polyline fill="none" vector-effect="non-scaling-stroke" points="968.653,31.0 968.653,613.0"/>
            <polyline fill="none" vector-effect="non-scaling-stroke" points="996.984,31.0 996.984,613.0"/>
            <polyline fill="none" vector-effect="non-scaling-stroke" points="1025.315,31.0 1025.315,613.0"/>
            <polyline fill="none" vector-effect="non-scaling-stroke" points="1053.65,31.0 1053.65,613.0"/>
            <polyline fill="none" vector-effect="non-scaling-stroke" points="1110.31,31.0 1110.31,613.0"/>
            <polyline fill="none" vector-effect="non-scaling-stroke" points="1138.64,31.0 1138.64,613.0"/>
            <polyline fill="none" vector-effect="non-scaling-stroke" points="1166.97,31.0 1166.97,613.0"/>
            <polyline fill="none" vector-effect="non-scaling-stroke" points="1195.3,31.0 1195.3,613.0"/>
            <polyline fill="none" vector-effect="non-scaling-stroke" points="1251.97,31.0 1251.97,613.0"/>
            <polyline fill="none" vector-effect="non-scaling-stroke" points="1280.3,31.0 1280.3,613.0"/>
            <polyline fill="none" vector-effect="non-scaling-stroke" points="1308.63,31.0 1308.63,613.0"/>
            <polyline fill="none" vector-effect="non-scaling-stroke" points="1336.96,31.0 1336.96,613.0"/>
            <polyline fill="none" vector-effect="non-scaling-stroke" points="1393.62,31.0 1393.62,613.0"/>
            <polyline fill="none" vector-effect="non-scaling-stroke" points="1421.95,31.0 1421.95,613.0"/>
            <polyline fill="none" vector-effect="non-scaling-stroke" points="1450.28,31.0 1450.28,613.0"/>
            <polyline fill="none" vector-effect="non-scaling-stroke" points="1478.61,31.0 1478.61,613.0"/>
        </g>
        <g fill="none" stroke="#969696" stroke-opacity="1" stroke-width="1" stroke-linecap="square" stroke-linejoin="bevel" transform="matrix(1,0,0,1,52,613)" font-family="Segoe UI" font-size="12" font-weight="400" font-style="normal">
            <text fill="#969696" fill-opacity="1" stroke="none" xml:space="preserve" x="35.1406" y="14.9063" font-family="&quot;Segoe UI&quot;" font-size="12" font-weight="400" font-style="normal">0</text>
            <text fill="#969696" fill-opacity="1" stroke="none" xml:space="preserve" x="315.219" y="14.9063" font-family="&quot;Segoe UI&quot;" font-size="12" font-weight="400" font-style="normal">10</text>
            <text fill="#969696" fill-opacity="1" stroke="none" xml:space="preserve" x="598.531" y="14.9063" font-family="&quot;Segoe UI&quot;" font-size="12" font-weight="400" font-style="normal">20</text>
            <text fill="#969696" fill-opacity="1" stroke="none" xml:space="preserve" x="881.844" y="14.9063" font-family="&quot;Segoe UI&quot;" font-size="12" font-weight="400" font-style="normal">30</text>
            <text fill="#969696" fill-opacity="1" stroke="none" xml:space="preserve" x="1165.16" y="14.9063" font-family="&quot;Segoe UI&quot;" font-size="12" font-weight="400" font-style="normal">40</text>
            <text fill="#969696" fill-opacity="1" stroke="none" xml:space="preserve" x="1448.47" y="14.9063" font-family="&quot;Segoe UI&quot;" font-size="12" font-weight="400" font-style="normal">50</text>
            <text fill="#969696" fill-opacity="1" stroke="none" xml:space="preserve" x="176.797" y="14.9063" font-family="&quot;Segoe UI&quot;" font-size="12" font-weight="400" font-style="normal">5</text>
            <text fill="#969696" fill-opacity="1" stroke="none" xml:space="preserve" x="456.875" y="14.9063" font-family="&quot;Segoe UI&quot;" font-size="12" font-weight="400" font-style="normal">15</text>
            <text fill="#969696" fill-opacity="1" stroke="none" xml:space="preserve" x="740.188" y="14.9063" font-family="&quot;Segoe UI&quot;" font-size="12" font-weight="400" font-style="normal">25</text>
            <text fill="#969696" fill-opacity="1" stroke="none" xml:space="preserve" x="1023.5" y="14.9063" font-family="&quot;Segoe UI&quot;" font-size="12" font-weight="400" font-style="normal">35</text>
            <text fill="#969696" fill-opacity="1" stroke="none" xml:space="preserve" x="1306.81" y="14.9063" font-family="&quot;Segoe UI&quot;" font-size="12" font-weight="400" font-style="normal">45</text>
        </g>
        <g fill="none" stroke="black" stroke-width="1" fill-rule="evenodd" stroke-linecap="square" stroke-linejoin="bevel" id="QGraphicsTextItem_5">
            


            


            


            <g fill="none" stroke="#232323" stroke-opacity="1" stroke-width="1" stroke-linecap="square" stroke-linejoin="bevel" transform="matrix(1,0,0,1,721,632)" font-family="Segoe UI" font-size="12" font-weight="400" font-style="normal">
                <text fill="#232323" fill-opacity="1" stroke="none" xml:space="preserve" x="4" y="21.2656" font-family="&quot;Segoe UI&quot;" font-size="16" font-weight="400" font-style="normal">Номер измерения </text>
            </g>
            


            

        </g>
    </g>
    <g fill="none" stroke="black" stroke-width="1" fill-rule="evenodd" stroke-linecap="square" stroke-linejoin="bevel" id="AxisItem_2">
        <g fill="none" stroke="#969696" stroke-opacity="1" stroke-width="1" stroke-linecap="square" stroke-linejoin="bevel" font-family="Segoe UI" font-size="12" font-weight="400" font-style="normal">
            <polyline fill="none" vector-effect="non-scaling-stroke" points="51.0,30.0 51.0,614.0"/>
        </g>
        <g fill="none" stroke="#969696" stroke-opacity="0.298039" stroke-width="1" stroke-linecap="square" stroke-linejoin="bevel" font-family="Segoe UI" font-size="12" font-weight="400" font-style="normal">
            <polyline fill="none" vector-effect="non-scaling-stroke" points="1517.5,542.163 52.0,542.163"/>
            <polyline fill="none" vector-effect="non-scaling-stroke" points="1517.5,455.788 52.0,455.788"/>
            <polyline fill="none" vector-effect="non-scaling-stroke" points="1517.5,369.413 52.0,369.413"/>
            <polyline fill="none" vector-effect="non-scaling-stroke" points="1517.5,283.03700000000003 52.0,283.03700000000003"/>
            <polyline fill="none" vector-effect="non-scaling-stroke" points="1517.5,196.662 52.0,196.662"/>
            <polyline fill="none" vector-effect="non-scaling-stroke" points="1517.5,110.2864 52.0,110.2864"/>
        </g>
        <g fill="none" stroke="#969696" stroke-opacity="0.14902" stroke-width="1" stroke-linecap="square" stroke-linejoin="bevel" font-family="Segoe UI" font-size="12" font-weight="400" font-style="normal">
            <polyline fill="none" vector-effect="non-scaling-stroke" points="1517.5,585.351 52.0,585.351"/>
            <polyline fill="none" vector-effect="non-scaling-stroke" points="1517.5,498.976 52.0,498.976"/>
            <polyline fill="none" vector-effect="non-scaling-stroke" points="1517.5,412.6 52.0,412.6"/>
            <polyline fill="none" vector-effect="non-scaling-stroke" points="1517.5,326.225 52.0,326.225"/>
            <polyline fill="none" vector-effect="non-scaling-stroke" points="1517.5,239.85 52.0,239.85"/>
            <polyline fill="none" vector-effect="non-scaling-stroke" points="1517.5,153.474 52.0,153.474"/>
            <polyline fill="none" vector-effect="non-scaling-stroke" points="1517.5,67.09870000000001 52.0,67.09870000000001"/>
        </g>
        <g fill="none" stroke="#969696" stroke-opacity="0.0509804" stroke-width="1" stroke-linecap="square" stroke-linejoin="bevel" font-family="Segoe UI" font-size="12" font-weight="400" font-style="normal">
            <polyline fill="none" vector-effect="non-scaling-stroke" points="1517.5,611.264 52.0,611.264"/>
            <polyline fill="none" vector-effect="non-scaling-stroke" points="1517.5,602.626 52.0,602.626"/>
            <polyline fill="none" vector-effect="non-scaling-stroke" points="1517.5,593.989 52.0,593.989"/>
            <polyline fill="none" vector-effect="non-scaling-stroke" points="1517.5,576.714 52.0,576.714"/>
            <polyline fill="none" vector-effect="non-scaling-stroke" points="1517.5,568.076 52.0,568.076"/>
            <polyline fill="none" vector-effect="non-scaling-stroke" points="1517.5,559.438 52.0,559.438"/>
            <polyline fill="none" vector-effect="non-scaling-stroke" points="1517.5,550.801 52.0,550.801"/>
            <polyline fill="none" vector-effect="non-scaling-stroke" points="1517.5,533.5260000000001 52.0,533.5260000000001"/>
            <polyline fill="none" vector-effect="non-scaling-stroke" points="1517.5,524.8879999999999 52.0,524.8879999999999"/>
            <polyline fill="none" vector-effect="non-scaling-stroke" points="1517.5,516.251 52.0,516.251"/>
            <polyline fill="none" vector-effect="non-scaling-stroke" points="1517.5,507.613 52.0,507.613"/>
            <polyline fill="none" vector-effect="non-scaling-stroke" points="1517.5,490.338 52.0,490.338"/>
            <polyline fill="none" vector-effect="non-scaling-stroke" points="1517.5,481.701 52.0,481.701"/>
            <polyline fill="none" vector-effect="non-scaling-stroke" points="1517.5,473.063 52.0,473.063"/>
            <polyline fill="none" vector-effect="non-scaling-stroke" points="1517.5,464.426 52.0,464.426"/>
            <polyline fill="none" vector-effect="non-scaling-stroke" points="1517.5,447.15 52.0,447.15"/>
            <polyline fill="none" vector-effect="non-scaling-stroke" points="1517.5,438.513 52.0,438.513"/>
            <polyline fill="none" vector-effect="non-scaling-stroke" points="1517.5,429.875 52.0,429.875"/>
            <polyline fill="none" vector-effect="non-scaling-stroke" points="1517.5,421.238 52.0,421.238"/>
            <polyline fill="none" vector-effect="non-scaling-stroke" points="1517.5,403.963 52.0,403.963"/>
            <polyline fill="none" vector-effect="non-scaling-stroke" points="1517.5,395.325 52.0,395.325"/>
            <polyline fill="none" vector-effect="non-scaling-stroke" points="1517.5,386.688 52.0,386.688"/>
            <polyline fill="none" vector-effect="non-scaling-stroke" points="1517.5,378.05 52.0,378.05"/>
            <polyline fill="none" vector-effect="non-scaling-stroke" points="1517.5,360.775 52.0,360.775"/>
            <polyline fill="none" vector-effect="non-scaling-stroke" points="1517.5,352.138 52.0,352.138"/>
            <polyline fill="none" vector-effect="non-scaling-stroke" points="1517.5,343.5 52.0,343.5"/>
            <polyline fill="none" vector-effect="non-scaling-stroke" points="1517.5,334.862 52.0,334.862"/>
            <polyline fill="none" vector-effect="non-scaling-stroke" points="1517.5,317.587 52.0,317.587"/>
            <polyline fill="none" vector-effect="non-scaling-stroke" points="1517.5,308.95 52.0,308.95"/>
            <polyline fill="none" vector-effect="non-scaling-stroke" points="1517.5,300.312 52.0,300.312"/>
            <polyline fill="none" vector-effect="non-scaling-stroke" points="1517.5,291.675 52.0,291.675"/>
            <polyline fill="none" vector-effect="non-scaling-stroke" points="1517.5,274.4 52.0,274.4"/>
            <polyline fill="none" vector-effect="non-scaling-stroke" points="1517.5,265.762 52.0,265.762"/>
            <polyline fill="none" vector-effect="non-scaling-stroke" points="1517.5,257.125 52.0,257.125"/>
            <polyline fill="none" vector-effect="non-scaling-stroke" points="1517.5,248.487 52.0,248.487"/>
            <polyline fill="none" vector-effect="non-scaling-stroke" points="1517.5,231.212 52.0,231.212"/>
            <polyline fill="none" vector-effect="non-scaling-stroke" points="1517.5,222.574 52.0,222.574"/>
            <polyline fill="none" vector-effect="non-scaling-stroke" points="1517.5,213.937 52.0,213.937"/>
            <polyline fill="none" vector-effect="non-scaling-stroke" points="1517.5,205.299 52.0,205.299"/>
            <polyline fill="none" vector-effect="non-scaling-stroke" points="1517.5,188.024 52.0,188.024"/>
            <polyline fill="none" vector-effect="non-scaling-stroke" points="1517.5,179.387 52.0,179.387"/>
            <polyline fill="none" vector-effect="non-scaling-stroke" points="1517.5,170.749 52.0,170.749"/>
            <polyline fill="none" vector-effect="non-scaling-stroke" points="1517.5,162.112 52.0,162.112"/>
            <polyline fill="none" vector-effect="non-scaling-stroke" points="1517.5,144.837 52.0,144.837"/>
            <polyline fill="none" vector-effect="non-scaling-stroke" points="1517.5,136.199 52.0,136.199"/>
            <polyline fill="none" vector-effect="non-scaling-stroke" points="1517.5,127.5615 52.0,127.5615"/>
            <polyline fill="none" vector-effect="non-scaling-stroke" points="1517.5,118.924 52.0,118.924"/>
            <polyline fill="none" vector-effect="non-scaling-stroke" points="1517.5,101.6489 52.0,101.6489"/>
            <polyline fill="none" vector-effect="non-scaling-stroke" points="1517.5,93.0113 52.0,93.0113"/>
            <polyline fill="none" vector-effect="non-scaling-stroke" points="1517.5,84.3738 52.0,84.3738"/>
            <polyline fill="none" vector-effect="non-scaling-stroke" points="1517.5,75.7363 52.0,75.7363"/>
            <polyline fill="none" vector-effect="non-scaling-stroke" points="1517.5,58.461200000000005 52.0,58.461200000000005"/>
            <polyline fill="none" vector-effect="non-scaling-stroke" points="1517.5,49.8237 52.0,49.8237"/>
            <polyline fill="none" vector-effect="non-scaling-stroke" points="1517.5,41.186099999999996 52.0,41.186099999999996"/>
            <polyline fill="none" vector-effect="non-scaling-stroke" points="1517.5,32.54857 52.0,32.54857"/>
        </g>
        <g fill="none" stroke="#969696" stroke-opacity="1" stroke-width="1" stroke-linecap="square" stroke-linejoin="bevel" transform="matrix(1,0,0,1,1,31)" font-family="Segoe UI" font-size="12" font-weight="400" font-style="normal">
            <text fill="#969696" fill-opacity="1" stroke="none" xml:space="preserve" x="33.0625" y="516.078" font-family="&quot;Segoe UI&quot;" font-size="12" font-weight="400" font-style="normal">76</text>
            <text fill="#969696" fill-opacity="1" stroke="none" xml:space="preserve" x="33.0625" y="429.703" font-family="&quot;Segoe UI&quot;" font-size="12" font-weight="400" font-style="normal">78</text>
            <text fill="#969696" fill-opacity="1" stroke="none" xml:space="preserve" x="33.0625" y="343.328" font-family="&quot;Segoe UI&quot;" font-size="12" font-weight="400" font-style="normal">80</text>
            <text fill="#969696" fill-opacity="1" stroke="none" xml:space="preserve" x="33.0625" y="256.953" font-family="&quot;Segoe UI&quot;" font-size="12" font-weight="400" font-style="normal">82</text>
            <text fill="#969696" fill-opacity="1" stroke="none" xml:space="preserve" x="33.0625" y="170.578" font-family="&quot;Segoe UI&quot;" font-size="12" font-weight="400" font-style="normal">84</text>
            <text fill="#969696" fill-opacity="1" stroke="none" xml:space="preserve" x="33.0625" y="84.2031" font-family="&quot;Segoe UI&quot;" font-size="12" font-weight="400" font-style="normal">86</text>
        </g>
        <g fill="none" stroke="black" stroke-width="1" fill-rule="evenodd" stroke-linecap="square" stroke-linejoin="bevel" id="QGraphicsTextItem_6">
            


            


            


            <g fill="none" stroke="#232323" stroke-opacity="1" stroke-width="1" stroke-linecap="square" stroke-linejoin="bevel" transform="matrix(0,-1,1,0,-4,377)" font-family="Segoe UI" font-size="12" font-weight="400" font-style="normal">
                <text fill="#232323" fill-opacity="1" stroke="none" xml:space="preserve" x="4" y="21.2656" font-family="&quot;Segoe UI&quot;" font-size="16" font-weight="400" font-style="normal">Доля случаев </text>
            </g>
            


            

        </g>
    </g>
</g>

</svg>
